SplineFontDB: 3.0
FontName: Rye-Regular
FullName: Rye Regular
FamilyName: Rye
Weight: Book
Copyright: Copyright (c) 2010 by Sorkin Type Co with Reserved Font Name Rye.\n\nThis Font Software is licensed under the SIL Open Font License, Version 1.1. This license is copied below, and is also available with a FAQ at: http://scripts.sil.org/OFL
Version: 1.001
ItalicAngle: 0
UnderlinePosition: -97
UnderlineWidth: 146
Ascent: 1638
Descent: 410
LayerCount: 2
Layer: 0 1 "Back"  1
Layer: 1 1 "Fore"  0
XUID: [1021 631 1661839179 12220463]
FSType: 0
OS2Version: 3
OS2_WeightWidthSlopeOnly: 0
OS2_UseTypoMetrics: 1
CreationTime: 1334080080
ModificationTime: 1334066258
PfmFamily: 17
TTFWeight: 400
TTFWidth: 5
LineGap: 0
VLineGap: 0
Panose: 2 14 8 3 7 5 0 6 0 0
OS2TypoAscent: 382
OS2TypoAOffset: 1
OS2TypoDescent: -130
OS2TypoDOffset: 1
OS2TypoLinegap: 0
OS2WinAscent: 0
OS2WinAOffset: 1
OS2WinDescent: 0
OS2WinDOffset: 1
HheadAscent: 0
HheadAOffset: 1
HheadDescent: 0
HheadDOffset: 1
OS2SubXSize: 1434
OS2SubYSize: 1331
OS2SubXOff: 0
OS2SubYOff: 287
OS2SupXSize: 1434
OS2SupYSize: 1331
OS2SupXOff: 0
OS2SupYOff: 977
OS2StrikeYSize: 146
OS2StrikeYPos: 795
OS2Vendor: 'STC '
OS2CodePages: 00000001.00000000
OS2UnicodeRanges: 800000af.00000042.00000000.00000000
DEI: 91125
TtTable: prep
MPPEM
PUSHW_1
 150
GT
IF
PUSHB_2
 1
 1
INSTCTRL
EIF
PUSHW_2
 2048
 2048
MUL
DUP
PUSHB_1
 1
SWAP
WCVTP
DUP
PUSHB_1
 3
SWAP
WCVTF
PUSHB_1
 21
RCVT
DUP
DUP
PUSHB_1
 40
ADD
FLOOR
DUP
ROLL
NEQ
IF
PUSHB_1
 2
CINDEX
SUB
PUSHB_1
 1
RCVT
MUL
SWAP
DIV
PUSHB_1
 2
SWAP
WCVTP
PUSHB_4
 10
 11
 3
 2
CALL
PUSHB_4
 12
 17
 3
 2
CALL
PUSHB_4
 18
 23
 3
 2
CALL
EIF
PUSHB_3
 4
 40
 7
RCVT
GT
WCVTP
PUSHB_4
 12
 17
 4
 2
CALL
PUSHW_1
 511
SCANCTRL
PUSHB_1
 4
SCANTYPE
PUSHB_2
 5
 0
WCVTP
EndTTInstrs
TtTable: fpgm
PUSHB_1
 0
FDEF
DUP
ABS
PUSHB_1
 32
ADD
FLOOR
SWAP
PUSHB_1
 0
LT
IF
NEG
EIF
ENDF
PUSHB_1
 1
FDEF
DUP
ABS
DUP
PUSHB_1
 192
LT
PUSHB_1
 4
MINDEX
AND
PUSHB_1
 4
RCVT
OR
IF
POP
SWAP
POP
ELSE
ROLL
IF
DUP
PUSHB_1
 80
LT
IF
POP

StartChar: exclam
Encoding: 33 33 23
Width: 848
GlyphClass: 2
Flags: W
LayerCount: 2
Fore
SplineSet
757 1552 m 1,0,1
 732 1569 732 1569 704.5 1569 c 128,-1,2
 677 1569 677 1569 662.5 1563 c 128,-1,3
 648 1557 648 1557 640 1545 c 0,4,5
 627 1527 627 1527 620 1473 c 1,6,-1
 527 577 l 1,7,8
 518 523 518 523 490 496 c 128,-1,9
 462 469 462 469 430.5 469 c 128,-1,10
 399 469 399 469 369.5 498 c 128,-1,11
 340 527 340 527 332 578 c 1,12,-1
 228 1473 l 2,13,14
 221 1527 221 1527 211 1542 c 0,15,16
 192 1569 192 1569 152.5 1569 c 128,-1,17
 113 1569 113 1569 91 1552 c 1,18,19
 80 1566 80 1566 80 1596 c 128,-1,20
 80 1626 80 1626 105.5 1653 c 128,-1,21
 131 1680 131 1680 182 1680 c 128,-1,22
 233 1680 233 1680 286 1665 c 1,23,24
 348 1700 348 1700 425 1700 c 128,-1,25
 502 1700 502 1700 561 1665 c 1,26,27
 610 1680 610 1680 663.5 1680 c 128,-1,28
 717 1680 717 1680 742.5 1652.5 c 128,-1,29
 768 1625 768 1625 768 1600 c 0,30,31
 768 1567 768 1567 757 1552 c 1,0,1
401 636 m 1,32,33
 423 647 423 647 423 785 c 0,34,35
 423 844 423 844 418 910 c 2,36,-1
 409 1048 l 1,37,38
 383 1425 383 1425 346 1498 c 0,39,40
 334 1521 334 1521 319 1513 c 1,41,-1
 401 636 l 1,32,33
168 164 m 1,42,43
 224 199 224 199 238.5 220.5 c 128,-1,44
 253 242 253 242 262 259 c 0,45,46
 286 304 286 304 332.5 329.5 c 128,-1,47
 379 355 379 355 433 355 c 0,48,49
 545 355 545 355 595 261 c 0,50,51
 635 187 635 187 690 164 c 1,52,53
 675 155 675 155 662 148 c 128,-1,54
 649 141 649 141 638 132 c 0,55,56
 615 113 615 113 592 73.5 c 128,-1,57
 569 34 569 34 526.5 4.5 c 128,-1,58
 484 -25 484 -25 433 -25 c 256,59,60
 382 -25 382 -25 334.5 4.5 c 128,-1,61
 287 34 287 34 262 79 c 0,62,63
 233 129 233 129 209.5 142.5 c 128,-1,64
 186 156 186 156 168 164 c 1,42,43
380.5 127.5 m 128,-1,66
 377 142 377 142 377 181.5 c 128,-1,67
 377 221 377 221 415 278 c 1,68,69
 393 278 393 278 376 269.5 c 128,-1,70
 359 261 359 261 346 244 c 128,-1,71
 333 227 333 227 327.5 217.5 c 128,-1,72
 322 208 322 208 314 198 c 1,73,74
 295 170 295 170 283 164 c 1,75,76
 299 155 299 155 312.5 135.5 c 128,-1,77
 326 116 326 116 344 94 c 0,78,79
 371 62 371 62 415 62 c 1,80,81
 409 73 409 73 402.5 82.5 c 128,-1,82
 396 92 396 92 390 102.5 c 128,-1,65
 384 113 384 113 380.5 127.5 c 128,-1,66
EndSplineSet
EndChar

StartChar: quotedbl
Encoding: 34 34 24
Width: 1059
GlyphClass: 2
Flags: W
LayerCount: 2
Fore
SplineSet
289 814 m 256,0,1
 268 814 268 814 259 832 c 0,2,3
 245 862 245 862 236 920 c 128,-1,4
 227 978 227 978 217.5 1022.5 c 128,-1,5
 208 1067 208 1067 196 1111.5 c 128,-1,6
 184 1156 184 1156 171 1198 c 2,7,-1
 146 1274 l 1,8,9
 117 1358 117 1358 40 1383 c 1,10,11
 105 1416 105 1416 131 1460 c 0,12,13
 186 1550 186 1550 291 1550 c 0,14,15
 340 1550 340 1550 382 1527 c 128,-1,16
 424 1504 424 1504 444.5 1470 c 128,-1,17
 465 1436 465 1436 486 1418.5 c 128,-1,18
 507 1401 507 1401 542 1383 c 1,19,20
 465 1358 465 1358 436 1274 c 1,21,-1
 411 1198 l 1,22,23
 367 1056 367 1056 355 978.5 c 128,-1,24
 343 901 343 901 337 877 c 128,-1,25
 331 853 331 853 324 839 c 0,26,27
 310 814 310 814 289 814 c 256,0,1
242 1151 m 1,28,-1
 242 1362 l 2,29,30
 242 1452 242 1452 255 1473 c 1,31,32
 224 1465 224 1465 208 1447 c 128,-1,33
 192 1429 192 1429 183 1418 c 0,34,35
 168 1399 168 1399 135 1383 c 1,36,37
 173 1358 173 1358 189 1324 c 0,38,39
 214 1271 214 1271 242 1151 c 1,28,-1
766 814 m 256,40,41
 745 814 745 814 736 832 c 0,42,43
 722 862 722 862 713 920 c 128,-1,44
 704 978 704 978 694.5 1022.5 c 128,-1,45
 685 1067 685 1067 673 1111.5 c 128,-1,46
 661 1156 661 1156 648 1198 c 2,47,-1
 623 1274 l 1,48,49
 594 1358 594 1358 517 1383 c 1,50,51
 582 1416 582 1416 608 1460 c 0,52,53
 663 1550 663 1550 768 1550 c 0,54,55
 817 1550 817 1550 859 1527 c 128,-1,56
 901 1504 901 1504 921.5 1470 c 128,-1,57
 942 1436 942 1436 963 1418.5 c 128,-1,58
 984 1401 984 1401 1019 1383 c 1,59,60
 942 1358 942 1358 913 1274 c 1,61,-1
 888 1198 l 1,62,63
 844 1056 844 1056 832 978.5 c 128,-1,64
 820 901 820 901 814 877 c 128,-1,65
 808 853 808 853 801 839 c 0,66,67
 787 814 787 814 766 814 c 256,40,41
719 1151 m 1,68,-1
 719 1362 l 2,69,70
 719 1452 719 1452 732 1473 c 1,71,72
 701 1465 701 1465 685 1447 c 128,-1,73
 669 1429 669 1429 660 1418 c 0,74,75
 645 1399 645 1399 612 1383 c 1,76,77
 650 1358 650 1358 666 1324 c 0,78,79
 691 1271 691 1271 719 1151 c 1,68,-1
EndSplineSet
EndChar

StartChar: numbersign
Encoding: 35 35 25
Width: 1392
GlyphClass: 2
Flags: W
LayerCount: 2
Fore
SplineSet
1209 658 m 1,0,1
 1217 644 1217 644 1217 611 c 128,-1,2
 1217 578 1217 578 1184.5 545 c 128,-1,3
 1152 512 1152 512 1088 512 c 2,4,-1
 951 512 l 1,5,-1
 854 -18 l 1,6,7
 839 -30 839 -30 813 -30 c 0,8,9
 712 -30 712 -30 712 94 c 0,10,11
 712 112 712 112 722 170 c 2,12,-1
 785 512 l 1,13,-1
 512 512 l 1,14,-1
 415 -18 l 1,15,16
 400 -30 400 -30 374 -30 c 0,17,18
 273 -30 273 -30 273 94 c 0,19,20
 273 112 273 112 283 170 c 2,21,-1
 346 512 l 1,22,-1
 113 512 l 1,23,24
 105 526 105 526 105 559 c 128,-1,25
 105 592 105 592 137.5 625 c 128,-1,26
 170 658 170 658 234 658 c 2,27,-1
 373 658 l 1,28,-1
 408 852 l 1,29,-1
 173 852 l 1,30,31
 165 866 165 866 165 899 c 128,-1,32
 165 932 165 932 197.5 965 c 128,-1,33
 230 998 230 998 294 998 c 2,34,-1
 435 998 l 1,35,-1
 535 1538 l 1,36,37
 550 1550 550 1550 576 1550 c 0,38,39
 677 1550 677 1550 677 1426 c 0,40,41
 677 1408 677 1408 667 1350 c 2,42,-1
 602 998 l 1,43,-1
 874 998 l 1,44,-1
 974 1538 l 1,45,46
 989 1550 989 1550 1015 1550 c 0,47,48
 1116 1550 1116 1550 1116 1426 c 0,49,50
 1116 1408 1116 1408 1106 1350 c 2,51,-1
 1041 998 l 1,52,-1
 1269 998 l 1,53,54
 1277 984 1277 984 1277 951 c 128,-1,55
 1277 918 1277 918 1244.5 885 c 128,-1,56
 1212 852 1212 852 1148 852 c 2,57,-1
 1014 852 l 1,58,-1
 978 658 l 1,59,-1
 1209 658 l 1,0,1
812 658 m 1,60,-1
 847 852 l 1,61,-1
 575 852 l 1,62,-1
 539 658 l 1,63,-1
 812 658 l 1,60,-1
EndSplineSet
EndChar

StartChar: dollar
Encoding: 36 36 26
Width: 1255
GlyphClass: 2
Flags: W
LayerCount: 2
Fore
SplineSet
353 39 m 1,0,1
 271 -41 271 -41 200 -41 c 0,2,3
 154 -41 154 -41 138 -7 c 1,4,5
 161 21 161 21 161 77 c 2,6,-1
 161 92 l 2,7,8
 161 98 161 98 160 103 c 1,9,10
 110 148 110 148 110 209.5 c 128,-1,11
 110 271 110 271 168 335 c 1,12,13
 151 369 151 369 151 407.5 c 128,-1,14
 151 446 151 446 162.5 479.5 c 128,-1,15
 174 513 174 513 194 538 c 0,16,17
 236 593 236 593 276.5 593 c 128,-1,18
 317 593 317 593 334 561 c 1,19,20
 298 523 298 523 298 442 c 128,-1,21
 298 361 298 361 321.5 302.5 c 128,-1,22
 345 244 345 244 388 202 c 0,23,24
 478 114 478 114 623 114 c 0,25,26
 721 114 721 114 786 164 c 0,27,28
 858 220 858 220 858 320 c 0,29,30
 858 392 858 392 824 437 c 0,31,32
 771 507 771 507 658 585 c 0,33,34
 571 646 571 646 519 646 c 0,35,36
 466 646 466 646 402 603 c 1,37,38
 419 654 419 654 419 698 c 0,39,40
 419 708 419 708 400 724 c 2,41,-1
 363 757 l 1,42,43
 188 918 188 918 156 1056 c 0,44,45
 145 1104 145 1104 145 1166.5 c 128,-1,46
 145 1229 145 1229 167.5 1290 c 128,-1,47
 190 1351 190 1351 230 1398 c 0,48,49
 311 1493 311 1493 451 1530 c 1,50,-1
 451 1889 l 1,51,52
 465 1897 465 1897 498 1897 c 128,-1,53
 531 1897 531 1897 561 1864.5 c 128,-1,54
 591 1832 591 1832 591 1768 c 2,55,-1
 591 1549 l 1,56,-1
 606 1550 l 1,57,58
 645 1550 645 1550 681 1546 c 1,59,-1
 681 1889 l 1,60,61
 695 1897 695 1897 728 1897 c 128,-1,62
 761 1897 761 1897 791 1864.5 c 128,-1,63
 821 1832 821 1832 821 1768 c 2,64,-1
 821 1513 l 1,65,66
 888 1494 888 1494 926 1494 c 0,67,68
 974 1494 974 1494 993.5 1520 c 128,-1,69
 1013 1546 1013 1546 1013 1561 c 128,-1,70
 1013 1576 1013 1576 1009 1586 c 1,71,72
 1016 1589 1016 1589 1028.5 1589 c 128,-1,73
 1041 1589 1041 1589 1056 1580.5 c 128,-1,74
 1071 1572 1071 1572 1083 1557 c 0,75,76
 1110 1523 1110 1523 1110 1480.5 c 128,-1,77
 1110 1438 1110 1438 1086 1416 c 1,78,79
 1120 1386 1120 1386 1120 1323 c 0,80,81
 1120 1261 1120 1261 1078 1219 c 1,82,83
 1086 1192 1086 1192 1086 1170.5 c 128,-1,84
 1086 1149 1086 1149 1078.5 1129.5 c 128,-1,85
 1071 1110 1071 1110 1058 1096 c 0,86,87
 1029 1065 1029 1065 1003 1065 c 0,88,89
 962 1065 962 1065 934 1079 c 1,90,91
 951 1119 951 1119 951 1165 c 128,-1,92
 951 1211 951 1211 930.5 1258 c 128,-1,93
 910 1305 910 1305 873 1338 c 0,94,95
 796 1408 796 1408 669 1408 c 0,96,97
 589 1408 589 1408 538 1364 c 0,98,99
 490 1322 490 1322 490 1258 c 0,100,101
 490 1209 490 1209 514 1176 c 0,102,103
 556 1119 556 1119 647 1058 c 2,104,-1
 695 1026 l 1,105,106
 735 1001 735 1001 749 1001 c 128,-1,107
 763 1001 763 1001 777 1004 c 128,-1,108
 791 1007 791 1007 808 1012 c 0,109,110
 844 1024 844 1024 878 1046 c 1,111,-1
 865 990 l 2,112,113
 859 962 859 962 859 949 c 0,114,115
 859 928 859 928 880 911 c 0,116,117
 1067 749 1067 749 1130 640 c 0,118,119
 1185 545 1185 545 1185 409 c 0,120,121
 1185 269 1185 269 1090 158 c 0,122,123
 990 41 990 41 821 0 c 1,124,-1
 821 -359 l 1,125,126
 807 -367 807 -367 774 -367 c 128,-1,127
 741 -367 741 -367 711 -334.5 c 128,-1,128
 681 -302 681 -302 681 -238 c 2,129,-1
 681 -19 l 1,130,-1
 649 -20 l 2,131,132
 619 -20 619 -20 591 -18 c 1,133,-1
 591 -359 l 1,134,135
 577 -367 577 -367 544 -367 c 128,-1,136
 511 -367 511 -367 481 -334.5 c 128,-1,137
 451 -302 451 -302 451 -238 c 2,138,-1
 451 3 l 1,139,140
 397 16 397 16 353 39 c 1,0,1
284 1250 m 1,141,142
 246 1234 246 1234 246 1168 c 0,143,144
 246 1028 246 1028 429 866 c 1,145,-1
 478 822 l 2,146,147
 523 782 523 782 523 773 c 0,148,149
 523 744 523 744 518 731 c 1,150,151
 541 746 541 746 561 746 c 0,152,153
 587 746 587 746 661 700 c 0,154,155
 833 594 833 594 903 499 c 0,156,157
 953 430 953 430 955 327 c 0,158,159
 955 290 955 290 950 265 c 1,160,161
 1003 299 1003 299 1003 373 c 0,162,163
 1003 445 1003 445 983.5 484 c 128,-1,164
 964 523 964 523 938 553.5 c 128,-1,165
 912 584 912 584 870.5 620 c 128,-1,166
 829 656 829 656 768 698 c 2,167,-1
 626 795 l 1,168,169
 451 910 451 910 360 1038 c 0,170,171
 280 1151 280 1151 284 1250 c 1,141,142
EndSplineSet
EndChar

StartChar: percent
Encoding: 37 37 27
Width: 2314
GlyphClass: 2
Flags: W
LayerCount: 2
Fore
SplineSet
607 732 m 256,0,1
 459 732 459 732 342 816 c 0,2,3
 228 898 228 898 202 1018 c 1,4,5
 189 1072 189 1072 175 1090 c 0,6,7
 147 1127 147 1127 80 1160 c 1,8,9
 172 1202 172 1202 200 1315 c 0,10,11
 226 1418 226 1418 332 1495 c 0,12,13
 450 1580 450 1580 605 1580 c 0,14,15
 759 1580 759 1580 874 1495 c 0,16,17
 977 1419 977 1419 1004 1315 c 1,18,19
 1032 1202 1032 1202 1124 1160 c 1,20,21
 1057 1127 1057 1127 1037 1102 c 1,22,23
 1015 1072 1015 1072 1001.5 1015 c 128,-1,24
 988 958 988 958 953 906 c 128,-1,25
 918 854 918 854 866 816 c 1,26,27
 755 732 755 732 607 732 c 256,0,1
496 2 m 128,-1,29
 473 29 473 29 473 65 c 0,30,31
 473 129 473 129 538 207 c 2,32,-1
 1665 1550 l 1,33,34
 1707 1550 1707 1550 1730 1523 c 128,-1,35
 1753 1496 1753 1496 1753 1460 c 0,36,37
 1753 1396 1753 1396 1688 1318 c 2,38,-1
 561 -25 l 1,39,28
 519 -25 519 -25 496 2 c 128,-1,29
716 1300 m 2,40,41
 716 1434 716 1434 606 1434 c 0,42,43
 546 1434 546 1434 521.5 1400 c 128,-1,44
 497 1366 497 1366 497 1300 c 2,45,-1
 497 1005 l 2,46,47
 497 900 497 900 563 883 c 0,48,49
 583 878 583 878 606 878 c 0,50,51
 659 878 659 878 679 898 c 0,52,53
 716 933 716 933 716 1005 c 2,54,-1
 716 1300 l 2,40,41
812 897 m 1,55,56
 860 916 860 916 868 1018 c 0,57,58
 873 1089 873 1089 873 1134 c 128,-1,59
 873 1179 873 1179 872.5 1206 c 128,-1,60
 872 1233 872 1233 871 1261 c 0,61,62
 867 1378 867 1378 848 1401.5 c 128,-1,63
 829 1425 829 1425 812 1433 c 1,64,-1
 812 897 l 1,55,56
378 887 m 1,65,66
 387 894 387 894 387 910 c 0,67,68
 387 941 387 941 359.5 1005 c 128,-1,69
 332 1069 332 1069 332 1138 c 0,70,71
 332 1257 332 1257 369 1342 c 0,72,73
 386 1382 386 1382 386 1395 c 0,74,75
 386 1427 386 1427 378 1433 c 1,76,77
 300 1360 300 1360 268 1211 c 0,78,79
 263 1185 263 1185 209 1160 c 1,80,81
 263 1135 263 1135 268 1109 c 0,82,83
 300 960 300 960 378 887 c 1,65,66
1150 408 m 1,84,85
 1242 450 1242 450 1270 563 c 0,86,87
 1296 666 1296 666 1402 743 c 0,88,89
 1520 828 1520 828 1675 828 c 0,90,91
 1829 828 1829 828 1944 743 c 0,92,93
 2047 667 2047 667 2074 563 c 1,94,95
 2102 450 2102 450 2194 408 c 1,96,97
 2127 375 2127 375 2107 350 c 1,98,99
 2085 320 2085 320 2071.5 263 c 128,-1,100
 2058 206 2058 206 2023 154 c 128,-1,101
 1988 102 1988 102 1936 64 c 1,102,103
 1825 -20 1825 -20 1677 -20 c 256,104,105
 1529 -20 1529 -20 1412 64 c 0,106,107
 1298 146 1298 146 1272 266 c 1,108,109
 1259 320 1259 320 1245 338 c 0,110,111
 1217 375 1217 375 1150 408 c 1,84,85
1786 549 m 2,112,113
 1786 683 1786 683 1676 683 c 0,114,115
 1616 683 1616 683 1591.5 649 c 128,-1,116
 1567 615 1567 615 1567 549 c 2,117,-1
 1567 253 l 2,118,119
 1567 148 1567 148 1633 131 c 0,120,121
 1653 126 1653 126 1676 126 c 0,122,123
 1729 126 1729 126 1749 146 c 0,124,125
 1786 181 1786 181 1786 253 c 2,126,-1
 1786 549 l 2,112,113
1882 145 m 1,127,128
 1930 164 1930 164 1938 266 c 0,129,130
 1943 337 1943 337 1943 382 c 128,-1,131
 1943 427 1943 427 1942.5 454 c 128,-1,132
 1942 481 1942 481 1941 509 c 0,133,134
 1937 626 1937 626 1918 649.5 c 128,-1,135
 1899 673 1899 673 1882 681 c 1,136,-1
 1882 145 l 1,127,128
1448 135 m 1,137,138
 1457 142 1457 142 1457 158 c 0,139,140
 1457 189 1457 189 1429.5 253 c 128,-1,141
 1402 317 1402 317 1402 386 c 0,142,143
 1402 505 1402 505 1439 590 c 0,144,145
 1456 630 1456 630 1456 643 c 0,146,147
 1456 675 1456 675 1448 681 c 1,148,149
 1370 608 1370 608 1338 459 c 0,150,151
 1333 433 1333 433 1279 408 c 1,152,153
 1333 383 1333 383 1338 357 c 0,154,155
 1370 208 1370 208 1448 135 c 1,137,138
EndSplineSet
EndChar

StartChar: ampersand
Encoding: 38 38 28
Width: 1707
GlyphClass: 2
Flags: W
LayerCount: 2
Fore
SplineSet
1541 1166 m 1,0,1
 1576 1128 1576 1128 1576 1073.5 c 128,-1,2
 1576 1019 1576 1019 1533 978 c 1,3,4
 1556 944 1556 944 1556 921.5 c 128,-1,5
 1556 899 1556 899 1549 885.5 c 128,-1,6
 1542 872 1542 872 1528 861 c 128,-1,7
 1514 850 1514 850 1494 840 c 1,8,-1
 1446 819 l 1,9,10
 1339 774 1339 774 1242 690 c 0,11,12
 1214 665 1214 665 1195 643 c 1,13,14
 1300 595 1300 595 1338 487 c 0,15,16
 1353 445 1353 445 1353 375.5 c 128,-1,17
 1353 306 1353 306 1306.5 231 c 128,-1,18
 1260 156 1260 156 1186 100 c 0,19,20
 1025 -20 1025 -20 837 -20 c 0,21,22
 513 -20 513 -20 336 196 c 0,23,24
 274 272 274 272 250.5 350 c 128,-1,25
 227 428 227 428 200 456 c 128,-1,26
 173 484 173 484 141 502 c 1,27,28
 216 546 216 546 232.5 603 c 128,-1,29
 249 660 249 660 273 703.5 c 128,-1,30
 297 747 297 747 328 786 c 0,31,32
 390 864 390 864 466 917 c 1,33,34
 323 968 323 968 285 1091 c 0,35,36
 267 1149 267 1149 191 1192 c 1,37,38
 266 1236 266 1236 283.5 1297 c 128,-1,39
 301 1358 301 1358 345 1403 c 128,-1,40
 389 1448 389 1448 454 1480 c 0,41,42
 593 1550 593 1550 769 1550 c 0,43,44
 816 1550 816 1550 866 1540 c 1,45,-1
 934 1525 l 2,46,47
 954 1521 954 1521 976.5 1521 c 128,-1,48
 999 1521 999 1521 1022 1530 c 128,-1,49
 1045 1539 1045 1539 1050 1553 c 1,50,51
 1079 1543 1079 1543 1079 1495.5 c 128,-1,52
 1079 1448 1079 1448 1046 1422 c 1,53,54
 1061 1390 1061 1390 1061 1355 c 128,-1,55
 1061 1320 1061 1320 1053.5 1298.5 c 128,-1,56
 1046 1277 1046 1277 1034 1262 c 0,57,58
 1010 1232 1010 1232 979.5 1232 c 128,-1,59
 949 1232 949 1232 940 1250 c 1,60,61
 957 1286 957 1286 957 1311.5 c 128,-1,62
 957 1337 957 1337 949.5 1355 c 128,-1,63
 942 1373 942 1373 927 1388 c 0,64,65
 892 1425 892 1425 848.5 1425 c 128,-1,66
 805 1425 805 1425 771.5 1414.5 c 128,-1,67
 738 1404 738 1404 712 1383 c 0,68,69
 656 1336 656 1336 656 1257 c 2,70,-1
 656 1078 l 2,71,72
 656 997 656 997 706 972 c 0,73,74
 729 960 729 960 772.5 960 c 128,-1,75
 816 960 816 960 853 1000 c 1,76,77
 879 984 879 984 879 952 c 128,-1,78
 879 920 879 920 874 904.5 c 128,-1,79
 869 889 869 889 857 875 c 0,80,81
 833 847 833 847 790 825.5 c 128,-1,82
 747 804 747 804 719 784 c 128,-1,83
 691 764 691 764 670 734 c 0,84,85
 626 669 626 669 626 552 c 2,86,-1
 626 394 l 2,87,88
 626 251 626 251 708 178 c 0,89,90
 778 116 778 116 888 116 c 0,91,92
 975 116 975 116 1068 178 c 1,93,94
 1170 248 1170 248 1170 332 c 0,95,96
 1170 406 1170 406 1130 440 c 0,97,98
 1118 449 1118 449 1103 449 c 128,-1,99
 1088 449 1088 449 1077.5 441 c 128,-1,100
 1067 433 1067 433 1062 422 c 0,101,102
 1054 406 1054 406 1054 384.5 c 128,-1,103
 1054 363 1054 363 1066 351 c 1,104,105
 1043 301 1043 301 982 327.5 c 128,-1,106
 921 354 921 354 921 424 c 0,107,108
 921 565 921 565 1125 832 c 1,109,110
 1341 1111 1341 1111 1341 1244 c 0,111,112
 1341 1319 1341 1319 1288 1362 c 1,113,114
 1303 1405 1303 1405 1342.5 1405 c 128,-1,115
 1382 1405 1382 1405 1417 1391 c 128,-1,116
 1452 1377 1452 1377 1482 1352 c 0,117,118
 1552 1295 1552 1295 1552 1223 c 0,119,120
 1552 1197 1552 1197 1541 1166 c 1,0,1
477 1012 m 1,121,122
 471 1026 471 1026 464.5 1039 c 128,-1,123
 458 1052 458 1052 452 1073 c 0,124,125
 441 1117 441 1117 441 1183 c 128,-1,126
 441 1249 441 1249 444 1276.5 c 128,-1,127
 447 1304 447 1304 452.5 1325 c 128,-1,128
 458 1346 458 1346 464 1362 c 2,129,-1
 477 1392 l 1,130,131
 448 1387 448 1387 420 1357 c 128,-1,132
 392 1327 392 1327 385.5 1291 c 128,-1,133
 379 1255 379 1255 373.5 1241.5 c 128,-1,134
 368 1228 368 1228 358 1220 c 0,135,136
 344 1207 344 1207 300 1192 c 1,137,138
 331 1182 331 1182 353 1165 c 128,-1,139
 375 1148 375 1148 384 1107.5 c 128,-1,140
 393 1067 393 1067 420 1042 c 128,-1,141
 447 1017 447 1017 477 1012 c 1,121,122
1135 689 m 1,142,143
 1273 812 1273 812 1309 847 c 0,144,145
 1453 987 1453 987 1453 1080 c 1,146,147
 1454 1117 1454 1117 1427 1148 c 1,148,149
 1401 1035 1401 1035 1284 881 c 1,150,-1
 1135 689 l 1,142,143
451 202 m 1,151,152
 418 279 418 279 404.5 371.5 c 128,-1,153
 391 464 391 464 391 509 c 128,-1,154
 391 554 391 554 396 599 c 128,-1,155
 401 644 401 644 408 682 c 0,156,157
 421 755 421 755 437 792 c 1,158,159
 375 781 375 781 334 595 c 0,160,161
 325 556 325 556 303 539 c 128,-1,162
 281 522 281 522 250 512 c 1,163,164
 305 494 305 494 324 428 c 0,165,166
 329 409 329 409 335.5 374 c 128,-1,167
 342 339 342 339 357 304.5 c 128,-1,168
 372 270 372 270 390 248 c 0,169,170
 422 207 422 207 451 202 c 1,151,152
EndSplineSet
EndChar

StartChar: quotesingle
Encoding: 39 39 29
Width: 582
GlyphClass: 2
Flags: W
LayerCount: 2
Fore
SplineSet
289 814 m 256,0,1
 268 814 268 814 259 832 c 0,2,3
 245 862 245 862 236 920 c 128,-1,4
 227 978 227 978 217.5 1022.5 c 128,-1,5
 208 1067 208 1067 196 1111.5 c 128,-1,6
 184 1156 184 1156 171 1198 c 2,7,-1
 146 1274 l 1,8,9
 117 1358 117 1358 40 1383 c 1,10,11
 105 1416 105 1416 131 1460 c 0,12,13
 186 1550 186 1550 291 1550 c 0,14,15
 340 1550 340 1550 382 1527 c 128,-1,16
 424 1504 424 1504 444.5 1470 c 128,-1,17
 465 1436 465 1436 486 1418.5 c 128,-1,18
 507 1401 507 1401 542 1383 c 1,19,20
 465 1358 465 1358 436 1274 c 1,21,-1
 411 1198 l 1,22,23
 367 1056 367 1056 355 978.5 c 128,-1,24
 343 901 343 901 337 877 c 128,-1,25
 331 853 331 853 324 839 c 0,26,27
 310 814 310 814 289 814 c 256,0,1
242 1151 m 1,28,-1
 242 1362 l 2,29,30
 242 1452 242 1452 255 1473 c 1,31,32
 224 1465 224 1465 208 1447 c 128,-1,33
 192 1429 192 1429 183 1418 c 0,34,35
 168 1399 168 1399 135 1383 c 1,36,37
 173 1358 173 1358 189 1324 c 0,38,39
 214 1271 214 1271 242 1151 c 1,28,-1
EndSplineSet
EndChar

StartChar: parenleft
Encoding: 40 40 30
Width: 791
GlyphClass: 2
Flags: W
LayerCount: 2
Fore
SplineSet
552 -231 m 1,0,1
 520 -258 520 -258 495 -258 c 0,2,3
 440 -260 440 -260 419 -225 c 1,4,5
 485 -183 485 -183 492 -121 c 1,6,7
 263 121 263 121 191 516 c 1,8,9
 176 590 176 590 116 644 c 0,10,11
 98 659 98 659 80 667 c 1,12,13
 141 698 141 698 176 772 c 0,14,15
 187 795 187 795 199 860 c 128,-1,16
 211 925 211 925 241 1015 c 128,-1,17
 271 1105 271 1105 310 1182 c 0,18,19
 380 1324 380 1324 492 1444 c 1,20,21
 484 1493 484 1493 440 1540 c 0,22,23
 429 1553 429 1553 419 1559 c 1,24,25
 441 1595 441 1595 480.5 1593.5 c 128,-1,26
 520 1592 520 1592 552 1565 c 1,27,28
 593 1600 593 1600 667 1600 c 1,29,30
 691 1559 691 1559 691 1528.5 c 128,-1,31
 691 1498 691 1498 683 1484 c 1,32,33
 708 1476 708 1476 727 1458 c 128,-1,34
 746 1440 746 1440 746 1422 c 0,35,36
 746 1386 746 1386 712 1373 c 1,37,38
 687 1396 687 1396 636 1396 c 2,39,-1
 619 1396 l 2,40,41
 610 1396 610 1396 602 1394 c 1,42,43
 535 1314 535 1314 484 1152 c 0,44,45
 430 978 430 978 430 808 c 0,46,47
 430 748 430 748 484 694 c 0,48,49
 501 677 501 677 522 667 c 1,50,51
 457 635 457 635 436 564 c 0,52,53
 430 544 430 544 430 489.5 c 128,-1,54
 430 435 430 435 444.5 344 c 128,-1,55
 459 253 459 253 483 174 c 0,56,57
 533 7 533 7 599 -67 c 1,58,59
 618 -70 618 -70 654.5 -70 c 128,-1,60
 691 -70 691 -70 716 -47 c 1,61,62
 746 -59 746 -59 746 -87 c 0,63,64
 746 -142 746 -142 688 -162 c 1,65,66
 691 -171 691 -171 691 -198 c 128,-1,67
 691 -225 691 -225 667 -266 c 1,68,69
 593 -266 593 -266 552 -231 c 1,0,1
629 1421 m 1,70,-1
 639 1428 l 1,71,-1
 629 1421 l 1,70,-1
629 -94 m 2,72,-1
 622 -89 l 2,73,74
 625 -92 625 -92 629 -94 c 2,72,-1
EndSplineSet
EndChar

StartChar: parenright
Encoding: 41 41 31
Width: 791
GlyphClass: 2
Flags: W
LayerCount: 2
Fore
SplineSet
239 -231 m 1,0,1
 271 -258 271 -258 296 -258 c 0,2,3
 351 -260 351 -260 372 -225 c 1,4,5
 306 -183 306 -183 299 -121 c 1,6,7
 528 121 528 121 600 516 c 1,8,9
 615 590 615 590 675 644 c 0,10,11
 693 659 693 659 711 667 c 1,12,13
 650 698 650 698 615 772 c 0,14,15
 604 795 604 795 592 860 c 128,-1,16
 580 925 580 925 550 1015 c 128,-1,17
 520 1105 520 1105 481 1182 c 0,18,19
 411 1324 411 1324 299 1444 c 1,20,21
 307 1493 307 1493 351 1540 c 0,22,23
 362 1553 362 1553 372 1559 c 1,24,25
 350 1595 350 1595 310.5 1593.5 c 128,-1,26
 271 1592 271 1592 239 1565 c 1,27,28
 198 1600 198 1600 124 1600 c 1,29,30
 100 1559 100 1559 100 1528.5 c 128,-1,31
 100 1498 100 1498 108 1484 c 1,32,33
 83 1476 83 1476 64 1458 c 128,-1,34
 45 1440 45 1440 45 1422 c 0,35,36
 45 1386 45 1386 79 1373 c 1,37,38
 104 1396 104 1396 155 1396 c 2,39,-1
 172 1396 l 2,40,41
 181 1396 181 1396 189 1394 c 1,42,43
 256 1314 256 1314 307 1152 c 0,44,45
 361 978 361 978 361 808 c 0,46,47
 361 748 361 748 307 694 c 0,48,49
 290 677 290 677 269 667 c 1,50,51
 334 635 334 635 355 564 c 0,52,53
 361 544 361 544 361 489.5 c 128,-1,54
 361 435 361 435 346.5 344 c 128,-1,55
 332 253 332 253 308 174 c 0,56,57
 258 7 258 7 192 -67 c 1,58,59
 173 -70 173 -70 136.5 -70 c 128,-1,60
 100 -70 100 -70 75 -47 c 1,61,62
 45 -59 45 -59 45 -87 c 0,63,64
 45 -142 45 -142 103 -162 c 1,65,66
 100 -171 100 -171 100 -198 c 128,-1,67
 100 -225 100 -225 124 -266 c 1,68,69
 198 -266 198 -266 239 -231 c 1,0,1
162 1421 m 1,70,-1
 152 1428 l 1,71,-1
 162 1421 l 1,70,-1
162 -94 m 2,72,-1
 169 -89 l 2,73,74
 166 -92 166 -92 162 -94 c 2,72,-1
EndSplineSet
EndChar

StartChar: asterisk
Encoding: 42 42 32
Width: 985
GlyphClass: 2
Flags: W
LayerCount: 2
Fore
SplineSet
362 846 m 0,0,1
 327 812 327 812 289 812 c 128,-1,2
 251 812 251 812 230 818 c 1,3,4
 210 853 210 853 210 904.5 c 128,-1,5
 210 956 210 956 270 1023.5 c 128,-1,6
 330 1091 330 1091 445 1151 c 1,7,-1
 414 1147 l 2,8,9
 347 1139 347 1139 276.5 1150 c 128,-1,10
 206 1161 206 1161 167 1180 c 0,11,12
 86 1221 86 1221 80 1306 c 1,13,14
 121 1353 121 1353 182 1353 c 0,15,16
 314 1353 314 1353 462 1205 c 1,17,18
 426 1278 426 1278 414.5 1348 c 128,-1,19
 403 1418 403 1418 403 1458 c 0,20,21
 403 1562 403 1562 497 1600 c 1,22,23
 547 1579 547 1579 566 1538.5 c 128,-1,24
 585 1498 585 1498 585 1458.5 c 128,-1,25
 585 1419 585 1419 580 1392 c 128,-1,26
 575 1365 575 1365 566 1332 c 0,27,28
 547 1258 547 1258 520 1206 c 1,29,30
 630 1308 630 1308 745 1339 c 0,31,32
 811 1357 811 1357 846.5 1339 c 128,-1,33
 882 1321 882 1321 905 1294 c 1,34,35
 897 1216 897 1216 829.5 1180.5 c 128,-1,36
 762 1145 762 1145 628 1145 c 0,37,38
 565 1145 565 1145 535 1151 c 1,39,40
 639 1095 639 1095 704 1020 c 0,41,42
 765 950 765 950 765 890 c 0,43,44
 765 848 765 848 741 811 c 1,45,46
 719 806 719 806 692.5 806 c 128,-1,47
 666 806 666 806 633.5 828.5 c 128,-1,48
 601 851 601 851 573 892 c 0,49,50
 511 984 511 984 490 1119 c 1,51,52
 456 934 456 934 362 846 c 0,0,1
EndSplineSet
EndChar

StartChar: plus
Encoding: 43 43 33
Width: 1078
GlyphClass: 2
Flags: W
LayerCount: 2
Fore
SplineSet
462 525 m 1,0,-1
 120 525 l 1,1,-1
 120 671 l 1,2,-1
 462 671 l 1,3,-1
 462 1026 l 1,4,-1
 616 1026 l 1,5,-1
 616 671 l 1,6,-1
 958 671 l 1,7,-1
 958 525 l 1,8,-1
 616 525 l 1,9,-1
 616 170 l 1,10,-1
 462 170 l 1,11,-1
 462 525 l 1,0,-1
EndSplineSet
EndChar

StartChar: comma
Encoding: 44 44 34
Width: 701
GlyphClass: 2
Flags: W
LayerCount: 2
Fore
SplineSet
88 164 m 1,0,1
 136 195 136 195 150 218 c 1,2,-1
 172 259 l 2,3,4
 209 327 209 327 296 348 c 0,5,6
 323 355 323 355 363.5 355 c 128,-1,7
 404 355 404 355 442.5 330.5 c 128,-1,8
 481 306 481 306 502 267 c 0,9,10
 545 187 545 187 600 164 c 1,11,12
 538 139 538 139 515 56 c 0,13,14
 509 34 509 34 499 -10.5 c 128,-1,15
 489 -55 489 -55 459.5 -122.5 c 128,-1,16
 430 -190 430 -190 392 -242 c 0,17,18
 310 -357 310 -357 225 -357 c 0,19,20
 191 -357 191 -357 170 -340 c 128,-1,21
 149 -323 149 -323 149 -295 c 1,22,23
 203 -289 203 -289 250 -218.5 c 128,-1,24
 297 -148 297 -148 297 -71 c 0,25,26
 297 -45 297 -45 289 -16 c 1,27,28
 209 11 209 11 172 79 c 1,29,-1
 154 110 l 2,30,31
 134 144 134 144 88 164 c 1,0,1
290.5 127.5 m 128,-1,33
 287 142 287 142 287 181.5 c 128,-1,34
 287 221 287 221 325 278 c 1,35,36
 303 278 303 278 286 269.5 c 128,-1,37
 269 261 269 261 256 244 c 128,-1,38
 243 227 243 227 237.5 217.5 c 128,-1,39
 232 208 232 208 224 198 c 1,40,41
 205 170 205 170 193 164 c 1,42,43
 209 155 209 155 222.5 135.5 c 128,-1,44
 236 116 236 116 254 94 c 0,45,46
 281 62 281 62 325 62 c 1,47,48
 319 73 319 73 312.5 82.5 c 128,-1,49
 306 92 306 92 300 102.5 c 128,-1,32
 294 113 294 113 290.5 127.5 c 128,-1,33
EndSplineSet
EndChar

StartChar: hyphen
Encoding: 45 45 35
Width: 860
GlyphClass: 2
Flags: W
LayerCount: 2
Fore
SplineSet
138 525 m 1,0,1
 130 539 130 539 130 572 c 128,-1,2
 130 605 130 605 162.5 638 c 128,-1,3
 195 671 195 671 259 671 c 2,4,-1
 722 671 l 1,5,6
 730 657 730 657 730 624 c 128,-1,7
 730 591 730 591 697.5 558 c 128,-1,8
 665 525 665 525 601 525 c 2,9,-1
 138 525 l 1,0,1
EndSplineSet
EndChar

StartChar: period
Encoding: 46 46 36
Width: 678
GlyphClass: 2
Flags: W
LayerCount: 2
Fore
SplineSet
78 164 m 1,0,1
 134 199 134 199 148.5 220.5 c 128,-1,2
 163 242 163 242 172 259 c 0,3,4
 196 304 196 304 242.5 329.5 c 128,-1,5
 289 355 289 355 343 355 c 0,6,7
 455 355 455 355 505 261 c 0,8,9
 545 187 545 187 600 164 c 1,10,11
 585 155 585 155 572 148 c 128,-1,12
 559 141 559 141 548 132 c 0,13,14
 525 113 525 113 502 73.5 c 128,-1,15
 479 34 479 34 436.5 4.5 c 128,-1,16
 394 -25 394 -25 343 -25 c 256,17,18
 292 -25 292 -25 244.5 4.5 c 128,-1,19
 197 34 197 34 172 79 c 0,20,21
 143 129 143 129 119.5 142.5 c 128,-1,22
 96 156 96 156 78 164 c 1,0,1
290.5 127.5 m 128,-1,24
 287 142 287 142 287 181.5 c 128,-1,25
 287 221 287 221 325 278 c 1,26,27
 303 278 303 278 286 269.5 c 128,-1,28
 269 261 269 261 256 244 c 128,-1,29
 243 227 243 227 237.5 217.5 c 128,-1,30
 232 208 232 208 224 198 c 1,31,32
 205 170 205 170 193 164 c 1,33,34
 209 155 209 155 222.5 135.5 c 128,-1,35
 236 116 236 116 254 94 c 0,36,37
 281 62 281 62 325 62 c 1,38,39
 319 73 319 73 312.5 82.5 c 128,-1,40
 306 92 306 92 300 102.5 c 128,-1,23
 294 113 294 113 290.5 127.5 c 128,-1,24
EndSplineSet
EndChar

StartChar: slash
Encoding: 47 47 37
Width: 817
GlyphClass: 2
Flags: W
LayerCount: 2
Fore
SplineSet
152 -267 m 0,0,1
 65 -267 65 -267 65 -167 c 0,2,3
 65 -127 65 -127 88 -60 c 1,4,-1
 620 1587 l 1,5,6
 637 1600 637 1600 661 1600 c 0,7,8
 748 1600 748 1600 748 1500 c 0,9,10
 748 1460 748 1460 725 1393 c 1,11,-1
 193 -254 l 1,12,13
 176 -267 176 -267 152 -267 c 0,0,1
EndSplineSet
EndChar

StartChar: zero
Encoding: 48 48 38
Width: 1463
GlyphClass: 2
Flags: W
LayerCount: 2
Fore
SplineSet
734 -20 m 0,0,1
 216 -20 216 -20 142 624 c 0,2,3
 127 755 127 755 40 797 c 1,4,5
 127 838 127 838 142.5 965.5 c 128,-1,6
 158 1093 158 1093 205 1202.5 c 128,-1,7
 252 1312 252 1312 327 1390 c 0,8,9
 482 1550 482 1550 736 1550 c 128,-1,10
 990 1550 990 1550 1139 1401 c 128,-1,11
 1288 1252 1288 1252 1321 958 c 0,12,13
 1334 838 1334 838 1423 797 c 1,14,15
 1336 754 1336 754 1319.5 611.5 c 128,-1,16
 1303 469 1303 469 1256 349 c 128,-1,17
 1209 229 1209 229 1134 147 c 0,18,19
 983 -20 983 -20 734 -20 c 0,0,1
734 114 m 0,20,21
 898 114 898 114 898 327 c 2,22,-1
 898 1197 l 2,23,24
 898 1350 898 1350 802 1401 c 0,25,26
 771 1417 771 1417 734 1417 c 0,27,28
 656 1417 656 1417 608.5 1360 c 128,-1,29
 561 1303 561 1303 561 1197 c 2,30,-1
 561 327 l 2,31,32
 561 224 561 224 605.5 169 c 128,-1,33
 650 114 650 114 734 114 c 0,20,21
1061 735 m 0,34,35
 1061 785 1061 785 1129 808 c 1,36,37
 1061 829 1061 829 1061 904 c 2,38,-1
 1061 985 l 2,39,40
 1061 1221 1061 1221 994 1250 c 1,41,-1
 994 265 l 1,42,43
 1039 283 1039 283 1050 390 c 0,44,45
 1061 491 1061 491 1061 735 c 0,34,35
369 265 m 1,46,47
 384 271 384 271 384 286 c 0,48,49
 384 308 384 308 363 355 c 0,50,51
 310 476 310 476 310 797 c 0,52,53
 310 1031 310 1031 366 1195 c 1,54,55
 373 1220 373 1220 373 1233 c 128,-1,56
 373 1246 373 1246 360 1250 c 1,57,58
 313 1191 313 1191 293 1133 c 0,59,60
 256 1027 256 1027 234 846 c 0,61,62
 231 820 231 820 175 797 c 1,63,64
 231 772 231 772 234 746 c 0,65,66
 270 436 270 436 326 332 c 0,67,68
 345 295 345 295 369 265 c 1,46,47
EndSplineSet
EndChar

StartChar: one
Encoding: 49 49 39
Width: 923
GlyphClass: 2
Flags: W
LayerCount: 2
Fore
SplineSet
615 12 m 1,0,1
 564 -20 564 -20 499 -20 c 128,-1,2
 434 -20 434 -20 383 12 c 1,3,4
 332 -20 332 -20 288.5 -20 c 128,-1,5
 245 -20 245 -20 217 -12.5 c 128,-1,6
 189 -5 189 -5 168 8 c 0,7,8
 125 34 125 34 125 73 c 0,9,10
 125 93 125 93 136 108 c 1,11,12
 158 91 158 91 192 91 c 0,13,14
 281 91 281 91 315 167 c 1,15,-1
 315 656 l 2,16,17
 315 702 315 702 296 724 c 0,18,19
 266 761 266 761 193 797 c 1,20,21
 261 828 261 828 281 852 c 0,22,23
 315 891 315 891 315 940 c 2,24,-1
 316 1156 l 2,25,26
 316 1244 316 1244 261.5 1244 c 128,-1,27
 207 1244 207 1244 167 1198 c 1,28,29
 153 1210 153 1210 153 1232 c 128,-1,30
 153 1254 153 1254 160.5 1281 c 128,-1,31
 168 1308 168 1308 186 1336 c 0,32,33
 229 1403 229 1403 310 1433 c 0,34,35
 350 1448 350 1448 383 1448 c 128,-1,36
 416 1448 416 1448 438 1444 c 1,37,38
 517 1544 517 1544 575 1551 c 128,-1,39
 633 1558 633 1558 667.5 1534.5 c 128,-1,40
 702 1511 702 1511 702 1456 c 2,41,-1
 702 1432 l 2,42,43
 702 1418 702 1418 701 1402 c 128,-1,44
 700 1386 700 1386 699 1370 c 128,-1,45
 698 1354 698 1354 696 1340 c 128,-1,46
 694 1326 694 1326 691.5 1300 c 128,-1,47
 689 1274 689 1274 687 1243 c 0,48,49
 683 1181 683 1181 683 1110 c 2,50,-1
 683 940 l 2,51,52
 683 891 683 891 704 867 c 0,53,54
 737 828 737 828 805 797 c 1,55,56
 732 761 732 761 712 738 c 1,57,58
 683 702 683 702 683 656 c 2,59,-1
 683 167 l 1,60,61
 717 91 717 91 806 91 c 0,62,63
 840 91 840 91 862 108 c 1,64,65
 873 93 873 93 873 73.5 c 128,-1,66
 873 54 873 54 861.5 37 c 128,-1,67
 850 20 850 20 830 8 c 0,68,69
 784 -20 784 -20 725 -20 c 128,-1,70
 666 -20 666 -20 615 12 c 1,0,1
411 265 m 1,71,72
 461 284 461 284 466 396 c 0,73,74
 472 508 472 508 472 705.5 c 128,-1,75
 472 903 472 903 471.5 962.5 c 128,-1,76
 471 1022 471 1022 470 1055 c 128,-1,77
 469 1088 469 1088 466 1104 c 2,78,-1
 461 1140 l 1,79,80
 452 1193 452 1193 411 1212 c 1,81,82
 411 925 411 925 406.5 895.5 c 128,-1,83
 402 866 402 866 397 850 c 0,84,85
 385 813 385 813 331 796 c 1,86,87
 391 775 391 775 399 746 c 0,88,89
 411 698 411 698 411 395 c 2,90,-1
 411 265 l 1,71,72
EndSplineSet
EndChar

StartChar: two
Encoding: 50 50 40
Width: 1299
GlyphClass: 2
Flags: W
LayerCount: 2
Fore
SplineSet
343 12 m 1,0,1
 285 -38 285 -38 236.5 -38 c 128,-1,2
 188 -38 188 -38 163.5 -14.5 c 128,-1,3
 139 9 139 9 139 47 c 1,4,5
 162 58 162 58 174 71 c 1,6,7
 157 122 157 122 157 193 c 128,-1,8
 157 264 157 264 181.5 335.5 c 128,-1,9
 206 407 206 407 254 470 c 0,10,11
 340 581 340 581 543 702 c 1,12,13
 664 783 664 783 714 866 c 1,14,15
 774 968 774 968 774 1124 c 0,16,17
 774 1416 774 1416 575 1416 c 0,18,19
 474 1416 474 1416 404 1346 c 0,20,21
 329 1271 329 1271 329 1141 c 128,-1,22
 329 1011 329 1011 380 947 c 1,23,24
 357 928 357 928 332.5 928 c 128,-1,25
 308 928 308 928 282 937.5 c 128,-1,26
 256 947 256 947 234 966 c 0,27,28
 184 1012 184 1012 184 1074.5 c 128,-1,29
 184 1137 184 1137 200 1173 c 1,30,31
 147 1208 147 1208 147 1264 c 128,-1,32
 147 1320 147 1320 185 1360 c 1,33,34
 153 1401 153 1401 153 1435.5 c 128,-1,35
 153 1470 153 1470 162.5 1494.5 c 128,-1,36
 172 1519 172 1519 190 1538 c 0,37,38
 227 1577 227 1577 280 1577 c 0,39,40
 306 1577 306 1577 328 1566 c 1,41,42
 314 1547 314 1547 314 1526 c 0,43,44
 314 1499 314 1499 344 1499 c 0,45,46
 364 1499 364 1499 418 1517 c 0,47,48
 517 1550 517 1550 637 1550 c 128,-1,49
 757 1550 757 1550 830.5 1535 c 128,-1,50
 904 1520 904 1520 964 1487 c 0,51,52
 1085 1421 1085 1421 1154 1270 c 1,53,54
 1186 1197 1186 1197 1249 1160 c 1,55,56
 1189 1126 1189 1126 1149 1026 c 0,57,58
 1076 848 1076 848 908 732 c 0,59,60
 850 693 850 693 757 647.5 c 128,-1,61
 664 602 664 602 587 556 c 128,-1,62
 510 510 510 510 462 470 c 0,63,64
 373 396 373 396 354 317 c 1,65,66
 493 293 493 293 649 293 c 128,-1,67
 805 293 805 293 867 302.5 c 128,-1,68
 929 312 929 312 966 332 c 1,69,70
 1035 367 1035 367 1035 446 c 0,71,72
 1035 475 1035 475 1023 496 c 1,73,74
 1029 510 1029 510 1057 510 c 128,-1,75
 1085 510 1085 510 1106.5 499 c 128,-1,76
 1128 488 1128 488 1144 470 c 0,77,78
 1178 430 1178 430 1178 369 c 128,-1,79
 1178 308 1178 308 1129 257 c 1,80,81
 1167 232 1167 232 1167 187 c 128,-1,82
 1167 142 1167 142 1141 116 c 1,83,84
 1155 93 1155 93 1155 69.5 c 128,-1,85
 1155 46 1155 46 1146.5 29.5 c 128,-1,86
 1138 13 1138 13 1124 2 c 0,87,88
 1094 -20 1094 -20 1048 -20 c 128,-1,89
 1002 -20 1002 -20 962 0 c 1,90,91
 817 -20 817 -20 662.5 -20 c 128,-1,92
 508 -20 508 -20 343 12 c 1,0,1
791 1402 m 1,93,94
 865 1319 865 1319 865 1142 c 0,95,96
 865 969 865 969 837 902 c 1,97,98
 877 910 877 910 906 986 c 0,99,100
 916 1014 916 1014 921.5 1044 c 128,-1,101
 927 1074 927 1074 930.5 1091 c 128,-1,102
 934 1108 934 1108 942 1121 c 0,103,104
 957 1147 957 1147 995 1160 c 1,105,106
 955 1173 955 1173 946 1187.5 c 128,-1,107
 937 1202 937 1202 933 1216 c 2,108,-1
 923 1251 l 2,109,110
 898 1340 898 1340 836 1383 c 0,111,112
 815 1398 815 1398 791 1402 c 1,93,94
1001 219 m 1,113,114
 895 172 895 172 663 172 c 128,-1,115
 431 172 431 172 343 211 c 1,116,117
 339 205 339 205 342 193 c 128,-1,118
 345 181 345 181 353 171 c 128,-1,119
 361 161 361 161 396.5 152 c 128,-1,120
 432 143 432 143 478 138 c 0,121,122
 548 129 548 129 630 129 c 128,-1,123
 712 129 712 129 764.5 131 c 128,-1,124
 817 133 817 133 863 138 c 0,125,126
 970 151 970 151 991 179 c 0,127,128
 1004 196 1004 196 1001 219 c 1,113,114
EndSplineSet
EndChar

StartChar: three
Encoding: 51 51 41
Width: 1245
GlyphClass: 2
Flags: W
LayerCount: 2
Fore
SplineSet
272 -36 m 1,0,1
 248 -47 248 -47 221.5 -47 c 128,-1,2
 195 -47 195 -47 171.5 -35.5 c 128,-1,3
 148 -24 148 -24 132 -5 c 0,4,5
 97 35 97 35 97 82.5 c 128,-1,6
 97 130 97 130 127 171 c 1,7,8
 90 208 90 208 90 266 c 128,-1,9
 90 324 90 324 146 359 c 1,10,11
 127 395 127 395 127 439 c 128,-1,12
 127 483 127 483 137.5 510 c 128,-1,13
 148 537 148 537 168 558 c 0,14,15
 210 602 210 602 275 602 c 0,16,17
 303 602 303 602 324 583 c 1,18,19
 273 518 273 518 273 391 c 0,20,21
 273 192 273 192 416 134 c 0,22,23
 461 116 461 116 509.5 116 c 128,-1,24
 558 116 558 116 601.5 130 c 128,-1,25
 645 144 645 144 680 176 c 0,26,27
 760 249 760 249 760 394 c 2,28,-1
 760 502 l 2,29,30
 760 609 760 609 718 674 c 0,31,32
 678 737 678 737 616 733 c 0,33,34
 460 723 460 723 460 817 c 0,35,36
 460 855 460 855 487 880 c 1,37,38
 508 866 508 866 533 866 c 128,-1,39
 558 866 558 866 569 871 c 2,40,-1
 603 886 l 1,41,42
 660 913 660 913 692 973 c 0,43,44
 710 1007 710 1007 710 1058 c 2,45,-1
 710 1146 l 2,46,47
 710 1291 710 1291 648 1360 c 0,48,49
 599 1416 599 1416 510 1416 c 0,50,51
 370 1416 370 1416 322 1276 c 0,52,53
 306 1230 306 1230 306 1182 c 128,-1,54
 306 1134 306 1134 312.5 1108.5 c 128,-1,55
 319 1083 319 1083 328 1066 c 0,56,57
 341 1039 341 1039 357 1027 c 1,58,59
 337 1008 337 1008 305.5 1008 c 128,-1,60
 274 1008 274 1008 247 1018 c 128,-1,61
 220 1028 220 1028 201 1044 c 0,62,63
 161 1078 161 1078 161 1116.5 c 128,-1,64
 161 1155 161 1155 172 1177 c 1,65,66
 124 1210 124 1210 124 1265 c 128,-1,67
 124 1320 124 1320 162 1360 c 1,68,69
 130 1401 130 1401 130 1435.5 c 128,-1,70
 130 1470 130 1470 139.5 1494.5 c 128,-1,71
 149 1519 149 1519 166 1538 c 1,72,73
 204 1577 204 1577 257 1577 c 0,74,75
 283 1577 283 1577 305 1566 c 1,76,77
 291 1544 291 1544 291 1526 c 0,78,79
 291 1499 291 1499 321 1499 c 0,80,81
 341 1499 341 1499 390 1514 c 0,82,83
 504 1550 504 1550 600 1550 c 128,-1,84
 696 1550 696 1550 771.5 1530.5 c 128,-1,85
 847 1511 847 1511 910 1475 c 0,86,87
 1047 1397 1047 1397 1080 1273 c 1,88,89
 1100 1204 1100 1204 1175 1160 c 1,90,91
 1098 1117 1098 1117 1075 1039 c 0,92,93
 1034 903 1034 903 885 837 c 1,94,95
 985 799 985 799 1055.5 734.5 c 128,-1,96
 1126 670 1126 670 1150 586 c 0,97,98
 1166 529 1166 529 1245 483 c 1,99,100
 1168 440 1168 440 1141.5 352 c 128,-1,101
 1115 264 1115 264 1055.5 192.5 c 128,-1,102
 996 121 996 121 918 74 c 0,103,104
 763 -20 763 -20 561 -20 c 0,105,106
 435 -20 435 -20 322 26 c 0,107,108
 303 34 303 34 287 34 c 0,109,110
 258 34 258 34 258 9 c 128,-1,111
 258 -16 258 -16 272 -36 c 1,0,1
783 901 m 1,112,113
 842 911 842 911 862 1084 c 0,114,115
 868 1137 868 1137 934 1160 c 1,116,117
 903 1170 903 1170 881.5 1199.5 c 128,-1,118
 860 1229 860 1229 855 1257.5 c 128,-1,119
 850 1286 850 1286 840.5 1309 c 128,-1,120
 831 1332 831 1332 819 1350 c 0,121,122
 793 1388 793 1388 767 1392 c 1,123,-1
 777 1370 l 1,124,125
 801 1320 801 1320 801 1213 c 128,-1,126
 801 1106 801 1106 800.5 1068 c 128,-1,127
 800 1030 800 1030 798 1001 c 0,128,129
 796 953 796 953 783 901 c 1,112,113
823 201 m 1,130,131
 855 207 855 207 870 233 c 0,132,133
 894 274 894 274 907 348 c 1,134,135
 929 464 929 464 984 483 c 1,136,137
 922 502 922 502 912 567 c 1,138,139
 901 631 901 631 873 664 c 0,140,141
 829 717 829 717 798 722 c 1,142,143
 802 713 802 713 811 699 c 128,-1,144
 820 685 820 685 829 660 c 0,145,146
 851 597 851 597 851 513 c 128,-1,147
 851 429 851 429 848.5 383 c 128,-1,148
 846 337 846 337 842 300 c 0,149,150
 834 228 834 228 823 201 c 1,130,131
EndSplineSet
EndChar

StartChar: four
Encoding: 52 52 42
Width: 1424
GlyphClass: 2
Flags: W
LayerCount: 2
Fore
SplineSet
526 86 m 0,0,1
 615 86 615 86 649 162 c 1,2,-1
 649 440 l 1,3,-1
 115 440 l 2,4,5
 55 440 55 440 28.5 460 c 128,-1,6
 2 480 2 480 2 506 c 0,7,8
 2 547 2 547 54 615 c 1,9,-1
 574 1422 l 1,10,11
 624 1488 624 1488 663 1519 c 128,-1,12
 702 1550 702 1550 742.5 1550 c 128,-1,13
 783 1550 783 1550 821 1521 c 1,14,15
 860 1550 860 1550 904 1550 c 128,-1,16
 948 1550 948 1550 984 1530 c 1,17,18
 1024 1550 1024 1550 1061.5 1550 c 128,-1,19
 1099 1550 1099 1550 1120.5 1543 c 128,-1,20
 1142 1536 1142 1536 1158 1524 c 0,21,22
 1195 1496 1195 1496 1195 1457 c 0,23,24
 1195 1437 1195 1437 1184 1422 c 1,25,26
 1162 1439 1162 1439 1128 1439 c 0,27,28
 1053 1439 1053 1439 1017 1375 c 1,29,-1
 1017 574 l 1,30,31
 1110 574 1110 574 1144.5 589.5 c 128,-1,32
 1179 605 1179 605 1194.5 626.5 c 128,-1,33
 1210 648 1210 648 1210 702 c 128,-1,34
 1210 756 1210 756 1189 791 c 1,35,36
 1205 805 1205 805 1239 805 c 0,37,38
 1306 805 1306 805 1336 736 c 0,39,40
 1347 711 1347 711 1347 683.5 c 128,-1,41
 1347 656 1347 656 1335 622 c 1,42,43
 1376 575 1376 575 1376 510.5 c 128,-1,44
 1376 446 1376 446 1335 399 c 1,45,46
 1347 365 1347 365 1347 337.5 c 128,-1,47
 1347 310 1347 310 1336 285 c 128,-1,48
 1325 260 1325 260 1308 245 c 0,49,50
 1278 217 1278 217 1239 217 c 0,51,52
 1211 217 1211 217 1189 233 c 1,53,54
 1210 268 1210 268 1210 313.5 c 128,-1,55
 1210 359 1210 359 1193 382.5 c 128,-1,56
 1176 406 1176 406 1153 416 c 128,-1,57
 1130 426 1130 426 1114.5 429 c 128,-1,58
 1099 432 1099 432 1082 434 c 0,59,60
 1043 440 1043 440 1017 440 c 1,61,-1
 1017 162 l 1,62,63
 1051 86 1051 86 1140 86 c 0,64,65
 1174 86 1174 86 1196 103 c 1,66,67
 1207 88 1207 88 1207 68.5 c 128,-1,68
 1207 49 1207 49 1195.5 32 c 128,-1,69
 1184 15 1184 15 1164 2 c 1,70,71
 1118 -25 1118 -25 1059 -25 c 128,-1,72
 1000 -25 1000 -25 949 7 c 1,73,74
 898 -25 898 -25 833 -25 c 128,-1,75
 768 -25 768 -25 717 7 c 1,76,77
 666 -25 666 -25 622.5 -25 c 128,-1,78
 579 -25 579 -25 551 -17.5 c 128,-1,79
 523 -10 523 -10 502 2 c 1,80,81
 459 29 459 29 459 68 c 0,82,83
 459 88 459 88 470 103 c 1,84,85
 492 86 492 86 526 86 c 0,0,1
649 574 m 1,86,-1
 649 1294 l 1,87,-1
 191 574 l 1,88,-1
 649 574 l 1,86,-1
874 513 m 1,89,90
 806 534 806 534 806 570 c 0,91,92
 806 1108 806 1108 798 1158 c 0,93,94
 786 1231 786 1231 745 1250 c 1,95,-1
 745 265 l 1,96,97
 806 289 806 289 806 462 c 0,98,99
 806 490 806 490 874 513 c 1,89,90
EndSplineSet
EndChar

StartChar: five
Encoding: 53 53 43
Width: 1287
GlyphClass: 2
Flags: W
LayerCount: 2
Fore
SplineSet
283 -36 m 1,0,1
 232 -59 232 -59 194 -41.5 c 128,-1,2
 156 -24 156 -24 138 -5 c 0,3,4
 98 36 98 36 98 85 c 128,-1,5
 98 134 98 134 130 172 c 1,6,7
 91 216 91 216 91 277 c 128,-1,8
 91 338 91 338 145 372 c 1,9,10
 138 397 138 397 138 440 c 128,-1,11
 138 483 138 483 148.5 510 c 128,-1,12
 159 537 159 537 178 558 c 1,13,14
 221 602 221 602 286 602 c 0,15,16
 314 602 314 602 335 583 c 1,17,18
 284 518 284 518 284 391 c 0,19,20
 284 262 284 262 370 186 c 1,21,22
 451 116 451 116 576 116 c 0,23,24
 720 116 720 116 774 272 c 1,25,26
 793 330 793 330 793 414 c 2,27,-1
 793 554 l 2,28,29
 793 761 793 761 690 830 c 1,30,31
 656 854 656 854 592.5 854 c 128,-1,32
 529 854 529 854 479 843.5 c 128,-1,33
 429 833 429 833 396 820 c 128,-1,34
 363 807 363 807 340.5 796.5 c 128,-1,35
 318 786 318 786 293 786 c 0,36,37
 177 786 177 786 181 894 c 1,38,-1
 181 1410 l 1,39,40
 185 1511 185 1511 224 1538 c 0,41,42
 240 1550 240 1550 277.5 1550 c 128,-1,43
 315 1550 315 1550 342 1510 c 1,44,45
 476 1550 476 1550 598.5 1550 c 128,-1,46
 721 1550 721 1550 886 1528 c 1,47,48
 941 1550 941 1550 981 1550 c 128,-1,49
 1021 1550 1021 1550 1039 1544.5 c 128,-1,50
 1057 1539 1057 1539 1072 1528 c 0,51,52
 1103 1504 1103 1504 1103 1471.5 c 128,-1,53
 1103 1439 1103 1439 1081 1410 c 1,54,55
 1115 1385 1115 1385 1115 1339 c 128,-1,56
 1115 1293 1115 1293 1083 1266 c 1,57,58
 1101 1242 1101 1242 1101 1210.5 c 128,-1,59
 1101 1179 1101 1179 1093 1159 c 128,-1,60
 1085 1139 1085 1139 1070 1124 c 0,61,62
 1037 1088 1037 1088 991 1088 c 0,63,64
 947 1088 947 1088 941 1114 c 1,65,66
 954 1128 954 1128 954 1160.5 c 128,-1,67
 954 1193 954 1193 933.5 1209.5 c 128,-1,68
 913 1226 913 1226 868 1239 c 0,69,70
 771 1267 771 1267 607.5 1267 c 128,-1,71
 444 1267 444 1267 336 1228 c 1,72,-1
 336 908 l 1,73,74
 471 988 471 988 672 988 c 0,75,76
 993 988 993 988 1114 787 c 0,77,78
 1153 721 1153 721 1165.5 667 c 128,-1,79
 1178 613 1178 613 1189 595.5 c 128,-1,80
 1200 578 1200 578 1214 564 c 1,81,82
 1233 542 1233 542 1268 522 c 1,83,84
 1184 475 1184 475 1168 401 c 0,85,86
 1117 166 1117 166 986 72 c 0,87,88
 858 -20 858 -20 602 -20 c 0,89,90
 446 -20 446 -20 334 26 c 0,91,92
 314 34 314 34 298 34 c 0,93,94
 269 34 269 34 269 9 c 128,-1,95
 269 -16 269 -16 283 -36 c 1,0,1
344 1358 m 1,96,97
 416 1397 416 1397 620 1397 c 128,-1,98
 824 1397 824 1397 918 1350 c 1,99,100
 921 1380 921 1380 904.5 1397.5 c 128,-1,101
 888 1415 888 1415 818 1428.5 c 128,-1,102
 748 1442 748 1442 669.5 1442 c 128,-1,103
 591 1442 591 1442 545.5 1439 c 128,-1,104
 500 1436 500 1436 462 1430 c 0,105,106
 380 1419 380 1419 359.5 1400.5 c 128,-1,107
 339 1382 339 1382 344 1358 c 1,96,97
826 802 m 1,108,109
 889 689 889 689 889 523 c 0,110,111
 889 297 889 297 851 221 c 1,112,113
 886 228 886 228 903 257 c 0,114,115
 931 307 931 307 945 384.5 c 128,-1,116
 959 462 959 462 979 488.5 c 128,-1,117
 999 515 999 515 1022 523 c 1,118,119
 993 532 993 532 974 561 c 128,-1,120
 955 590 955 590 944 645 c 128,-1,121
 933 700 933 700 898.5 748 c 128,-1,122
 864 796 864 796 826 802 c 1,108,109
EndSplineSet
EndChar

StartChar: six
Encoding: 54 54 44
Width: 1461
GlyphClass: 2
Flags: W
LayerCount: 2
Fore
SplineSet
1301 1427 m 1,0,1
 1337 1395 1337 1395 1337 1340 c 128,-1,2
 1337 1285 1337 1285 1284 1244 c 1,3,4
 1290 1229 1290 1229 1290 1206.5 c 128,-1,5
 1290 1184 1290 1184 1280.5 1162.5 c 128,-1,6
 1271 1141 1271 1141 1256 1126 c 1,7,8
 1226 1099 1226 1099 1194 1099 c 0,9,10
 1127 1099 1127 1099 1107 1117 c 1,11,12
 1110 1124 1110 1124 1116 1130.5 c 128,-1,13
 1122 1137 1122 1137 1127 1146 c 0,14,15
 1140 1171 1140 1171 1140 1214.5 c 128,-1,16
 1140 1258 1140 1258 1120 1297.5 c 128,-1,17
 1100 1337 1100 1337 1062 1364 c 0,18,19
 990 1415 990 1415 854 1415 c 0,20,21
 752 1415 752 1415 688 1347 c 0,22,23
 618 1274 618 1274 618 1141 c 2,24,-1
 618 967 l 1,25,26
 715 1020 715 1020 831 1020 c 128,-1,27
 947 1020 947 1020 1033.5 1002.5 c 128,-1,28
 1120 985 1120 985 1188 944 c 0,29,30
 1327 861 1327 861 1373 677 c 0,31,32
 1393 596 1393 596 1468 552 c 1,33,34
 1393 510 1393 510 1366.5 414.5 c 128,-1,35
 1340 319 1340 319 1299 236.5 c 128,-1,36
 1258 154 1258 154 1194 96 c 0,37,38
 1060 -25 1060 -25 811 -25 c 0,39,40
 408 -25 408 -25 254 298 c 0,41,42
 197 417 197 417 179 594 c 0,43,44
 171 668 171 668 136.5 722.5 c 128,-1,45
 102 777 102 777 57 799 c 1,46,47
 164 849 164 849 178.5 979 c 128,-1,48
 193 1109 193 1109 251 1214 c 128,-1,49
 309 1319 309 1319 398 1394 c 0,50,51
 585 1550 585 1550 841 1550 c 0,52,53
 958 1550 958 1550 1014 1529 c 0,54,55
 1074 1507 1074 1507 1107 1507 c 0,56,57
 1135 1507 1135 1507 1135 1542 c 0,58,59
 1135 1562 1135 1562 1128 1586 c 1,60,61
 1154 1601 1154 1601 1186 1601 c 128,-1,62
 1218 1601 1218 1601 1239.5 1595 c 128,-1,63
 1261 1589 1261 1589 1278 1576 c 0,64,65
 1319 1546 1319 1546 1319 1500.5 c 128,-1,66
 1319 1455 1319 1455 1301 1427 c 1,0,1
406 279 m 1,67,68
 421 285 421 285 421 300 c 0,69,70
 421 322 421 322 400 369 c 0,71,72
 347 490 347 490 347 799 c 0,73,74
 347 1031 347 1031 403 1195 c 1,75,76
 410 1220 410 1220 410 1233 c 128,-1,77
 410 1246 410 1246 397 1250 c 1,78,79
 348 1189 348 1189 329 1136 c 0,80,81
 293 1036 293 1036 271 858 c 0,82,83
 269 839 269 839 222 809 c 0,84,85
 211 802 211 802 202 799 c 1,86,87
 240 782 240 782 255 764 c 128,-1,88
 270 746 270 746 271 738 c 0,89,90
 296 524 296 524 319 450 c 1,91,92
 353 346 353 346 406 279 c 1,67,68
618 357 m 2,93,94
 618 179 618 179 742 126 c 0,95,96
 781 109 781 109 819.5 109 c 128,-1,97
 858 109 858 109 886.5 123 c 128,-1,98
 915 137 915 137 936 166 c 0,99,100
 983 229 983 229 983 347 c 2,101,-1
 983 660 l 2,102,103
 983 774 983 774 938 830 c 128,-1,104
 893 886 893 886 818 886 c 0,105,106
 683 886 683 886 634 758 c 0,107,108
 618 714 618 714 618 656 c 2,109,-1
 618 357 l 2,93,94
1030 852 m 1,110,111
 1083 733 1083 733 1083 553 c 0,112,113
 1083 379 1083 379 1071.5 296 c 128,-1,114
 1060 213 1060 213 1055 201 c 1,115,116
 1096 209 1096 209 1126 350 c 0,117,118
 1135 392 1135 392 1144 442 c 0,119,120
 1161 534 1161 534 1216 553 c 1,121,122
 1187 562 1187 562 1168 591 c 128,-1,123
 1149 620 1149 620 1139 680 c 128,-1,124
 1129 740 1129 740 1097 793 c 128,-1,125
 1065 846 1065 846 1030 852 c 1,110,111
EndSplineSet
EndChar

StartChar: seven
Encoding: 55 55 45
Width: 1250
GlyphClass: 2
Flags: W
LayerCount: 2
Fore
SplineSet
599 8 m 1,0,1
 541 -33 541 -33 468 -13 c 0,2,3
 382 10 382 10 382 98 c 0,4,5
 382 185 382 185 415 265.5 c 128,-1,6
 448 346 448 346 475 405 c 1,7,-1
 626 714 l 1,8,-1
 906 1218 l 1,9,10
 797 1247 797 1247 675 1247 c 128,-1,11
 553 1247 553 1247 477 1230 c 128,-1,12
 401 1213 401 1213 352 1184 c 1,13,14
 253 1128 253 1128 253 1044 c 0,15,16
 253 1015 253 1015 265 994 c 1,17,18
 259 980 259 980 231 980 c 128,-1,19
 203 980 203 980 181.5 991 c 128,-1,20
 160 1002 160 1002 144 1020 c 0,21,22
 110 1060 110 1060 110 1119.5 c 128,-1,23
 110 1179 110 1179 157 1223 c 1,24,25
 121 1250 121 1250 121 1294 c 128,-1,26
 121 1338 121 1338 147 1364 c 1,27,28
 113 1416 113 1416 113 1463 c 128,-1,29
 113 1510 113 1510 122 1538 c 128,-1,30
 131 1566 131 1566 146 1587 c 0,31,32
 181 1634 181 1634 230 1634 c 1,33,34
 226 1527 226 1527 328 1527 c 0,35,36
 358 1527 358 1527 478 1539 c 0,37,38
 588 1550 588 1550 744.5 1550 c 128,-1,39
 901 1550 901 1550 1076 1503 c 1,40,41
 1112 1550 1112 1550 1152 1550 c 0,42,43
 1210 1550 1210 1550 1210 1483 c 0,44,45
 1210 1444 1210 1444 1176 1373 c 2,46,-1
 1127 1272 l 1,47,48
 802 612 802 612 802 207 c 0,49,50
 802 91 802 91 936 91 c 0,51,52
 970 91 970 91 992 108 c 1,53,54
 1003 93 1003 93 1003 73 c 128,-1,55
 1003 53 1003 53 991.5 36 c 128,-1,56
 980 19 980 19 962 6 c 1,57,58
 922 -20 922 -20 867.5 -20 c 128,-1,59
 813 -20 813 -20 765 1 c 1,60,61
 677 -45 677 -45 599 8 c 1,0,1
344 1358 m 1,62,63
 416 1397 416 1397 620 1397 c 128,-1,64
 824 1397 824 1397 918 1350 c 1,65,66
 921 1380 921 1380 904.5 1397.5 c 128,-1,67
 888 1415 888 1415 818 1428.5 c 128,-1,68
 748 1442 748 1442 669.5 1442 c 128,-1,69
 591 1442 591 1442 545.5 1439 c 128,-1,70
 500 1436 500 1436 462 1430 c 0,71,72
 380 1419 380 1419 359.5 1400.5 c 128,-1,73
 339 1382 339 1382 344 1358 c 1,62,63
800 859 m 1,74,75
 505 339 505 339 505 174 c 0,76,77
 505 138 505 138 525 122.5 c 128,-1,78
 545 107 545 107 589 107 c 1,79,80
 574 130 574 130 574 152 c 2,81,-1
 574 186 l 2,82,83
 574 262 574 262 658 462 c 1,84,85
 746 665 746 665 769 721 c 2,86,-1
 799 797 l 2,87,88
 810 826 810 826 810 839.5 c 128,-1,89
 810 853 810 853 800 859 c 1,74,75
EndSplineSet
EndChar

StartChar: eight
Encoding: 56 56 46
Width: 1407
GlyphClass: 2
Flags: W
LayerCount: 2
Fore
SplineSet
199 186 m 128,-1,1
 151 259 151 259 128.5 334 c 128,-1,2
 106 409 106 409 79 437 c 128,-1,3
 52 465 52 465 20 483 c 1,4,5
 95 527 95 527 115 596 c 1,6,7
 145 706 145 706 280 792 c 0,8,9
 320 817 320 817 362 832 c 1,10,11
 244 905 244 905 190 1021 c 2,12,-1
 170 1064 l 1,13,14
 140 1132 140 1132 90 1160 c 1,15,16
 130 1179 130 1179 145 1199 c 0,17,18
 165 1226 165 1226 191 1287 c 128,-1,19
 217 1348 217 1348 267 1400.5 c 128,-1,20
 317 1453 317 1453 383 1486 c 0,21,22
 508 1550 508 1550 705 1550 c 128,-1,23
 902 1550 902 1550 1030 1485.5 c 128,-1,24
 1158 1421 1158 1421 1222 1273 c 0,25,26
 1256 1195 1256 1195 1317 1160 c 1,27,28
 1258 1127 1258 1127 1223 1052 c 0,29,30
 1152 899 1152 899 1049 832 c 1,31,32
 1183 786 1183 786 1260 668 c 0,33,34
 1283 632 1283 632 1290.5 603.5 c 128,-1,35
 1298 575 1298 575 1309 557 c 128,-1,36
 1320 539 1320 539 1334 525 c 0,37,38
 1357 500 1357 500 1387 483 c 1,39,40
 1317 444 1317 444 1284 352 c 128,-1,41
 1251 260 1251 260 1200 187 c 128,-1,42
 1149 114 1149 114 1078 67 c 0,43,44
 940 -25 940 -25 708 -25 c 0,45,46
 455 -25 455 -25 318 66 c 0,47,0
 247 113 247 113 199 186 c 128,-1,1
653 871 m 0,48,49
 682 864 682 864 707.5 864 c 128,-1,50
 733 864 733 864 760.5 871 c 128,-1,51
 788 878 788 878 810 897 c 0,52,53
 862 940 862 940 862 1034 c 2,54,-1
 862 1257 l 2,55,56
 862 1326 862 1326 814 1372 c 0,57,58
 769 1415 769 1415 708 1415 c 256,59,60
 647 1415 647 1415 610 1384 c 0,61,62
 545 1331 545 1331 545 1264 c 2,63,-1
 545 1034 l 2,64,65
 545 897 545 897 653 871 c 0,48,49
406 941 m 1,66,67
 340 1032 340 1032 340 1179 c 0,68,69
 340 1293 340 1293 416 1402 c 1,70,71
 381 1396 381 1396 343 1357.5 c 128,-1,72
 305 1319 305 1319 282 1244 c 1,73,74
 266 1199 266 1199 224 1172 c 0,75,76
 211 1164 211 1164 199 1160 c 1,77,78
 260 1140 260 1140 277 1095 c 0,79,80
 308 1015 308 1015 336.5 979.5 c 128,-1,81
 365 944 365 944 406 941 c 1,66,67
945 941 m 1,82,83
 970 945 970 945 981 966 c 0,84,85
 999 1000 999 1000 1008 1051 c 128,-1,86
 1017 1102 1017 1102 1022.5 1114.5 c 128,-1,87
 1028 1127 1028 1127 1037 1135 c 0,88,89
 1054 1150 1054 1150 1086 1160 c 1,90,91
 1048 1173 1048 1173 1030.5 1199.5 c 128,-1,92
 1013 1226 1013 1226 1008.5 1251 c 128,-1,93
 1004 1276 1004 1276 994 1302.5 c 128,-1,94
 984 1329 984 1329 972 1348 c 0,95,96
 945 1388 945 1388 919 1392 c 1,97,-1
 929 1370 l 1,98,99
 953 1320 953 1320 953 1160 c 2,100,-1
 953 1094 l 2,101,102
 953 992 953 992 945 941 c 1,82,83
515 325 m 2,103,104
 515 223 515 223 575 163 c 0,105,106
 629 109 629 109 708 109 c 0,107,108
 786 109 786 109 836 163 c 0,109,110
 892 222 892 222 892 325 c 2,111,-1
 892 558 l 2,112,113
 892 691 892 691 774 722 c 0,114,115
 741 730 741 730 706.5 730 c 128,-1,116
 672 730 672 730 637.5 718 c 128,-1,117
 603 706 603 706 576 684 c 0,118,119
 515 634 515 634 515 558 c 2,120,-1
 515 325 l 2,103,104
958 702 m 1,121,122
 983 646 983 646 983 537.5 c 128,-1,123
 983 429 983 429 980.5 383 c 128,-1,124
 978 337 978 337 974 300 c 0,125,126
 966 228 966 228 955 201 c 1,127,128
 987 207 987 207 1002 233 c 0,129,130
 1026 274 1026 274 1039 348 c 1,131,132
 1061 464 1061 464 1116 483 c 1,133,134
 1051 503 1051 503 1041 564.5 c 128,-1,135
 1031 626 1031 626 1007.5 661.5 c 128,-1,136
 984 697 984 697 958 702 c 1,121,122
339 200 m 1,137,138
 273 365 273 365 273 483 c 0,139,140
 273 584 273 584 292 628.5 c 128,-1,141
 311 673 311 673 328 702 c 1,142,143
 258 690 258 690 220 566 c 0,144,145
 208 528 208 528 189 510.5 c 128,-1,146
 170 493 170 493 139 483 c 1,147,148
 199 464 199 464 218.5 396 c 128,-1,149
 238 328 238 328 254 293 c 128,-1,150
 270 258 270 258 285 238 c 0,151,152
 309 205 309 205 339 200 c 1,137,138
EndSplineSet
EndChar

StartChar: nine
Encoding: 57 57 47
Width: 1461
GlyphClass: 2
Flags: W
LayerCount: 2
Fore
SplineSet
376 -61 m 1,0,1
 350 -76 350 -76 318 -76 c 128,-1,2
 286 -76 286 -76 264.5 -70 c 128,-1,3
 243 -64 243 -64 226 -51 c 0,4,5
 185 -21 185 -21 185 24 c 128,-1,6
 185 69 185 69 202 98 c 1,7,8
 167 131 167 131 167 184.5 c 128,-1,9
 167 238 167 238 220 281 c 1,10,11
 214 296 214 296 214 318.5 c 128,-1,12
 214 341 214 341 223.5 362.5 c 128,-1,13
 233 384 233 384 248 398 c 0,14,15
 278 426 278 426 310 426 c 0,16,17
 377 426 377 426 397 408 c 1,18,19
 394 401 394 401 388 394.5 c 128,-1,20
 382 388 382 388 377 378 c 0,21,22
 364 354 364 354 364 310.5 c 128,-1,23
 364 267 364 267 384 227.5 c 128,-1,24
 404 188 404 188 442 162 c 1,25,26
 514 110 514 110 650 110 c 0,27,28
 750 110 750 110 818 178 c 0,29,30
 889 249 889 249 889 365 c 2,31,-1
 889 560 l 1,32,33
 790 505 790 505 680.5 505 c 128,-1,34
 571 505 571 505 481.5 528 c 128,-1,35
 392 551 392 551 322 604 c 0,36,37
 175 715 175 715 135 955 c 1,38,39
 123 1019 123 1019 40 1068 c 1,40,41
 117 1111 117 1111 143 1198 c 128,-1,42
 169 1285 169 1285 227 1353.5 c 128,-1,43
 285 1422 285 1422 360 1466 c 0,44,45
 506 1550 506 1550 672 1550 c 128,-1,46
 838 1550 838 1550 949 1509.5 c 128,-1,47
 1060 1469 1060 1469 1138 1393 c 0,48,49
 1288 1245 1288 1245 1319 968 c 0,50,51
 1334 839 1334 839 1421 797 c 1,52,53
 1334 756 1334 756 1319 634 c 1,54,55
 1289 371 1289 371 1134 186 c 1,56,57
 955 -25 955 -25 663 -25 c 0,58,59
 546 -25 546 -25 490 -4 c 0,60,61
 430 18 430 18 397 18 c 0,62,63
 369 18 369 18 369 -17 c 0,64,65
 369 -36 369 -36 376 -61 c 1,0,1
623 654 m 0,66,67
 654 639 654 639 699 639 c 128,-1,68
 744 639 744 639 781.5 656.5 c 128,-1,69
 819 674 819 674 843 703 c 0,70,71
 889 759 889 759 889 850 c 2,72,-1
 889 1153 l 2,73,74
 889 1340 889 1340 778 1397 c 0,75,76
 741 1416 741 1416 699 1416 c 128,-1,77
 657 1416 657 1416 626 1402.5 c 128,-1,78
 595 1389 595 1389 572 1360 c 0,79,80
 521 1299 521 1299 521 1183 c 2,81,-1
 521 871 l 2,82,83
 521 703 521 703 623 654 c 0,66,67
353 736 m 1,84,85
 367 747 367 747 367 769 c 128,-1,86
 367 791 367 791 358 813.5 c 128,-1,87
 349 836 349 836 343 854 c 2,88,-1
 328 898 l 2,89,90
 294 999 294 999 294 1048 c 128,-1,91
 294 1097 294 1097 300.5 1126 c 128,-1,92
 307 1155 307 1155 316 1181 c 0,93,94
 334 1228 334 1228 352 1259 c 0,95,96
 394 1328 394 1328 394 1338 c 0,97,98
 394 1360 394 1360 380 1371 c 1,99,100
 313 1319 313 1319 265 1218 c 0,101,102
 245 1175 245 1175 233 1120 c 0,103,104
 228 1093 228 1093 174 1068 c 1,105,106
 228 1043 228 1043 233 1018 c 0,107,108
 266 868 266 868 323 780 c 1,109,-1
 353 736 l 1,84,85
1052 724 m 0,110,111
 1052 774 1052 774 1121 798 c 1,112,113
 1052 819 1052 819 1052 884 c 128,-1,114
 1052 949 1052 949 1051 990 c 128,-1,115
 1050 1031 1050 1031 1048 1062 c 0,116,117
 1040 1185 1040 1185 1020 1214 c 128,-1,118
 1000 1243 1000 1243 985 1250 c 1,119,-1
 985 265 l 1,120,121
 1027 281 1027 281 1037 354 c 1,122,123
 1052 444 1052 444 1052 724 c 0,110,111
EndSplineSet
EndChar

StartChar: colon
Encoding: 58 58 48
Width: 678
GlyphClass: 2
Flags: W
LayerCount: 2
Fore
SplineSet
78 164 m 1,0,1
 134 199 134 199 148.5 220.5 c 128,-1,2
 163 242 163 242 172 259 c 0,3,4
 196 304 196 304 242.5 329.5 c 128,-1,5
 289 355 289 355 343 355 c 0,6,7
 455 355 455 355 505 261 c 0,8,9
 545 187 545 187 600 164 c 1,10,11
 585 155 585 155 572 148 c 128,-1,12
 559 141 559 141 548 132 c 0,13,14
 525 113 525 113 502 73.5 c 128,-1,15
 479 34 479 34 436.5 4.5 c 128,-1,16
 394 -25 394 -25 343 -25 c 256,17,18
 292 -25 292 -25 244.5 4.5 c 128,-1,19
 197 34 197 34 172 79 c 0,20,21
 143 129 143 129 119.5 142.5 c 128,-1,22
 96 156 96 156 78 164 c 1,0,1
290.5 127.5 m 128,-1,24
 287 142 287 142 287 181.5 c 128,-1,25
 287 221 287 221 325 278 c 1,26,27
 303 278 303 278 286 269.5 c 128,-1,28
 269 261 269 261 256 244 c 128,-1,29
 243 227 243 227 237.5 217.5 c 128,-1,30
 232 208 232 208 224 198 c 1,31,32
 205 170 205 170 193 164 c 1,33,34
 209 155 209 155 222.5 135.5 c 128,-1,35
 236 116 236 116 254 94 c 0,36,37
 281 62 281 62 325 62 c 1,38,39
 319 73 319 73 312.5 82.5 c 128,-1,40
 306 92 306 92 300 102.5 c 128,-1,23
 294 113 294 113 290.5 127.5 c 128,-1,24
78 796 m 1,41,42
 134 831 134 831 148.5 852.5 c 128,-1,43
 163 874 163 874 172 891 c 0,44,45
 196 936 196 936 242.5 961.5 c 128,-1,46
 289 987 289 987 343 987 c 0,47,48
 455 987 455 987 505 893 c 0,49,50
 545 819 545 819 600 796 c 1,51,52
 585 787 585 787 572 780 c 128,-1,53
 559 773 559 773 548 764 c 0,54,55
 525 745 525 745 502 705.5 c 128,-1,56
 479 666 479 666 436.5 636.5 c 128,-1,57
 394 607 394 607 343 607 c 256,58,59
 292 607 292 607 244.5 636.5 c 128,-1,60
 197 666 197 666 172 711 c 0,61,62
 143 761 143 761 119.5 774.5 c 128,-1,63
 96 788 96 788 78 796 c 1,41,42
290.5 759.5 m 128,-1,65
 287 774 287 774 287 813.5 c 128,-1,66
 287 853 287 853 325 910 c 1,67,68
 303 910 303 910 286 901.5 c 128,-1,69
 269 893 269 893 256 876 c 128,-1,70
 243 859 243 859 237.5 849.5 c 128,-1,71
 232 840 232 840 224 830 c 1,72,73
 205 802 205 802 193 796 c 1,74,75
 209 787 209 787 222.5 767.5 c 128,-1,76
 236 748 236 748 254 726 c 0,77,78
 281 694 281 694 325 694 c 1,79,80
 319 705 319 705 312.5 714.5 c 128,-1,81
 306 724 306 724 300 734.5 c 128,-1,64
 294 745 294 745 290.5 759.5 c 128,-1,65
EndSplineSet
EndChar

StartChar: semicolon
Encoding: 59 59 49
Width: 678
GlyphClass: 2
Flags: W
LayerCount: 2
Fore
SplineSet
78 796 m 1,0,1
 134 831 134 831 148.5 852.5 c 128,-1,2
 163 874 163 874 172 891 c 0,3,4
 196 936 196 936 242.5 961.5 c 128,-1,5
 289 987 289 987 343 987 c 0,6,7
 455 987 455 987 505 893 c 0,8,9
 545 819 545 819 600 796 c 1,10,11
 585 787 585 787 572 780 c 128,-1,12
 559 773 559 773 548 764 c 0,13,14
 525 745 525 745 502 705.5 c 128,-1,15
 479 666 479 666 436.5 636.5 c 128,-1,16
 394 607 394 607 343 607 c 256,17,18
 292 607 292 607 244.5 636.5 c 128,-1,19
 197 666 197 666 172 711 c 0,20,21
 143 761 143 761 119.5 774.5 c 128,-1,22
 96 788 96 788 78 796 c 1,0,1
290.5 759.5 m 128,-1,24
 287 774 287 774 287 813.5 c 128,-1,25
 287 853 287 853 325 910 c 1,26,27
 303 910 303 910 286 901.5 c 128,-1,28
 269 893 269 893 256 876 c 128,-1,29
 243 859 243 859 237.5 849.5 c 128,-1,30
 232 840 232 840 224 830 c 1,31,32
 205 802 205 802 193 796 c 1,33,34
 209 787 209 787 222.5 767.5 c 128,-1,35
 236 748 236 748 254 726 c 0,36,37
 281 694 281 694 325 694 c 1,38,39
 319 705 319 705 312.5 714.5 c 128,-1,40
 306 724 306 724 300 734.5 c 128,-1,23
 294 745 294 745 290.5 759.5 c 128,-1,24
83 164 m 1,41,42
 131 195 131 195 145 218 c 1,43,-1
 167 259 l 2,44,45
 204 327 204 327 291 348 c 0,46,47
 318 355 318 355 358.5 355 c 128,-1,48
 399 355 399 355 437.5 330.5 c 128,-1,49
 476 306 476 306 497 267 c 0,50,51
 540 187 540 187 595 164 c 1,52,53
 533 139 533 139 510 56 c 0,54,55
 504 34 504 34 494 -10.5 c 128,-1,56
 484 -55 484 -55 454.5 -122.5 c 128,-1,57
 425 -190 425 -190 387 -242 c 0,58,59
 305 -357 305 -357 220 -357 c 0,60,61
 186 -357 186 -357 165 -340 c 128,-1,62
 144 -323 144 -323 144 -295 c 1,63,64
 198 -289 198 -289 245 -218.5 c 128,-1,65
 292 -148 292 -148 292 -71 c 0,66,67
 292 -45 292 -45 284 -16 c 1,68,69
 204 11 204 11 167 79 c 1,70,-1
 149 110 l 2,71,72
 129 144 129 144 83 164 c 1,41,42
285.5 127.5 m 128,-1,74
 282 142 282 142 282 181.5 c 128,-1,75
 282 221 282 221 320 278 c 1,76,77
 298 278 298 278 281 269.5 c 128,-1,78
 264 261 264 261 251 244 c 128,-1,79
 238 227 238 227 232.5 217.5 c 128,-1,80
 227 208 227 208 219 198 c 1,81,82
 200 170 200 170 188 164 c 1,83,84
 204 155 204 155 217.5 135.5 c 128,-1,85
 231 116 231 116 249 94 c 0,86,87
 276 62 276 62 320 62 c 1,88,89
 314 73 314 73 307.5 82.5 c 128,-1,90
 301 92 301 92 295 102.5 c 128,-1,73
 289 113 289 113 285.5 127.5 c 128,-1,74
EndSplineSet
EndChar

StartChar: less
Encoding: 60 60 50
Width: 1022
GlyphClass: 2
Flags: W
LayerCount: 2
Fore
SplineSet
858 1122 m 1,0,1
 878 1102 878 1102 878 1066 c 128,-1,2
 878 1030 878 1030 872.5 1002 c 128,-1,3
 867 974 867 974 851 946 c 0,4,5
 819 891 819 891 729 832 c 2,6,-1
 377 598 l 1,7,-1
 729 364 l 1,8,9
 854 277 854 277 872 194 c 0,10,11
 878 166 878 166 878 143 c 0,12,13
 878 94 878 94 858 74 c 1,14,-1
 220 513 l 2,15,16
 164 552 164 552 164 598 c 256,17,18
 164 644 164 644 220 683 c 2,19,-1
 858 1122 l 1,0,1
EndSplineSet
EndChar

StartChar: equal
Encoding: 61 61 51
Width: 1108
GlyphClass: 2
Flags: W
LayerCount: 2
Fore
SplineSet
170 920 m 1,0,-1
 938 920 l 1,1,-1
 938 774 l 1,2,-1
 170 774 l 1,3,-1
 170 920 l 1,0,-1
170 416 m 1,4,-1
 938 416 l 1,5,-1
 938 270 l 1,6,-1
 170 270 l 1,7,-1
 170 416 l 1,4,-1
EndSplineSet
EndChar

StartChar: greater
Encoding: 62 62 52
Width: 1022
GlyphClass: 2
Flags: W
LayerCount: 2
Fore
SplineSet
164 1122 m 1,0,1
 144 1102 144 1102 144 1066 c 128,-1,2
 144 1030 144 1030 149.5 1002 c 128,-1,3
 155 974 155 974 171 946 c 0,4,5
 203 891 203 891 293 832 c 2,6,-1
 645 598 l 1,7,-1
 293 364 l 1,8,9
 168 277 168 277 150 194 c 0,10,11
 144 166 144 166 144 143 c 0,12,13
 144 94 144 94 164 74 c 1,14,-1
 802 513 l 2,15,16
 858 552 858 552 858 598 c 256,17,18
 858 644 858 644 802 683 c 2,19,-1
 164 1122 l 1,0,1
EndSplineSet
EndChar

StartChar: question
Encoding: 63 63 53
Width: 1174
GlyphClass: 2
Flags: W
LayerCount: 2
Fore
SplineSet
722 645 m 1,0,1
 745 635 745 635 745 596 c 128,-1,2
 745 557 745 557 733.5 529.5 c 128,-1,3
 722 502 722 502 702 482 c 0,4,5
 659 439 659 439 613.5 439 c 128,-1,6
 568 439 568 439 537.5 450.5 c 128,-1,7
 507 462 507 462 483 483 c 0,8,9
 429 530 429 530 429 593 c 128,-1,10
 429 656 429 656 451 701.5 c 128,-1,11
 473 747 473 747 506 787.5 c 128,-1,12
 539 828 539 828 577 867 c 128,-1,13
 615 906 615 906 648 950 c 0,14,15
 724 1054 724 1054 724 1170 c 1,16,-1
 725 1207 l 2,17,18
 725 1243 725 1243 686 1268 c 0,19,20
 670 1278 670 1278 642 1292 c 1,21,22
 702 1319 702 1319 713 1342 c 0,23,24
 724 1366 724 1366 724 1429 c 0,25,26
 724 1545 724 1545 560.5 1545 c 128,-1,27
 397 1545 397 1545 397 1425 c 2,28,-1
 397 1160 l 2,29,30
 397 1059 397 1059 488 1059 c 0,31,32
 520 1059 520 1059 536 1073 c 1,33,34
 551 1065 551 1065 551 1042 c 128,-1,35
 551 1019 551 1019 541.5 1003 c 128,-1,36
 532 987 532 987 512 974 c 0,37,38
 469 945 469 945 401 945 c 128,-1,39
 333 945 333 945 281.5 966.5 c 128,-1,40
 230 988 230 988 188 1022 c 0,41,42
 102 1093 102 1093 72 1191 c 0,43,44
 55 1247 55 1247 3 1275 c 2,45,-1
 -28 1292 l 1,46,47
 36 1328 36 1328 56.5 1358 c 128,-1,48
 77 1388 77 1388 93 1431 c 128,-1,49
 109 1474 109 1474 155 1522 c 128,-1,50
 201 1570 201 1570 264 1604 c 0,51,52
 398 1677 398 1677 575 1677 c 0,53,54
 952 1677 952 1677 1054 1405 c 1,55,56
 1078 1334 1078 1334 1149 1292 c 1,57,58
 1133 1283 1133 1283 1117 1275 c 128,-1,59
 1101 1267 1101 1267 1088 1256 c 1,60,61
 1056 1232 1056 1232 1046.5 1179 c 128,-1,62
 1037 1126 1037 1126 1001 1072.5 c 128,-1,63
 965 1019 965 1019 918.5 974 c 128,-1,64
 872 929 872 929 820 890 c 2,65,-1
 726 818 l 1,66,67
 628 738 628 738 628 683 c 0,68,69
 628 656 628 656 645 643.5 c 128,-1,70
 662 631 662 631 681.5 631 c 128,-1,71
 701 631 701 631 722 645 c 1,0,1
808 1177 m 2,72,73
 808 1094 808 1094 793 1062 c 1,74,75
 839 1062 839 1062 862 1208 c 0,76,77
 870 1260 870 1260 870 1304 c 128,-1,78
 870 1348 870 1348 862.5 1391 c 128,-1,79
 855 1434 855 1434 844 1463 c 0,80,81
 822 1522 822 1522 793 1522 c 1,82,83
 808 1490 808 1490 808 1412.5 c 128,-1,84
 808 1335 808 1335 796.5 1316.5 c 128,-1,85
 785 1298 785 1298 760 1291 c 1,86,87
 792 1280 792 1280 800 1262.5 c 128,-1,88
 808 1245 808 1245 808 1213 c 2,89,-1
 808 1177 l 2,72,73
254 1102 m 1,90,91
 226 1183 226 1183 226 1232 c 2,92,-1
 226 1297 l 2,93,94
 226 1408 226 1408 254 1502 c 1,95,96
 228 1489 228 1489 218 1476 c 0,97,98
 194 1445 194 1445 178.5 1390 c 128,-1,99
 163 1335 163 1335 147 1318 c 128,-1,100
 131 1301 131 1301 100 1291 c 1,101,102
 156 1272 156 1272 173 1226 c 0,103,104
 179 1209 179 1209 185 1187 c 0,105,106
 206 1117 206 1117 254 1102 c 1,90,91
336 164 m 1,107,108
 392 199 392 199 406.5 220.5 c 128,-1,109
 421 242 421 242 430 259 c 0,110,111
 454 304 454 304 500.5 329.5 c 128,-1,112
 547 355 547 355 601 355 c 0,113,114
 713 355 713 355 763 261 c 0,115,116
 803 187 803 187 858 164 c 1,117,118
 843 155 843 155 830 148 c 128,-1,119
 817 141 817 141 806 132 c 0,120,121
 783 113 783 113 760 73.5 c 128,-1,122
 737 34 737 34 694.5 4.5 c 128,-1,123
 652 -25 652 -25 601 -25 c 256,124,125
 550 -25 550 -25 502.5 4.5 c 128,-1,126
 455 34 455 34 430 79 c 0,127,128
 401 129 401 129 377.5 142.5 c 128,-1,129
 354 156 354 156 336 164 c 1,107,108
548.5 127.5 m 128,-1,131
 545 142 545 142 545 181.5 c 128,-1,132
 545 221 545 221 583 278 c 1,133,134
 561 278 561 278 544 269.5 c 128,-1,135
 527 261 527 261 514 244 c 128,-1,136
 501 227 501 227 495.5 217.5 c 128,-1,137
 490 208 490 208 482 198 c 1,138,139
 463 170 463 170 451 164 c 1,140,141
 467 155 467 155 480.5 135.5 c 128,-1,142
 494 116 494 116 512 94 c 0,143,144
 539 62 539 62 583 62 c 1,145,146
 577 73 577 73 570.5 82.5 c 128,-1,147
 564 92 564 92 558 102.5 c 128,-1,130
 552 113 552 113 548.5 127.5 c 128,-1,131
EndSplineSet
EndChar

StartChar: at
Encoding: 64 64 54
Width: 2462
GlyphClass: 2
Flags: W
LayerCount: 2
Fore
SplineSet
1919 28 m 1,0,1
 1938 13 1938 13 1938 -28 c 128,-1,2
 1938 -69 1938 -69 1894.5 -119.5 c 128,-1,3
 1851 -170 1851 -170 1781.5 -211.5 c 128,-1,4
 1712 -253 1712 -253 1639.5 -283.5 c 128,-1,5
 1567 -314 1567 -314 1480 -337 c 0,6,7
 1291 -387 1291 -387 1115.5 -387 c 128,-1,8
 940 -387 940 -387 813 -365 c 128,-1,9
 686 -343 686 -343 574 -298.5 c 128,-1,10
 462 -254 462 -254 369.5 -185 c 128,-1,11
 277 -116 277 -116 210 -22 c 0,12,13
 70 175 70 175 70 456 c 0,14,15
 70 744 70 744 254 998 c 0,16,17
 435 1249 435 1249 742 1396 c 0,18,19
 1063 1550 1063 1550 1435 1550 c 0,20,21
 1892 1550 1892 1550 2150 1346 c 0,22,23
 2267 1253 2267 1253 2324.5 1131 c 128,-1,24
 2382 1009 2382 1009 2382 888.5 c 128,-1,25
 2382 768 2382 768 2351 667.5 c 128,-1,26
 2320 567 2320 567 2265 479.5 c 128,-1,27
 2210 392 2210 392 2135.5 320.5 c 128,-1,28
 2061 249 2061 249 1974 198 c 0,29,30
 1792 90 1792 90 1599 90 c 128,-1,31
 1406 90 1406 90 1305 164 c 1,32,33
 1200 90 1200 90 1054 90 c 0,34,35
 900 90 900 90 808 209 c 0,36,37
 718 324 718 324 718 507 c 0,38,39
 718 565 718 565 704 587 c 1,40,41
 683 623 683 623 637 649 c 1,42,43
 688 664 688 664 720 686.5 c 128,-1,44
 752 709 752 709 760 729 c 0,45,46
 838 929 838 929 1016 1033 c 0,47,48
 1164 1120 1164 1120 1333 1120 c 0,49,50
 1425 1120 1425 1120 1507 1100 c 1,51,-1
 1733 1100 l 1,52,53
 1647 745 1647 745 1647 726 c 0,54,55
 1647 677 1647 677 1711 640 c 1,56,57
 1653 618 1653 618 1636 599 c 0,58,59
 1609 569 1609 569 1599 524 c 2,60,-1
 1564 369 l 2,61,62
 1562 361 1562 361 1560 343 c 2,63,64
 1560 343 1560 343 1554 306 c 1,65,66
 1548 255 1548 255 1548 243 c 0,67,68
 1548 189 1548 189 1592 189 c 0,69,70
 1667 189 1667 189 1743.5 239 c 128,-1,71
 1820 289 1820 289 1882 377 c 0,72,73
 2023 575 2023 575 2023 845 c 0,74,75
 2023 1268 2023 1268 1704 1393 c 0,76,77
 1594 1436 1594 1436 1454 1436 c 128,-1,78
 1314 1436 1314 1436 1189 1401 c 128,-1,79
 1064 1366 1064 1366 952 1302 c 128,-1,80
 840 1238 840 1238 745 1148 c 128,-1,81
 650 1058 650 1058 580 948 c 0,82,83
 432 715 432 715 426 447 c 0,84,85
 418 126 418 126 628 -66 c 0,86,87
 835 -256 835 -256 1190 -256 c 256,88,89
 1545 -256 1545 -256 1777 -102 c 0,90,91
 1858 -49 1858 -49 1919 28 c 1,0,1
2048 495 m 1,92,93
 2189 617 2189 617 2189 885 c 0,94,95
 2189 987 2189 987 2160 1059 c 0,96,97
 2109 1186 2109 1186 2048 1221 c 1,98,99
 2128 1074 2128 1074 2128 866 c 0,100,101
 2128 664 2128 664 2048 495 c 1,92,93
436 -106 m 1,102,103
 440 -102 440 -102 440 -87 c 0,104,105
 440 -68 440 -68 411.5 -32.5 c 128,-1,106
 383 3 383 3 349.5 59 c 128,-1,107
 316 115 316 115 290 178 c 0,108,109
 236 313 236 313 236 429 c 128,-1,110
 236 545 236 545 253 623 c 128,-1,111
 270 701 270 701 302 774 c 0,112,113
 356 896 356 896 483 1063 c 0,114,115
 501 1086 501 1086 501 1102 c 128,-1,116
 501 1118 501 1118 498 1126 c 1,117,118
 345 1004 345 1004 257 817 c 0,119,120
 175 643 175 643 175 456 c 0,121,122
 175 290 175 290 244 134 c 0,123,124
 317 -30 317 -30 436 -106 c 1,102,103
1095.5 830.5 m 128,-1,126
 1071 777 1071 777 1071 724.5 c 128,-1,127
 1071 672 1071 672 1137 640 c 1,128,129
 1066 617 1066 617 1042 572 c 0,130,131
 1015 522 1015 522 1015 446.5 c 128,-1,132
 1015 371 1015 371 1023.5 333 c 128,-1,133
 1032 295 1032 295 1048 267 c 0,134,135
 1082 208 1082 208 1144 208 c 0,136,137
 1210 208 1210 208 1269 267 c 1,138,-1
 1296 417 l 1,139,140
 1324 543 1324 543 1324 564 c 128,-1,141
 1324 585 1324 585 1315 598.5 c 128,-1,142
 1306 612 1306 612 1294 620.5 c 128,-1,143
 1282 629 1282 629 1270 633.5 c 128,-1,144
 1258 638 1258 638 1251 641 c 1,145,146
 1357 688 1357 688 1367 731 c 2,147,-1
 1438 1011 l 1,148,149
 1411 1017 1411 1017 1366.5 1017 c 128,-1,150
 1322 1017 1322 1017 1264 992 c 128,-1,151
 1206 967 1206 967 1163 925.5 c 128,-1,125
 1120 884 1120 884 1095.5 830.5 c 128,-1,126
889 255 m 1,152,153
 859 339 859 339 859 481 c 0,154,155
 859 751 859 751 1059 961 c 1,156,157
 951 908 951 908 877 788 c 0,158,159
 798 659 798 659 798 513 c 0,160,161
 798 346 798 346 889 255 c 1,152,153
1355 265 m 1,162,163
 1404 284 1404 284 1423 337 c 1,164,165
 1483 518 1483 518 1525 822 c 0,166,167
 1530 858 1530 858 1530 876 c 0,168,169
 1530 914 1530 914 1495 930 c 1,170,-1
 1355 265 l 1,162,163
EndSplineSet
EndChar

StartChar: A
Encoding: 65 65 55
Width: 1458
GlyphClass: 2
Flags: W
LayerCount: 2
Fore
SplineSet
119 7 m 1,0,1
 82 -20 82 -20 34.5 -20 c 128,-1,2
 -13 -20 -13 -20 -41.5 4.5 c 128,-1,3
 -70 29 -70 29 -70 61 c 128,-1,4
 -70 93 -70 93 -60 108 c 1,5,6
 -31 91 -31 91 11.5 91 c 128,-1,7
 54 91 54 91 75.5 102.5 c 128,-1,8
 97 114 97 114 117 134 c 1,9,-1
 259 555 l 1,10,-1
 279 624 l 2,11,12
 288 655 288 655 288 681 c 0,13,14
 288 772 288 772 202 797 c 1,15,16
 281 827 281 827 313 862 c 0,17,18
 363 917 363 917 392 1007 c 1,19,-1
 502 1376 l 1,20,21
 470 1419 470 1419 426 1419 c 128,-1,22
 382 1419 382 1419 344 1400 c 1,23,24
 334 1418 334 1418 334 1440.5 c 128,-1,25
 334 1463 334 1463 343.5 1483 c 128,-1,26
 353 1503 353 1503 370 1518 c 0,27,28
 408 1550 408 1550 478 1550 c 128,-1,29
 548 1550 548 1550 597 1508 c 1,30,31
 647 1550 647 1550 721.5 1550 c 128,-1,32
 796 1550 796 1550 840 1510 c 1,33,34
 904 1550 904 1550 970 1550 c 128,-1,35
 1036 1550 1036 1550 1072.5 1525 c 128,-1,36
 1109 1500 1109 1500 1109 1457 c 0,37,38
 1109 1437 1109 1437 1097 1422 c 1,39,40
 1074 1439 1074 1439 1043 1439 c 0,41,42
 976 1439 976 1439 956 1348 c 1,43,-1
 1084 939 l 2,44,45
 1108 862 1108 862 1204 819 c 0,46,47
 1231 807 1231 807 1259 797 c 1,48,49
 1159 764 1159 764 1159 698 c 0,50,51
 1159 673 1159 673 1167 654 c 2,52,-1
 1358 142 l 1,53,54
 1402 96 1402 96 1447 96 c 128,-1,55
 1492 96 1492 96 1517 113 c 1,56,57
 1528 105 1528 105 1528 83 c 128,-1,58
 1528 61 1528 61 1521 42.5 c 128,-1,59
 1514 24 1514 24 1499 10 c 0,60,61
 1467 -20 1467 -20 1405 -20 c 128,-1,62
 1343 -20 1343 -20 1297 14 c 1,63,64
 1245 -20 1245 -20 1179.5 -20 c 128,-1,65
 1114 -20 1114 -20 1067 13 c 1,66,67
 1022 -20 1022 -20 961 -20 c 128,-1,68
 900 -20 900 -20 860 5.5 c 128,-1,69
 820 31 820 31 818 78 c 1,70,71
 818 106 818 106 829 113 c 1,72,73
 856 96 856 96 884 96 c 0,74,75
 943 96 943 96 967 120 c 1,76,-1
 891 375 l 1,77,-1
 350 375 l 1,78,-1
 284 154 l 1,79,80
 325 91 325 91 383.5 91 c 128,-1,81
 442 91 442 91 471 108 c 1,82,83
 482 90 482 90 482 58.5 c 128,-1,84
 482 27 482 27 451 3.5 c 128,-1,85
 420 -20 420 -20 371 -20 c 128,-1,86
 322 -20 322 -20 281 5 c 1,87,88
 245 -20 245 -20 198.5 -20 c 128,-1,89
 152 -20 152 -20 119 7 c 1,0,1
850 510 m 1,90,-1
 618 1281 l 1,91,-1
 390 510 l 1,92,-1
 850 510 l 1,90,-1
1041 265 m 1,93,94
 1059 265 1059 265 1059 305 c 0,95,96
 1059 375 1059 375 1038 441 c 2,97,-1
 1000 558 l 1,98,99
 960 690 960 690 960 724 c 0,100,101
 959 780 959 780 1009 798 c 1,102,103
 940 812 940 812 925 841 c 0,104,105
 918 853 918 853 913.5 860 c 128,-1,106
 909 867 909 867 904.5 876.5 c 128,-1,107
 900 886 900 886 894 901 c 128,-1,108
 888 916 888 916 878 944 c 2,109,-1
 816 1131 l 1,110,111
 794 1201 794 1201 751 1237 c 0,112,113
 738 1248 738 1248 727 1250 c 1,114,115
 794 1008 794 1008 815 940 c 1,116,117
 960 494 960 494 989 411 c 2,118,-1
 1041 265 l 1,93,94
1336 175 m 1,119,-1
 1338 169 l 1,120,-1
 1336 175 l 1,119,-1
EndSplineSet
EndChar

StartChar: B
Encoding: 66 66 56
Width: 1521
GlyphClass: 2
Flags: W
LayerCount: 2
Fore
SplineSet
450 -20 m 256,0,1
 384 -20 384 -20 333 12 c 1,2,3
 282 -20 282 -20 238.5 -20 c 128,-1,4
 195 -20 195 -20 167 -12.5 c 128,-1,5
 139 -5 139 -5 118 8 c 0,6,7
 75 34 75 34 75 73 c 0,8,9
 75 93 75 93 86 108 c 1,10,11
 108 91 108 91 142 91 c 0,12,13
 231 91 231 91 265 167 c 1,14,-1
 265 656 l 2,15,16
 265 701 265 701 246 725 c 0,17,18
 216 764 216 764 143 799 c 1,19,20
 210 830 210 830 231 853 c 0,21,22
 265 892 265 892 265 940 c 2,23,-1
 265 1362 l 1,24,25
 231 1439 231 1439 142 1439 c 0,26,27
 108 1439 108 1439 86 1422 c 1,28,29
 75 1437 75 1437 75 1456.5 c 128,-1,30
 75 1476 75 1476 86.5 1493 c 128,-1,31
 98 1510 98 1510 118 1522 c 0,32,33
 164 1550 164 1550 223.5 1550 c 128,-1,34
 283 1550 283 1550 333 1517 c 1,35,36
 385 1550 385 1550 449 1550 c 0,37,38
 519 1550 519 1550 571 1513 c 1,39,40
 682 1560 682 1560 792 1560 c 128,-1,41
 902 1560 902 1560 992.5 1538.5 c 128,-1,42
 1083 1517 1083 1517 1156 1478 c 0,43,44
 1315 1394 1315 1394 1354 1260 c 0,45,46
 1376 1186 1376 1186 1449 1150 c 1,47,48
 1368 1094 1368 1094 1349 1022 c 0,49,50
 1307 864 1307 864 1179 816 c 1,51,52
 1367 764 1367 764 1424 570 c 0,53,54
 1444 501 1444 501 1519 457 c 1,55,56
 1442 414 1442 414 1416 327 c 128,-1,57
 1390 240 1390 240 1324.5 170.5 c 128,-1,58
 1259 101 1259 101 1172 56 c 0,59,60
 1004 -30 1004 -30 793 -30 c 0,61,62
 667 -30 667 -30 568 15 c 1,63,64
 516 -20 516 -20 450 -20 c 256,0,1
820 864 m 2,65,66
 908 864 908 864 945 906 c 0,67,68
 984 949 984 949 984 1054 c 2,69,-1
 984 1285 l 2,70,71
 984 1346 984 1346 920 1388 c 0,72,73
 864 1425 864 1425 816.5 1425 c 128,-1,74
 769 1425 769 1425 738.5 1413.5 c 128,-1,75
 708 1402 708 1402 684 1382 c 0,76,77
 633 1340 633 1340 633 1281 c 2,78,-1
 633 864 l 1,79,-1
 820 864 l 2,65,66
1041 1402 m 1,80,81
 1075 1326 1075 1326 1075 1180 c 0,82,83
 1075 965 1075 965 1047 901 c 1,84,85
 1089 909 1089 909 1118 982 c 0,86,87
 1129 1009 1129 1009 1134.5 1039 c 128,-1,88
 1140 1069 1140 1069 1143.5 1085.5 c 128,-1,89
 1147 1102 1147 1102 1154 1114 c 0,90,91
 1169 1139 1169 1139 1208 1152 c 1,92,93
 1168 1165 1168 1165 1158 1180 c 1,94,95
 1145 1197 1145 1197 1137 1242 c 128,-1,96
 1129 1287 1129 1287 1118 1315.5 c 128,-1,97
 1107 1344 1107 1344 1094 1362 c 0,98,99
 1069 1398 1069 1398 1041 1402 c 1,80,81
361 265 m 1,100,101
 411 284 411 284 416 396 c 0,102,103
 422 508 422 508 422 706 c 128,-1,104
 422 904 422 904 421.5 969.5 c 128,-1,105
 421 1035 421 1035 420 1075 c 0,106,107
 417 1193 417 1193 397.5 1217.5 c 128,-1,108
 378 1242 378 1242 361 1250 c 1,109,110
 361 902 361 902 349 854 c 1,111,112
 335 814 335 814 281 797 c 1,113,114
 341 776 341 776 349 746 c 0,115,116
 361 698 361 698 361 395 c 2,117,-1
 361 265 l 1,100,101
633 261 m 2,118,119
 633 191 633 191 686 146 c 0,120,121
 737 104 737 104 808 104 c 0,122,123
 877 104 877 104 924 134 c 0,124,125
 1014 193 1014 193 1014 269 c 2,126,-1
 1014 562 l 2,127,128
 1014 653 1014 653 955 699 c 0,129,130
 905 738 905 738 824 738 c 2,131,-1
 633 738 l 1,132,-1
 633 261 l 2,118,119
1081 707 m 1,133,134
 1105 653 1105 653 1105 457 c 0,135,136
 1105 209 1105 209 1087 166 c 1,137,138
 1108 170 1108 170 1130 217 c 128,-1,139
 1152 264 1152 264 1161 314 c 128,-1,140
 1170 364 1170 364 1173.5 382 c 128,-1,141
 1177 400 1177 400 1184 414 c 0,142,143
 1200 444 1200 444 1238 457 c 1,144,145
 1178 476 1178 476 1167.5 533 c 128,-1,146
 1157 590 1157 590 1147 621 c 128,-1,147
 1137 652 1137 652 1126 670 c 0,148,149
 1107 702 1107 702 1081 707 c 1,133,134
EndSplineSet
EndChar

StartChar: C
Encoding: 67 67 57
Width: 1320
GlyphClass: 2
Flags: W
LayerCount: 2
Fore
SplineSet
1097.5 261 m 128,-1,1
 1121 315 1121 315 1121 374.5 c 128,-1,2
 1121 434 1121 434 1098 467 c 1,3,4
 1114 495 1114 495 1165 495 c 128,-1,5
 1216 495 1216 495 1243.5 462 c 128,-1,6
 1271 429 1271 429 1271 360.5 c 128,-1,7
 1271 292 1271 292 1234.5 218.5 c 128,-1,8
 1198 145 1198 145 1132 90 c 0,9,10
 986 -30 986 -30 767 -30 c 0,11,12
 506 -30 506 -30 338 134 c 0,13,14
 167 302 167 302 132 613 c 1,15,16
 115 755 115 755 30 797 c 1,17,18
 77 819 77 819 95 843 c 0,19,20
 124 884 124 884 132.5 954.5 c 128,-1,21
 141 1025 141 1025 165 1101 c 128,-1,22
 189 1177 189 1177 228.5 1245.5 c 128,-1,23
 268 1314 268 1314 323 1371.5 c 128,-1,24
 378 1429 378 1429 449 1471 c 0,25,26
 599 1560 599 1560 799 1560 c 0,27,28
 994 1560 994 1560 1122 1462 c 0,29,30
 1237 1373 1237 1373 1271 1220 c 0,31,32
 1287 1144 1287 1144 1312 1126 c 0,33,34
 1322 1118 1322 1118 1337 1111 c 1,35,36
 1307 1061 1307 1061 1246 1056 c 1,37,38
 1219 1052 1219 1052 1188 1067 c 1,39,40
 1133 973 1133 973 1033 967 c 0,41,42
 1012 965 1012 965 1001 975 c 1,43,44
 1028 1011 1028 1011 1026 1059 c 0,45,46
 1026 1068 1026 1068 1023 1077 c 1,47,48
 977 1068 977 1068 945 1085 c 1,49,50
 893 1115 893 1115 891 1150 c 0,51,52
 891 1158 891 1158 894 1166 c 1,53,54
 956 1148 956 1148 1012 1194 c 0,55,56
 1050 1225 1050 1225 1048 1264 c 128,-1,57
 1046 1303 1046 1303 1030 1332 c 128,-1,58
 1014 1361 1014 1361 984 1384 c 0,59,60
 916 1438 916 1438 814 1438 c 0,61,62
 640 1438 640 1438 588 1282 c 0,63,64
 571 1230 571 1230 571 1160 c 2,65,-1
 571 958 l 2,66,67
 571 845 571 845 681 797 c 1,68,69
 571 744 571 744 571 624 c 2,70,-1
 571 377 l 2,71,72
 571 187 571 187 722 126 c 0,73,74
 771 107 771 107 830 107 c 128,-1,75
 889 107 889 107 941.5 123 c 128,-1,76
 994 139 994 139 1034 173 c 128,-1,0
 1074 207 1074 207 1097.5 261 c 128,-1,1
359 265 m 1,77,78
 374 271 374 271 374 286 c 0,79,80
 374 308 374 308 353 355 c 0,81,82
 300 476 300 476 300 797 c 0,83,84
 300 1031 300 1031 356 1195 c 1,85,86
 363 1220 363 1220 363 1233 c 128,-1,87
 363 1246 363 1246 350 1250 c 1,88,89
 303 1191 303 1191 283 1133 c 0,90,91
 246 1027 246 1027 224 846 c 0,92,93
 221 820 221 820 165 797 c 1,94,95
 221 772 221 772 224 746 c 0,96,97
 260 436 260 436 316 332 c 0,98,99
 335 295 335 295 359 265 c 1,77,78
EndSplineSet
EndChar

StartChar: D
Encoding: 68 68 58
Width: 1590
GlyphClass: 2
Flags: W
LayerCount: 2
Fore
SplineSet
450 -20 m 0,0,1
 384 -20 384 -20 333 12 c 1,2,3
 282 -20 282 -20 238.5 -20 c 128,-1,4
 195 -20 195 -20 167 -12.5 c 128,-1,5
 139 -5 139 -5 118 8 c 0,6,7
 75 34 75 34 75 73 c 0,8,9
 75 93 75 93 86 108 c 1,10,11
 108 91 108 91 142 91 c 0,12,13
 231 91 231 91 265 167 c 1,14,-1
 265 656 l 2,15,16
 265 702 265 702 246 724 c 0,17,18
 216 761 216 761 143 797 c 1,19,20
 211 828 211 828 231 852 c 0,21,22
 265 891 265 891 265 940 c 2,23,-1
 265 1362 l 1,24,25
 231 1439 231 1439 142 1439 c 0,26,27
 108 1439 108 1439 86 1422 c 1,28,29
 75 1437 75 1437 75 1456.5 c 128,-1,30
 75 1476 75 1476 86.5 1493 c 128,-1,31
 98 1510 98 1510 118 1522 c 0,32,33
 164 1550 164 1550 223.5 1550 c 128,-1,34
 283 1550 283 1550 333 1517 c 1,35,36
 385 1550 385 1550 443.5 1550 c 128,-1,37
 502 1550 502 1550 552 1525 c 1,38,39
 670 1560 670 1560 771 1560 c 128,-1,40
 872 1560 872 1560 950 1549 c 128,-1,41
 1028 1538 1028 1538 1099 1510.5 c 128,-1,42
 1170 1483 1170 1483 1232.5 1437 c 128,-1,43
 1295 1391 1295 1391 1344 1322 c 0,44,45
 1448 1177 1448 1177 1477 938 c 1,46,47
 1483 879 1483 879 1502 855 c 0,48,49
 1534 816 1534 816 1589 797 c 1,50,51
 1531 775 1531 775 1513 752 c 0,52,53
 1483 714 1483 714 1477 656 c 0,54,55
 1444 324 1444 324 1254 144 c 0,56,57
 1071 -30 1071 -30 779 -30 c 0,58,59
 662 -30 662 -30 569 6 c 1,60,61
 524 -20 524 -20 450 -20 c 0,0,1
633 157 m 1,62,63
 681 103 681 103 760.5 103 c 128,-1,64
 840 103 840 103 898.5 134.5 c 128,-1,65
 957 166 957 166 997 232 c 0,66,67
 1078 367 1078 367 1078 656 c 0,68,69
 1078 719 1078 719 1058 742 c 0,70,71
 1031 774 1031 774 969 797 c 1,72,73
 1030 818 1030 818 1048 839 c 0,74,75
 1078 875 1078 875 1078 930.5 c 128,-1,76
 1078 986 1078 986 1070 1041 c 128,-1,77
 1062 1096 1062 1096 1044.5 1150 c 128,-1,78
 1027 1204 1027 1204 1000.5 1253.5 c 128,-1,79
 974 1303 974 1303 937 1341 c 0,80,81
 856 1424 856 1424 746 1424 c 0,82,83
 712 1424 712 1424 680 1422.5 c 128,-1,84
 648 1421 648 1421 633 1403 c 1,85,-1
 633 157 l 1,62,63
1130 1250 m 1,86,87
 1205 1041 1205 1041 1205 892 c 0,88,89
 1205 841 1205 841 1196.5 832 c 128,-1,90
 1188 823 1188 823 1178 816 c 0,91,92
 1160 804 1160 804 1139 797 c 1,93,94
 1199 770 1199 770 1202 745 c 0,95,96
 1204 734 1204 734 1204 723 c 2,97,-1
 1204 698 l 2,98,99
 1204 563 1204 563 1176 436.5 c 128,-1,100
 1148 310 1148 310 1134 265 c 1,101,102
 1179 278 1179 278 1199.5 324.5 c 128,-1,103
 1220 371 1220 371 1234.5 424.5 c 128,-1,104
 1249 478 1249 478 1258 538 c 0,105,106
 1278 661 1278 661 1278 795 c 0,107,108
 1278 1035 1278 1035 1207 1182 c 1,109,110
 1176 1240 1176 1240 1130 1250 c 1,86,87
361 265 m 1,111,112
 411 284 411 284 416 396 c 0,113,114
 422 508 422 508 422 706 c 128,-1,115
 422 904 422 904 421.5 969.5 c 128,-1,116
 421 1035 421 1035 420 1075 c 0,117,118
 417 1193 417 1193 397.5 1217.5 c 128,-1,119
 378 1242 378 1242 361 1250 c 1,120,121
 361 902 361 902 349 854 c 1,122,123
 335 814 335 814 281 797 c 1,124,125
 341 776 341 776 349 746 c 0,126,127
 361 698 361 698 361 395 c 2,128,-1
 361 265 l 1,111,112
EndSplineSet
EndChar

StartChar: E
Encoding: 69 69 59
Width: 1441
GlyphClass: 2
Flags: W
LayerCount: 2
Fore
SplineSet
450 -20 m 0,0,1
 384 -20 384 -20 333 12 c 1,2,3
 282 -20 282 -20 238.5 -20 c 128,-1,4
 195 -20 195 -20 167 -12.5 c 128,-1,5
 139 -5 139 -5 118 8 c 0,6,7
 75 34 75 34 75 73 c 0,8,9
 75 93 75 93 86 108 c 1,10,11
 108 91 108 91 142 91 c 0,12,13
 231 91 231 91 265 167 c 1,14,-1
 265 656 l 2,15,16
 265 702 265 702 246 724 c 0,17,18
 216 761 216 761 143 797 c 1,19,20
 211 828 211 828 231 852 c 0,21,22
 265 891 265 891 265 940 c 2,23,-1
 265 1362 l 1,24,25
 231 1439 231 1439 142 1439 c 0,26,27
 108 1439 108 1439 86 1422 c 1,28,29
 75 1437 75 1437 75 1456.5 c 128,-1,30
 75 1476 75 1476 86.5 1493 c 128,-1,31
 98 1510 98 1510 118 1522 c 0,32,33
 164 1550 164 1550 223.5 1550 c 128,-1,34
 283 1550 283 1550 333 1517 c 1,35,36
 385 1550 385 1550 452 1550 c 128,-1,37
 519 1550 519 1550 574 1511 c 1,38,39
 680 1550 680 1550 819 1550 c 0,40,41
 922 1550 922 1550 995 1530 c 2,42,-1
 1084 1506 l 2,43,44
 1100 1502 1100 1502 1115 1502 c 0,45,46
 1143 1502 1143 1502 1143 1542 c 0,47,48
 1143 1552 1143 1552 1136 1576 c 1,49,50
 1164 1581 1164 1581 1207 1581 c 128,-1,51
 1250 1581 1250 1581 1280 1552.5 c 128,-1,52
 1310 1524 1310 1524 1310 1470.5 c 128,-1,53
 1310 1417 1310 1417 1291 1392 c 1,54,55
 1318 1352 1318 1352 1318 1294.5 c 128,-1,56
 1318 1237 1318 1237 1279 1198 c 1,57,58
 1291 1168 1291 1168 1291 1139.5 c 128,-1,59
 1291 1111 1291 1111 1281.5 1087.5 c 128,-1,60
 1272 1064 1272 1064 1258 1048 c 1,61,62
 1230 1019 1230 1019 1201 1019 c 0,63,64
 1159 1019 1159 1019 1125 1037 c 1,65,66
 1137 1061 1137 1061 1137 1108 c 0,67,68
 1137 1218 1137 1218 1082 1301 c 0,69,70
 1007 1415 1007 1415 857 1415 c 0,71,72
 781 1415 781 1415 719.5 1378 c 128,-1,73
 658 1341 658 1341 633 1272 c 1,74,-1
 633 885 l 1,75,76
 668 863 668 863 698.5 863 c 128,-1,77
 729 863 729 863 744.5 864 c 128,-1,78
 760 865 760 865 776 868 c 0,79,80
 817 874 817 874 839 884 c 0,81,82
 881 904 881 904 881 982 c 0,83,84
 881 1026 881 1026 860 1050 c 1,85,86
 880 1064 880 1064 910 1064 c 0,87,88
 977 1064 977 1064 1007 1010 c 0,89,90
 1018 991 1018 991 1018 968 c 128,-1,91
 1018 945 1018 945 1006 911 c 1,92,93
 1047 864 1047 864 1047 799.5 c 128,-1,94
 1047 735 1047 735 1006 688 c 1,95,96
 1018 654 1018 654 1018 626.5 c 128,-1,97
 1018 599 1018 599 1007 574 c 128,-1,98
 996 549 996 549 980 534 c 0,99,100
 949 506 949 506 910 506 c 0,101,102
 882 506 882 506 860 522 c 1,103,104
 881 557 881 557 881 604 c 0,105,106
 881 697 881 697 830 719 c 1,107,108
 785 737 785 737 727 737 c 128,-1,109
 669 737 669 737 633 716 c 1,110,-1
 633 216 l 1,111,112
 691 114 691 114 857 114 c 0,113,114
 1045 114 1045 114 1113 230 c 0,115,116
 1192 363 1192 363 1192 515 c 0,117,118
 1192 559 1192 559 1184 583 c 1,119,120
 1209 608 1209 608 1236 608 c 128,-1,121
 1263 608 1263 608 1277 600.5 c 128,-1,122
 1291 593 1291 593 1302 582 c 0,123,124
 1326 555 1326 555 1326 527 c 1,125,-1
 1320 478 l 1,126,127
 1320 459 1320 459 1330 447 c 1,128,129
 1350 426 1350 426 1350 407.5 c 128,-1,130
 1350 389 1350 389 1338 363 c 1,131,132
 1361 350 1361 350 1379.5 324.5 c 128,-1,133
 1398 299 1398 299 1398 272 c 0,134,135
 1398 215 1398 215 1350 170 c 1,136,137
 1371 140 1371 140 1371 83.5 c 128,-1,138
 1371 27 1371 27 1338.5 -12.5 c 128,-1,139
 1306 -52 1306 -52 1254 -52 c 0,140,141
 1226 -52 1226 -52 1196 -46 c 1,142,143
 1200 -24 1200 -24 1200 -2 c 0,144,145
 1200 44 1200 44 1158 44 c 0,146,147
 1111 44 1111 44 1064 25 c 0,148,149
 953 -20 953 -20 811.5 -20 c 128,-1,150
 670 -20 670 -20 571 17 c 1,151,152
 519 -20 519 -20 450 -20 c 0,0,1
361 265 m 1,153,154
 411 284 411 284 416 396 c 0,155,156
 422 508 422 508 422 706 c 128,-1,157
 422 904 422 904 421.5 969.5 c 128,-1,158
 421 1035 421 1035 420 1075 c 0,159,160
 417 1193 417 1193 397.5 1217.5 c 128,-1,161
 378 1242 378 1242 361 1250 c 1,162,163
 361 902 361 902 349 854 c 1,164,165
 335 814 335 814 281 797 c 1,166,167
 341 776 341 776 349 746 c 0,168,169
 361 698 361 698 361 395 c 2,170,-1
 361 265 l 1,153,154
613 275 m 2,171,172
 613 272 613 272 614 270 c 2,173,-1
 613 275 l 2,171,172
EndSplineSet
EndChar

StartChar: F
Encoding: 70 70 60
Width: 1351
GlyphClass: 2
Flags: W
LayerCount: 2
Fore
SplineSet
578 11 m 1,0,1
 526 -20 526 -20 458.5 -20 c 128,-1,2
 391 -20 391 -20 340 12 c 1,3,4
 289 -20 289 -20 245.5 -20 c 128,-1,5
 202 -20 202 -20 174 -12.5 c 128,-1,6
 146 -5 146 -5 126 8 c 1,7,8
 82 34 82 34 82 73 c 0,9,10
 82 93 82 93 93 108 c 1,11,12
 115 91 115 91 149 91 c 0,13,14
 238 91 238 91 272 167 c 1,15,-1
 272 657 l 2,16,17
 272 702 272 702 254 724 c 0,18,19
 223 761 223 761 150 797 c 1,20,21
 218 828 218 828 238 852 c 0,22,23
 272 891 272 891 272 940 c 2,24,-1
 272 1362 l 1,25,26
 238 1439 238 1439 149 1439 c 0,27,28
 108 1439 108 1439 86 1422 c 1,29,30
 75 1437 75 1437 75 1456.5 c 128,-1,31
 75 1476 75 1476 87.5 1493 c 128,-1,32
 100 1510 100 1510 122 1522 c 0,33,34
 169 1550 169 1550 229.5 1550 c 128,-1,35
 290 1550 290 1550 340 1517 c 1,36,37
 392 1550 392 1550 459.5 1550 c 128,-1,38
 527 1550 527 1550 582 1510 c 1,39,40
 693 1550 693 1550 846 1550 c 0,41,42
 943 1550 943 1550 1012 1530 c 2,43,-1
 1098 1506 l 2,44,45
 1114 1502 1114 1502 1129 1502 c 0,46,47
 1157 1502 1157 1502 1157 1542 c 0,48,49
 1157 1552 1157 1552 1150 1576 c 1,50,51
 1178 1581 1178 1581 1221 1581 c 128,-1,52
 1264 1581 1264 1581 1294 1552.5 c 128,-1,53
 1324 1524 1324 1524 1324 1468.5 c 128,-1,54
 1324 1413 1324 1413 1302 1383 c 1,55,56
 1332 1337 1332 1337 1332 1275 c 128,-1,57
 1332 1213 1332 1213 1292 1168 c 1,58,59
 1305 1136 1305 1136 1305 1103.5 c 128,-1,60
 1305 1071 1305 1071 1296 1046 c 128,-1,61
 1287 1021 1287 1021 1273 1004 c 0,62,63
 1245 970 1245 970 1206 970 c 0,64,65
 1171 970 1171 970 1139 987 c 1,66,67
 1152 1014 1152 1014 1152 1051.5 c 128,-1,68
 1152 1089 1152 1089 1148.5 1114.5 c 128,-1,69
 1145 1140 1145 1140 1138 1168 c 0,70,71
 1124 1231 1124 1231 1091 1292 c 0,72,73
 1025 1415 1025 1415 884 1415 c 0,74,75
 709 1415 709 1415 640 1324 c 1,76,-1
 640 862 l 1,77,78
 672 844 672 844 699 844 c 128,-1,79
 726 844 726 844 743 845 c 128,-1,80
 760 846 760 846 777 848 c 0,81,82
 820 853 820 853 842 864 c 0,83,84
 885 884 885 884 885 954.5 c 128,-1,85
 885 1025 885 1025 864 1060 c 1,86,87
 880 1074 880 1074 914 1074 c 0,88,89
 981 1074 981 1074 1011 1005 c 0,90,91
 1022 980 1022 980 1022 952.5 c 128,-1,92
 1022 925 1022 925 1010 891 c 1,93,94
 1051 844 1051 844 1051 779.5 c 128,-1,95
 1051 715 1051 715 1010 668 c 1,96,97
 1022 634 1022 634 1022 606.5 c 128,-1,98
 1022 579 1022 579 1011 554 c 128,-1,99
 1000 529 1000 529 984 514 c 0,100,101
 953 486 953 486 914 486 c 0,102,103
 886 486 886 486 864 502 c 1,104,105
 885 537 885 537 885 584 c 0,106,107
 885 677 885 677 834 699 c 1,108,109
 791 716 791 716 731.5 716 c 128,-1,110
 672 716 672 716 640 698 c 1,111,-1
 640 170 l 1,112,113
 678 91 678 91 783 91 c 0,114,115
 817 91 817 91 839 108 c 1,116,117
 850 93 850 93 850 73.5 c 128,-1,118
 850 54 850 54 838.5 37 c 128,-1,119
 827 20 827 20 806 8 c 0,120,121
 761 -20 761 -20 698.5 -20 c 128,-1,122
 636 -20 636 -20 578 11 c 1,0,1
368 265 m 1,123,124
 418 284 418 284 424 396 c 0,125,126
 429 508 429 508 429 706 c 128,-1,127
 429 904 429 904 428.5 969.5 c 128,-1,128
 428 1035 428 1035 427 1075 c 0,129,130
 424 1193 424 1193 404.5 1217.5 c 128,-1,131
 385 1242 385 1242 368 1250 c 1,132,133
 368 902 368 902 356 854 c 1,134,135
 342 814 342 814 288 797 c 1,136,137
 348 776 348 776 356 746 c 0,138,139
 368 698 368 698 368 395 c 2,140,-1
 368 265 l 1,123,124
EndSplineSet
EndChar

StartChar: G
Encoding: 71 71 61
Width: 1473
GlyphClass: 2
Flags: W
LayerCount: 2
Fore
SplineSet
1126 24 m 1,0,1
 972 -30 972 -30 821.5 -30 c 128,-1,2
 671 -30 671 -30 558.5 13.5 c 128,-1,3
 446 57 446 57 360 140 c 0,4,5
 177 315 177 315 142 625 c 0,6,7
 127 755 127 755 40 797 c 1,8,9
 127 838 127 838 143 969.5 c 128,-1,10
 159 1101 159 1101 219 1212.5 c 128,-1,11
 279 1324 279 1324 373 1402 c 0,12,13
 565 1560 565 1560 854 1560 c 0,14,15
 1053 1560 1053 1560 1188 1469 c 0,16,17
 1313 1385 1313 1385 1343 1250 c 0,18,19
 1359 1174 1359 1174 1384 1156 c 0,20,21
 1394 1148 1394 1148 1409 1141 c 1,22,23
 1350 1053 1350 1053 1289 1068 c 0,24,25
 1274 1071 1274 1071 1261 1076 c 1,26,27
 1239 1032 1239 1032 1204 1003 c 128,-1,28
 1169 974 1169 974 1126.5 969.5 c 128,-1,29
 1084 965 1084 965 1073 975 c 1,30,31
 1098 1012 1098 1012 1098 1069 c 0,32,33
 1098 1076 1098 1076 1095 1087 c 1,34,35
 1090 1085 1090 1085 1086 1085 c 128,-1,36
 1082 1085 1082 1085 1071 1084.5 c 128,-1,37
 1060 1084 1060 1084 1040 1092 c 128,-1,38
 1020 1100 1020 1100 1003 1114 c 0,39,40
 965 1144 965 1144 963 1180 c 0,41,42
 963 1188 963 1188 966 1196 c 1,43,44
 1028 1177 1028 1177 1084 1224 c 0,45,46
 1122 1257 1122 1257 1120 1294 c 128,-1,47
 1118 1331 1118 1331 1099.5 1355.5 c 128,-1,48
 1081 1380 1081 1380 1047 1398 c 0,49,50
 971 1438 971 1438 852 1438 c 0,51,52
 581 1438 581 1438 581 1124 c 2,53,-1
 581 958 l 2,54,55
 581 845 581 845 691 797 c 1,56,57
 581 744 581 744 581 624 c 2,58,-1
 581 356 l 2,59,60
 581 229 581 229 629 167.5 c 128,-1,61
 677 106 677 106 781 106 c 0,62,63
 904 106 904 106 944 216 c 0,64,65
 957 252 957 252 957 299 c 2,66,-1
 957 530 l 1,67,68
 938 549 938 549 904 549 c 128,-1,69
 870 549 870 549 848 532 c 1,70,71
 837 543 837 543 837 574 c 128,-1,72
 837 605 837 605 863 632.5 c 128,-1,73
 889 660 889 660 942.5 660 c 128,-1,74
 996 660 996 660 1031 631 c 1,75,76
 1079 660 1079 660 1134 660 c 128,-1,77
 1189 660 1189 660 1234 630 c 1,78,79
 1276 660 1276 660 1313 660 c 128,-1,80
 1350 660 1350 660 1371 653 c 128,-1,81
 1392 646 1392 646 1408 634 c 0,82,83
 1444 607 1444 607 1444 567 c 0,84,85
 1444 543 1444 543 1433 532 c 1,86,87
 1410 549 1410 549 1374 549 c 128,-1,88
 1338 549 1338 549 1304 481 c 1,89,-1
 1304 153 l 1,90,91
 1323 91 1323 91 1387 91 c 0,92,93
 1411 91 1411 91 1433 108 c 1,94,95
 1444 93 1444 93 1444 73 c 0,96,97
 1444 32 1444 32 1399 6 c 128,-1,98
 1354 -20 1354 -20 1270.5 -20 c 128,-1,99
 1187 -20 1187 -20 1126 24 c 1,0,1
368 265 m 1,100,101
 383 271 383 271 383 286 c 0,102,103
 383 308 383 308 362 355.5 c 128,-1,104
 341 403 341 403 323.5 516.5 c 128,-1,105
 306 630 306 630 306 780 c 0,106,107
 306 1023 306 1023 365 1195 c 1,108,109
 372 1220 372 1220 372 1233 c 128,-1,110
 372 1246 372 1246 359 1250 c 1,111,112
 312 1191 312 1191 292 1133 c 0,113,114
 255 1027 255 1027 233 846 c 0,115,116
 230 820 230 820 174 797 c 1,117,118
 230 772 230 772 233 746 c 0,119,120
 269 436 269 436 324 332 c 0,121,122
 344 295 344 295 368 265 c 1,100,101
1060 205 m 1,123,124
 1118 241 1118 241 1118 332 c 2,125,-1
 1118 389 l 2,126,127
 1118 474 1118 474 1060 500 c 1,128,-1
 1060 205 l 1,123,124
1296 187 m 1,129,-1
 1293 207 l 1,130,-1
 1296 187 l 1,129,-1
EndSplineSet
EndChar

StartChar: H
Encoding: 72 72 62
Width: 1721
GlyphClass: 2
Flags: W
LayerCount: 2
Fore
SplineSet
556 11 m 1,0,1
 506 -20 506 -20 443 -20 c 128,-1,2
 380 -20 380 -20 335 12 c 1,3,4
 284 -20 284 -20 241 -20 c 128,-1,5
 198 -20 198 -20 170 -12.5 c 128,-1,6
 142 -5 142 -5 122 8 c 1,7,8
 78 34 78 34 78 73 c 0,9,10
 78 93 78 93 89 108 c 1,11,12
 111 91 111 91 145 91 c 0,13,14
 234 91 234 91 268 167 c 1,15,-1
 268 656 l 2,16,17
 268 734 268 734 190 774 c 2,18,-1
 146 797 l 1,19,20
 235 838 235 838 258 886 c 0,21,22
 268 908 268 908 268 940 c 2,23,-1
 268 1362 l 1,24,25
 234 1439 234 1439 145 1439 c 0,26,27
 111 1439 111 1439 89 1422 c 1,28,29
 78 1437 78 1437 78 1456.5 c 128,-1,30
 78 1476 78 1476 89.5 1493 c 128,-1,31
 101 1510 101 1510 122 1522 c 0,32,33
 167 1550 167 1550 225.5 1550 c 128,-1,34
 284 1550 284 1550 335 1518 c 1,35,36
 380 1550 380 1550 443.5 1550 c 128,-1,37
 507 1550 507 1550 556 1518 c 1,38,39
 603 1550 603 1550 661 1550 c 0,40,41
 746 1550 746 1550 782 1493 c 0,42,43
 794 1475 794 1475 794 1455 c 128,-1,44
 794 1435 794 1435 782 1422 c 1,45,46
 760 1439 760 1439 727 1439 c 0,47,48
 650 1439 650 1439 624 1364 c 1,49,-1
 624 836 l 1,50,-1
 1097 836 l 1,51,-1
 1097 1364 l 1,52,53
 1071 1439 1071 1439 994 1439 c 0,54,55
 961 1439 961 1439 939 1422 c 1,56,57
 927 1435 927 1435 927 1455 c 128,-1,58
 927 1475 927 1475 938.5 1493 c 128,-1,59
 950 1511 950 1511 968 1524 c 0,60,61
 1006 1550 1006 1550 1060 1550 c 0,62,63
 1118 1550 1118 1550 1165 1518 c 1,64,65
 1216 1550 1216 1550 1278.5 1550 c 128,-1,66
 1341 1550 1341 1550 1386 1518 c 1,67,68
 1435 1550 1435 1550 1479 1550 c 128,-1,69
 1523 1550 1523 1550 1551 1542.5 c 128,-1,70
 1579 1535 1579 1535 1600 1522 c 0,71,72
 1643 1496 1643 1496 1643 1457 c 0,73,74
 1643 1437 1643 1437 1632 1422 c 1,75,76
 1610 1439 1610 1439 1576 1439 c 0,77,78
 1487 1439 1487 1439 1453 1362 c 1,79,-1
 1453 940 l 2,80,81
 1453 862 1453 862 1530 819 c 0,82,83
 1552 807 1552 807 1575 797 c 1,84,85
 1515 768 1515 768 1494 750 c 1,86,87
 1453 712 1453 712 1453 656 c 2,88,-1
 1453 167 l 1,89,90
 1487 91 1487 91 1576 91 c 0,91,92
 1610 91 1610 91 1632 108 c 1,93,94
 1643 93 1643 93 1643 73.5 c 128,-1,95
 1643 54 1643 54 1631.5 37 c 128,-1,96
 1620 20 1620 20 1600 8 c 0,97,98
 1554 -20 1554 -20 1494.5 -20 c 128,-1,99
 1435 -20 1435 -20 1386 12 c 1,100,101
 1341 -20 1341 -20 1278.5 -20 c 128,-1,102
 1216 -20 1216 -20 1165 12 c 1,103,104
 1118 -20 1118 -20 1060 -20 c 0,105,106
 975 -20 975 -20 938 37 c 0,107,108
 927 55 927 55 927 75 c 128,-1,109
 927 95 927 95 939 108 c 1,110,111
 961 91 961 91 994 91 c 0,112,113
 1071 91 1071 91 1097 166 c 1,114,-1
 1097 693 l 1,115,-1
 624 693 l 1,116,-1
 624 166 l 1,117,118
 650 91 650 91 727 91 c 0,119,120
 760 91 760 91 782 108 c 1,121,122
 794 95 794 95 794 75 c 128,-1,123
 794 55 794 55 782.5 37 c 128,-1,124
 771 19 771 19 752 6 c 0,125,126
 716 -20 716 -20 661 -20 c 0,127,128
 604 -20 604 -20 556 11 c 1,0,1
1179 656 m 128,-1,130
 1179 408 1179 408 1186 364 c 0,131,132
 1199 280 1199 280 1238 265 c 1,133,-1
 1238 395 l 2,134,135
 1238 661 1238 661 1242 695.5 c 128,-1,136
 1246 730 1246 730 1250 744 c 0,137,138
 1259 779 1259 779 1311 797 c 1,139,140
 1265 811 1265 811 1250 854 c 1,141,142
 1238 902 1238 902 1238 1250 c 1,143,144
 1199 1232 1199 1232 1190 1178 c 0,145,146
 1181 1119 1181 1119 1180 1011.5 c 128,-1,129
 1179 904 1179 904 1179 656 c 128,-1,130
364 265 m 1,147,148
 412 284 412 284 418 396 c 0,149,150
 423 508 423 508 423 706 c 128,-1,151
 423 904 423 904 422.5 969.5 c 128,-1,152
 422 1035 422 1035 421 1075 c 0,153,154
 418 1192 418 1192 399.5 1217 c 128,-1,155
 381 1242 381 1242 364 1250 c 1,156,157
 364 902 364 902 352 854 c 1,158,159
 338 814 338 814 284 797 c 1,160,161
 344 776 344 776 352 746 c 0,162,163
 364 698 364 698 364 395 c 2,164,-1
 364 265 l 1,147,148
EndSplineSet
EndChar

StartChar: I
Encoding: 73 73 63
Width: 898
GlyphClass: 2
Flags: W
LayerCount: 2
Fore
SplineSet
565 12 m 1,0,1
 514 -20 514 -20 449 -20 c 128,-1,2
 384 -20 384 -20 333 12 c 1,3,4
 282 -20 282 -20 238.5 -20 c 128,-1,5
 195 -20 195 -20 167 -12.5 c 128,-1,6
 139 -5 139 -5 118 8 c 0,7,8
 75 34 75 34 75 73 c 0,9,10
 75 93 75 93 86 108 c 1,11,12
 108 91 108 91 142 91 c 0,13,14
 231 91 231 91 265 167 c 1,15,-1
 265 656 l 2,16,17
 265 702 265 702 246 724 c 0,18,19
 216 761 216 761 143 797 c 1,20,21
 211 828 211 828 231 852 c 0,22,23
 265 891 265 891 265 940 c 2,24,-1
 265 1362 l 1,25,26
 231 1439 231 1439 142 1439 c 0,27,28
 108 1439 108 1439 86 1422 c 1,29,30
 75 1437 75 1437 75 1456.5 c 128,-1,31
 75 1476 75 1476 86.5 1493 c 128,-1,32
 98 1510 98 1510 118 1522 c 0,33,34
 164 1550 164 1550 223.5 1550 c 128,-1,35
 283 1550 283 1550 333 1517 c 1,36,37
 385 1550 385 1550 449 1550 c 128,-1,38
 513 1550 513 1550 565 1517 c 1,39,40
 615 1550 615 1550 659 1550 c 128,-1,41
 703 1550 703 1550 731 1542.5 c 128,-1,42
 759 1535 759 1535 780 1522 c 0,43,44
 823 1496 823 1496 823 1457 c 0,45,46
 823 1437 823 1437 812 1422 c 1,47,48
 790 1439 790 1439 756 1439 c 0,49,50
 667 1439 667 1439 633 1362 c 1,51,-1
 633 940 l 2,52,53
 633 891 633 891 654 867 c 0,54,55
 687 828 687 828 755 797 c 1,56,57
 682 761 682 761 662 738 c 1,58,59
 633 702 633 702 633 656 c 2,60,-1
 633 167 l 1,61,62
 667 91 667 91 756 91 c 0,63,64
 790 91 790 91 812 108 c 1,65,66
 823 93 823 93 823 73.5 c 128,-1,67
 823 54 823 54 811.5 37 c 128,-1,68
 800 20 800 20 780 8 c 0,69,70
 734 -20 734 -20 675 -20 c 128,-1,71
 616 -20 616 -20 565 12 c 1,0,1
361 265 m 1,72,73
 411 284 411 284 416 396 c 0,74,75
 422 508 422 508 422 706 c 128,-1,76
 422 904 422 904 421.5 969.5 c 128,-1,77
 421 1035 421 1035 420 1075 c 0,78,79
 417 1193 417 1193 397.5 1217.5 c 128,-1,80
 378 1242 378 1242 361 1250 c 1,81,82
 361 902 361 902 349 854 c 1,83,84
 335 814 335 814 281 797 c 1,85,86
 341 776 341 776 349 746 c 0,87,88
 361 698 361 698 361 395 c 2,89,-1
 361 265 l 1,72,73
EndSplineSet
EndChar

StartChar: J
Encoding: 74 74 64
Width: 1233
GlyphClass: 2
Flags: W
LayerCount: 2
Fore
SplineSet
987 362 m 1,0,1
 1009 301 1009 301 1060 281 c 1,2,3
 1020 268 1020 268 985 234 c 128,-1,4
 950 200 950 200 947 190 c 0,5,6
 915 91 915 91 773 28 c 0,7,8
 642 -30 642 -30 528 -30 c 128,-1,9
 414 -30 414 -30 335.5 -1.5 c 128,-1,10
 257 27 257 27 197 78 c 0,11,12
 65 189 65 189 65 350 c 0,13,14
 65 456 65 456 -6 503 c 1,15,16
 24 552 24 552 78 552 c 0,17,18
 108 552 108 552 136 535 c 1,19,20
 183 595 183 595 314 595 c 0,21,22
 336 595 336 595 345 584 c 1,23,24
 332 569 332 569 339.5 540.5 c 128,-1,25
 347 512 347 512 347 505 c 2,26,-1
 347 493 l 2,27,28
 347 488 347 488 349 483 c 1,29,30
 359 485 359 485 370 485 c 128,-1,31
 381 485 381 485 397.5 479 c 128,-1,32
 414 473 414 473 427 462 c 0,33,34
 457 437 457 437 457 403 c 0,35,36
 457 394 457 394 454 387 c 1,37,38
 436 394 436 394 415 394 c 128,-1,39
 394 394 394 394 373 387 c 128,-1,40
 352 380 352 380 334 364 c 0,41,42
 294 329 294 329 294 262 c 0,43,44
 294 197 294 197 344 150 c 1,45,46
 395 104 395 104 475.5 104 c 128,-1,47
 556 104 556 104 619 151 c 1,48,-1
 619 656 l 2,49,50
 619 702 619 702 600 724 c 0,51,52
 570 761 570 761 497 797 c 1,53,54
 565 828 565 828 585 852 c 0,55,56
 619 891 619 891 619 940 c 2,57,-1
 619 1362 l 1,58,59
 585 1439 585 1439 496 1439 c 0,60,61
 462 1439 462 1439 440 1422 c 1,62,63
 429 1437 429 1437 429 1456.5 c 128,-1,64
 429 1476 429 1476 440.5 1493 c 128,-1,65
 452 1510 452 1510 472 1522 c 0,66,67
 518 1550 518 1550 577.5 1550 c 128,-1,68
 637 1550 637 1550 687 1517 c 1,69,70
 739 1550 739 1550 803 1550 c 128,-1,71
 867 1550 867 1550 919 1517 c 1,72,73
 969 1550 969 1550 1013 1550 c 128,-1,74
 1057 1550 1057 1550 1085 1542.5 c 128,-1,75
 1113 1535 1113 1535 1134 1522 c 0,76,77
 1177 1496 1177 1496 1177 1457 c 0,78,79
 1177 1437 1177 1437 1166 1422 c 1,80,81
 1144 1439 1144 1439 1110 1439 c 0,82,83
 1021 1439 1021 1439 987 1362 c 1,84,-1
 987 940 l 2,85,86
 987 891 987 891 1008 867 c 0,87,88
 1041 828 1041 828 1109 797 c 1,89,90
 1036 761 1036 761 1016 738 c 1,91,92
 987 702 987 702 987 656 c 2,93,-1
 987 362 l 1,0,1
715 265 m 1,94,95
 765 284 765 284 770 396 c 0,96,97
 776 508 776 508 776 706 c 128,-1,98
 776 904 776 904 775.5 969.5 c 128,-1,99
 775 1035 775 1035 774 1075 c 0,100,101
 771 1193 771 1193 751.5 1217.5 c 128,-1,102
 732 1242 732 1242 715 1250 c 1,103,104
 715 902 715 902 703 854 c 1,105,106
 689 814 689 814 635 797 c 1,107,108
 695 776 695 776 703 746 c 0,109,110
 715 698 715 698 715 395 c 2,111,-1
 715 265 l 1,94,95
EndSplineSet
EndChar

StartChar: K
Encoding: 75 75 65
Width: 1541
GlyphClass: 2
Flags: W
LayerCount: 2
Fore
SplineSet
553 11 m 1,0,1
 503 -20 503 -20 440 -20 c 128,-1,2
 377 -20 377 -20 332 12 c 1,3,4
 281 -20 281 -20 238 -20 c 128,-1,5
 195 -20 195 -20 167 -12.5 c 128,-1,6
 139 -5 139 -5 118 8 c 0,7,8
 75 34 75 34 75 73 c 0,9,10
 75 93 75 93 86 108 c 1,11,12
 108 91 108 91 142 91 c 0,13,14
 231 91 231 91 265 167 c 1,15,-1
 265 656 l 2,16,17
 265 734 265 734 187 774 c 2,18,-1
 143 797 l 1,19,20
 232 838 232 838 254 886 c 0,21,22
 265 908 265 908 265 940 c 2,23,-1
 265 1362 l 1,24,25
 231 1439 231 1439 142 1439 c 0,26,27
 108 1439 108 1439 86 1422 c 1,28,29
 75 1437 75 1437 75 1456.5 c 128,-1,30
 75 1476 75 1476 86.5 1493 c 128,-1,31
 98 1510 98 1510 118 1522 c 0,32,33
 164 1550 164 1550 222.5 1550 c 128,-1,34
 281 1550 281 1550 332 1518 c 1,35,36
 377 1550 377 1550 440.5 1550 c 128,-1,37
 504 1550 504 1550 553 1518 c 1,38,39
 600 1550 600 1550 658 1550 c 0,40,41
 743 1550 743 1550 780 1493 c 0,42,43
 791 1475 791 1475 791 1455 c 128,-1,44
 791 1435 791 1435 779 1422 c 1,45,46
 757 1439 757 1439 724 1439 c 0,47,48
 647 1439 647 1439 621 1364 c 1,49,-1
 621 850 l 1,50,-1
 1081 1395 l 1,51,52
 1081 1440 1081 1440 1031 1440 c 128,-1,53
 981 1440 981 1440 948 1421 c 1,54,55
 937 1439 937 1439 937 1467.5 c 128,-1,56
 937 1496 937 1496 967 1523 c 128,-1,57
 997 1550 997 1550 1050.5 1550 c 128,-1,58
 1104 1550 1104 1550 1139 1524 c 1,59,60
 1174 1550 1174 1550 1217 1550 c 128,-1,61
 1260 1550 1260 1550 1294 1523 c 1,62,63
 1328 1550 1328 1550 1363 1550 c 128,-1,64
 1398 1550 1398 1550 1418.5 1543.5 c 128,-1,65
 1439 1537 1439 1537 1454 1526 c 0,66,67
 1489 1500 1489 1500 1489 1468 c 128,-1,68
 1489 1436 1489 1436 1479 1421 c 1,69,70
 1458 1428 1458 1428 1431 1428 c 0,71,72
 1376 1428 1376 1428 1350.5 1417 c 128,-1,73
 1325 1406 1325 1406 1301.5 1392 c 128,-1,74
 1278 1378 1278 1378 1254 1360 c 2,75,-1
 1208 1326 l 2,76,77
 1185 1308 1185 1308 1171 1293 c 2,78,-1
 942 1024 l 1,79,-1
 1363 258 l 2,80,81
 1441 118 1441 118 1488 98 c 0,82,83
 1505 91 1505 91 1532 91 c 128,-1,84
 1559 91 1559 91 1581 108 c 1,85,86
 1592 93 1592 93 1592 73.5 c 128,-1,87
 1592 54 1592 54 1581 37 c 128,-1,88
 1570 20 1570 20 1552 8 c 0,89,90
 1511 -20 1511 -20 1448 -20 c 128,-1,91
 1385 -20 1385 -20 1334 12 c 1,92,93
 1283 -20 1283 -20 1218 -20 c 128,-1,94
 1153 -20 1153 -20 1102 12 c 1,95,96
 1051 -20 1051 -20 990.5 -20 c 128,-1,97
 930 -20 930 -20 896.5 7.5 c 128,-1,98
 863 35 863 35 863 73 c 0,99,100
 863 93 863 93 874 108 c 1,101,102
 896 91 896 91 930 91 c 0,103,104
 993 91 993 91 1023 140 c 1,105,-1
 714 758 l 1,106,-1
 621 649 l 1,107,-1
 621 166 l 1,108,109
 647 91 647 91 724 91 c 0,110,111
 757 91 757 91 779 108 c 1,112,113
 791 95 791 95 791 75 c 128,-1,114
 791 55 791 55 779.5 37 c 128,-1,115
 768 19 768 19 750 6 c 0,116,117
 712 -20 712 -20 658 -20 c 0,118,119
 601 -20 601 -20 553 11 c 1,0,1
359 265 m 1,120,121
 409 284 409 284 414 396 c 0,122,123
 420 508 420 508 420 706 c 128,-1,124
 420 904 420 904 419.5 969.5 c 128,-1,125
 419 1035 419 1035 418 1075 c 0,126,127
 415 1193 415 1193 395.5 1217.5 c 128,-1,128
 376 1242 376 1242 359 1250 c 1,129,130
 359 902 359 902 347 854 c 1,131,132
 333 814 333 814 279 797 c 1,133,134
 339 776 339 776 347 746 c 0,135,136
 359 698 359 698 359 395 c 2,137,-1
 359 265 l 1,120,121
1064 265 m 1,138,139
 1076 281 1076 281 1076 312 c 0,140,141
 1076 380 1076 380 1029 467 c 1,142,-1
 834 867 l 1,143,-1
 789 820 l 1,144,-1
 1064 265 l 1,138,139
EndSplineSet
EndChar

StartChar: L
Encoding: 76 76 66
Width: 1351
GlyphClass: 2
Flags: W
LayerCount: 2
Fore
SplineSet
450 -20 m 256,0,1
 384 -20 384 -20 333 12 c 1,2,3
 282 -20 282 -20 238.5 -20 c 128,-1,4
 195 -20 195 -20 167 -12.5 c 128,-1,5
 139 -5 139 -5 118 8 c 0,6,7
 75 34 75 34 75 73 c 0,8,9
 75 93 75 93 86 108 c 1,10,11
 108 91 108 91 142 91 c 0,12,13
 231 91 231 91 265 167 c 1,14,-1
 265 656 l 2,15,16
 265 702 265 702 246 724 c 0,17,18
 216 761 216 761 143 797 c 1,19,20
 211 828 211 828 231 852 c 0,21,22
 265 891 265 891 265 940 c 2,23,-1
 265 1362 l 1,24,25
 231 1439 231 1439 142 1439 c 0,26,27
 108 1439 108 1439 86 1422 c 1,28,29
 75 1437 75 1437 75 1456.5 c 128,-1,30
 75 1476 75 1476 86.5 1493 c 128,-1,31
 98 1510 98 1510 118 1522 c 0,32,33
 164 1550 164 1550 223.5 1550 c 128,-1,34
 283 1550 283 1550 333 1517 c 1,35,36
 385 1550 385 1550 449 1550 c 128,-1,37
 513 1550 513 1550 565 1517 c 1,38,39
 621 1550 621 1550 667 1550 c 128,-1,40
 713 1550 713 1550 741 1542.5 c 128,-1,41
 769 1535 769 1535 790 1522 c 0,42,43
 833 1496 833 1496 833 1457 c 0,44,45
 833 1437 833 1437 822 1422 c 1,46,47
 800 1439 800 1439 763 1439 c 128,-1,48
 726 1439 726 1439 688.5 1419.5 c 128,-1,49
 651 1400 651 1400 633 1361 c 1,50,-1
 633 940 l 2,51,52
 633 891 633 891 654 867 c 0,53,54
 687 828 687 828 755 797 c 1,55,56
 682 761 682 761 662 738 c 1,57,58
 633 702 633 702 633 656 c 2,59,-1
 633 219 l 1,60,61
 699 114 699 114 798 114 c 0,62,63
 1043 114 1043 114 1113 322 c 0,64,65
 1144 414 1144 414 1144 490.5 c 128,-1,66
 1144 567 1144 567 1123 593 c 1,67,68
 1146 612 1146 612 1170.5 612 c 128,-1,69
 1195 612 1195 612 1216 602 c 128,-1,70
 1237 592 1237 592 1254 572 c 0,71,72
 1289 531 1289 531 1289 475 c 128,-1,73
 1289 419 1289 419 1280 389 c 1,74,75
 1326 351 1326 351 1326 282 c 128,-1,76
 1326 213 1326 213 1287 170 c 1,77,78
 1320 128 1320 128 1320 94 c 128,-1,79
 1320 60 1320 60 1310.5 35.5 c 128,-1,80
 1301 11 1301 11 1284 -8 c 1,81,82
 1246 -47 1246 -47 1193 -47 c 0,83,84
 1167 -47 1167 -47 1145 -36 c 1,85,86
 1149 -14 1149 -14 1149 8 c 0,87,88
 1149 54 1149 54 1107 54 c 0,89,90
 1076 54 1076 54 1021 29 c 0,91,92
 915 -20 915 -20 779.5 -20 c 128,-1,93
 644 -20 644 -20 568 15 c 1,94,95
 516 -20 516 -20 450 -20 c 256,0,1
361 265 m 1,96,97
 411 284 411 284 416 396 c 0,98,99
 422 508 422 508 422 706 c 128,-1,100
 422 904 422 904 421.5 969.5 c 128,-1,101
 421 1035 421 1035 420 1075 c 0,102,103
 417 1193 417 1193 397.5 1217.5 c 128,-1,104
 378 1242 378 1242 361 1250 c 1,105,106
 361 902 361 902 349 854 c 1,107,108
 335 814 335 814 281 797 c 1,109,110
 341 776 341 776 349 746 c 0,111,112
 361 698 361 698 361 395 c 2,113,-1
 361 265 l 1,96,97
EndSplineSet
EndChar

StartChar: M
Encoding: 77 77 67
Width: 2094
GlyphClass: 2
Flags: W
LayerCount: 2
Fore
SplineSet
255 7 m 1,0,1
 218 -20 218 -20 170.5 -20 c 128,-1,2
 123 -20 123 -20 94.5 4.5 c 128,-1,3
 66 29 66 29 66 61 c 128,-1,4
 66 93 66 93 76 108 c 1,5,6
 105 91 105 91 168 91 c 0,7,8
 193 91 193 91 223 116.5 c 128,-1,9
 253 142 253 142 271 187 c 1,10,-1
 271 656 l 2,11,12
 271 703 271 703 251 726 c 0,13,14
 221 762 221 762 149 797 c 1,15,16
 222 832 222 832 241 855 c 0,17,18
 271 893 271 893 271 940 c 2,19,-1
 272 1376 l 1,20,21
 248 1439 248 1439 166 1439 c 0,22,23
 124 1439 124 1439 104 1422 c 1,24,25
 94 1435 94 1435 94 1456 c 128,-1,26
 94 1477 94 1477 103 1494 c 128,-1,27
 112 1511 112 1511 128 1524 c 0,28,29
 162 1550 162 1550 219 1550 c 128,-1,30
 276 1550 276 1550 313 1517 c 1,31,32
 346 1550 346 1550 390 1550 c 128,-1,33
 434 1550 434 1550 465 1513 c 1,34,35
 504 1550 504 1550 534 1550 c 128,-1,36
 564 1550 564 1550 580 1545 c 128,-1,37
 596 1540 596 1540 612 1526 c 1,38,39
 644 1501 644 1501 679 1425 c 1,40,-1
 1062 630 l 1,41,-1
 1378 1409 l 1,42,-1
 1406 1474 l 1,43,44
 1431 1529 1431 1529 1453 1539.5 c 128,-1,45
 1475 1550 1475 1550 1504.5 1550 c 128,-1,46
 1534 1550 1534 1550 1565 1528 c 1,47,48
 1603 1550 1603 1550 1664.5 1550 c 128,-1,49
 1726 1550 1726 1550 1771 1517 c 1,50,51
 1811 1550 1811 1550 1854.5 1550 c 128,-1,52
 1898 1550 1898 1550 1922.5 1543 c 128,-1,53
 1947 1536 1947 1536 1965 1524 c 0,54,55
 2003 1497 2003 1497 2003 1457 c 0,56,57
 2003 1437 2003 1437 1992 1422 c 1,58,59
 1970 1439 1970 1439 1936 1439 c 0,60,61
 1860 1439 1860 1439 1833 1368 c 1,62,-1
 1833 940 l 2,63,64
 1833 891 1833 891 1854 867 c 0,65,66
 1887 828 1887 828 1955 797 c 1,67,68
 1882 761 1882 761 1862 738 c 1,69,70
 1833 702 1833 702 1833 656 c 2,71,-1
 1833 167 l 1,72,73
 1867 91 1867 91 1956 91 c 0,74,75
 1990 91 1990 91 2012 108 c 1,76,77
 2023 93 2023 93 2023 73.5 c 128,-1,78
 2023 54 2023 54 2011.5 37 c 128,-1,79
 2000 20 2000 20 1980 8 c 0,80,81
 1934 -20 1934 -20 1875 -20 c 128,-1,82
 1816 -20 1816 -20 1765 12 c 1,83,84
 1718 -20 1718 -20 1658 -20 c 0,85,86
 1594 -20 1594 -20 1545 12 c 1,87,88
 1494 -20 1494 -20 1450.5 -20 c 128,-1,89
 1407 -20 1407 -20 1379 -12.5 c 128,-1,90
 1351 -5 1351 -5 1330 8 c 0,91,92
 1287 34 1287 34 1287 73 c 0,93,94
 1287 93 1287 93 1298 108 c 1,95,96
 1320 91 1320 91 1354 91 c 0,97,98
 1443 91 1443 91 1477 167 c 1,99,-1
 1477 1260 l 1,100,-1
 1087 294 l 1,101,-1
 1044 196 l 2,102,103
 1013 126 1013 126 1000.5 117 c 128,-1,104
 988 108 988 108 980 108 c 0,105,106
 955 108 955 108 945 113 c 1,107,-1
 411 1166 l 1,108,-1
 411 188 l 1,109,110
 430 142 430 142 463 116.5 c 128,-1,111
 496 91 496 91 537 91 c 128,-1,112
 578 91 578 91 607 108 c 1,113,114
 618 90 618 90 618 58.5 c 128,-1,115
 618 27 618 27 587 3.5 c 128,-1,116
 556 -20 556 -20 507 -20 c 128,-1,117
 458 -20 458 -20 417 5 c 1,118,119
 381 -20 381 -20 334.5 -20 c 128,-1,120
 288 -20 288 -20 255 7 c 1,0,1
552 1251 m 1,121,122
 542 1236 542 1236 542 1208 c 0,123,124
 542 1127 542 1127 610 993 c 2,125,-1
 974 266 l 1,126,127
 981 275 981 275 981 304 c 0,128,129
 981 391 981 391 898 559 c 2,130,-1
 552 1251 l 1,121,122
1573 265 m 1,131,132
 1623 284 1623 284 1628 396 c 0,133,134
 1634 508 1634 508 1634 706 c 128,-1,135
 1634 904 1634 904 1633.5 969.5 c 128,-1,136
 1633 1035 1633 1035 1632 1075 c 0,137,138
 1629 1193 1629 1193 1609.5 1217.5 c 128,-1,139
 1590 1242 1590 1242 1573 1250 c 1,140,-1
 1573 265 l 1,131,132
397 252 m 2,141,142
 397 244 397 244 398 240 c 2,143,-1
 397 252 l 2,141,142
285 252 m 2,144,145
 284 248 284 248 284 240 c 2,146,-1
 285 252 l 2,144,145
EndSplineSet
EndChar

StartChar: N
Encoding: 78 78 68
Width: 1658
GlyphClass: 2
Flags: W
LayerCount: 2
Fore
SplineSet
254 7 m 1,0,1
 217 -20 217 -20 169.5 -20 c 128,-1,2
 122 -20 122 -20 93.5 4.5 c 128,-1,3
 65 29 65 29 65 61 c 128,-1,4
 65 93 65 93 75 108 c 1,5,6
 104 91 104 91 166.5 91 c 128,-1,7
 229 91 229 91 270 176 c 1,8,-1
 270 656 l 2,9,10
 270 703 270 703 250 726 c 0,11,12
 220 762 220 762 148 797 c 1,13,14
 221 832 221 832 240 855 c 0,15,16
 270 893 270 893 270 940 c 2,17,-1
 270 1362 l 1,18,19
 236 1439 236 1439 147 1439 c 0,20,21
 113 1439 113 1439 91 1422 c 1,22,23
 80 1437 80 1437 80 1457 c 128,-1,24
 80 1477 80 1477 90 1494 c 128,-1,25
 100 1511 100 1511 116 1524 c 0,26,27
 151 1550 151 1550 210.5 1550 c 128,-1,28
 270 1550 270 1550 312 1517 c 1,29,30
 340 1550 340 1550 389 1550 c 128,-1,31
 438 1550 438 1550 468 1516 c 1,32,33
 497 1550 497 1550 527.5 1550 c 128,-1,34
 558 1550 558 1550 573.5 1544 c 128,-1,35
 589 1538 589 1538 600 1528 c 0,36,37
 616 1515 616 1515 636 1477 c 2,38,-1
 1256 360 l 1,39,-1
 1256 665 l 2,40,41
 1256 709 1256 709 1237 730 c 0,42,43
 1208 761 1208 761 1134 797 c 1,44,45
 1203 831 1203 831 1223 852 c 0,46,47
 1256 887 1256 887 1256 930 c 2,48,-1
 1256 1349 l 1,49,50
 1233 1391 1233 1391 1199.5 1415 c 128,-1,51
 1166 1439 1166 1439 1123.5 1439 c 128,-1,52
 1081 1439 1081 1439 1052 1422 c 1,53,54
 1041 1440 1041 1440 1041 1471.5 c 128,-1,55
 1041 1503 1041 1503 1072 1526.5 c 128,-1,56
 1103 1550 1103 1550 1153 1550 c 128,-1,57
 1203 1550 1203 1550 1242 1524 c 1,58,59
 1277 1550 1277 1550 1322.5 1550 c 128,-1,60
 1368 1550 1368 1550 1403 1523 c 1,61,62
 1442 1550 1442 1550 1489 1550 c 128,-1,63
 1536 1550 1536 1550 1564.5 1525.5 c 128,-1,64
 1593 1501 1593 1501 1593 1469 c 128,-1,65
 1593 1437 1593 1437 1583 1422 c 1,66,67
 1554 1439 1554 1439 1490 1439 c 128,-1,68
 1426 1439 1426 1439 1388 1353 c 1,69,-1
 1388 930 l 2,70,71
 1388 887 1388 887 1406 867 c 0,72,73
 1436 834 1436 834 1510 797 c 1,74,75
 1429 753 1429 753 1413 736 c 0,76,77
 1388 709 1388 709 1388 665 c 1,78,-1
 1406 157 l 1,79,80
 1442 91 1442 91 1519 91 c 0,81,82
 1553 91 1553 91 1575 108 c 1,83,84
 1586 93 1586 93 1586 73 c 128,-1,85
 1586 53 1586 53 1576 36 c 128,-1,86
 1566 19 1566 19 1550 6 c 0,87,88
 1515 -20 1515 -20 1465 -20 c 128,-1,89
 1415 -20 1415 -20 1375 0 c 1,90,91
 1296 -45 1296 -45 1214 7 c 1,92,93
 1182 -20 1182 -20 1153 -20 c 128,-1,94
 1124 -20 1124 -20 1110 -15 c 128,-1,95
 1096 -10 1096 -10 1084 3 c 0,96,97
 1065 22 1065 22 1025 98 c 1,98,-1
 410 1158 l 1,99,-1
 410 176 l 1,100,101
 451 91 451 91 514 91 c 128,-1,102
 577 91 577 91 606 108 c 1,103,104
 617 90 617 90 617 58.5 c 128,-1,105
 617 27 617 27 586 3.5 c 128,-1,106
 555 -20 555 -20 506 -20 c 128,-1,107
 457 -20 457 -20 416 5 c 1,108,109
 380 -20 380 -20 333.5 -20 c 128,-1,110
 287 -20 287 -20 254 7 c 1,0,1
1036 265 m 1,111,112
 1043 274 1043 274 1043 293.5 c 128,-1,113
 1043 313 1043 313 1037.5 337.5 c 128,-1,114
 1032 362 1032 362 1022 390 c 0,115,116
 1001 446 1001 446 967 510 c 1,117,-1
 543 1250 l 1,118,119
 536 1239 536 1239 536 1210 c 0,120,121
 536 1148 536 1148 621 993 c 1,122,-1
 1036 265 l 1,111,112
EndSplineSet
EndChar

StartChar: O
Encoding: 79 79 69
Width: 1575
GlyphClass: 2
Flags: W
LayerCount: 2
Fore
SplineSet
215.5 355 m 128,-1,1
 164 476 164 476 152 584 c 128,-1,2
 140 692 140 692 115.5 733.5 c 128,-1,3
 91 775 91 775 46 797 c 1,4,5
 133 838 133 838 148.5 965.5 c 128,-1,6
 164 1093 164 1093 219 1204 c 128,-1,7
 274 1315 274 1315 359 1394 c 0,8,9
 538 1560 538 1560 790 1560 c 0,10,11
 1049 1560 1049 1560 1219 1406 c 0,12,13
 1396 1246 1396 1246 1427 958 c 0,14,15
 1440 838 1440 838 1529 797 c 1,16,17
 1442 754 1442 754 1426 615 c 128,-1,18
 1410 476 1410 476 1363 355 c 128,-1,19
 1316 234 1316 234 1237 148 c 0,20,21
 1072 -30 1072 -30 791 -30 c 0,22,23
 522 -30 522 -30 350 148 c 0,24,0
 267 234 267 234 215.5 355 c 128,-1,1
677 797 m 1,25,26
 567 744 567 744 567 624 c 2,27,-1
 567 327 l 2,28,29
 567 164 567 164 702 118 c 0,30,31
 742 104 742 104 789 104 c 128,-1,32
 836 104 836 104 875.5 118 c 128,-1,33
 915 132 915 132 944 160 c 0,34,35
 1004 218 1004 218 1004 327 c 2,36,-1
 1004 624 l 2,37,38
 1004 744 1004 744 896 797 c 1,39,40
 1004 847 1004 847 1004 958 c 2,41,-1
 1004 1197 l 2,42,43
 1004 1308 1004 1308 939 1370 c 0,44,45
 878 1427 878 1427 788 1427 c 0,46,47
 635 1427 635 1427 584 1299 c 0,48,49
 567 1256 567 1256 567 1197 c 2,50,-1
 567 958 l 2,51,52
 567 845 567 845 677 797 c 1,25,26
1096 1250 m 1,53,54
 1124 1166 1124 1166 1124 961 c 0,55,56
 1124 845 1124 845 1114 834 c 128,-1,57
 1104 823 1104 823 1094 816 c 0,58,59
 1076 804 1076 804 1055 797 c 1,60,61
 1115 770 1115 770 1118 745 c 0,62,63
 1128 647 1128 647 1128 575.5 c 128,-1,64
 1128 504 1128 504 1126 460.5 c 128,-1,65
 1124 417 1124 417 1120 380 c 0,66,67
 1112 301 1112 301 1100 265 c 1,68,69
 1178 289 1178 289 1187 496 c 0,70,71
 1192 612 1192 612 1192 754.5 c 128,-1,72
 1192 897 1192 897 1189 968.5 c 128,-1,73
 1186 1040 1186 1040 1180 1086 c 0,74,75
 1168 1192 1168 1192 1130 1233 c 0,76,77
 1119 1245 1119 1245 1096 1250 c 1,53,54
375 265 m 1,78,79
 390 271 390 271 390 286 c 0,80,81
 390 308 390 308 369 355 c 0,82,83
 316 476 316 476 316 797 c 0,84,85
 316 1031 316 1031 372 1195 c 1,86,87
 379 1220 379 1220 379 1233 c 128,-1,88
 379 1246 379 1246 366 1250 c 1,89,90
 319 1191 319 1191 299 1133 c 0,91,92
 262 1027 262 1027 240 846 c 0,93,94
 237 820 237 820 181 797 c 1,95,96
 237 772 237 772 240 746 c 0,97,98
 276 436 276 436 332 332 c 0,99,100
 351 295 351 295 375 265 c 1,78,79
EndSplineSet
EndChar

StartChar: P
Encoding: 80 80 70
Width: 1424
GlyphClass: 2
Flags: W
LayerCount: 2
Fore
SplineSet
565 13 m 1,0,1
 513 -20 513 -20 448.5 -20 c 128,-1,2
 384 -20 384 -20 333 12 c 1,3,4
 282 -20 282 -20 238.5 -20 c 128,-1,5
 195 -20 195 -20 167 -12.5 c 128,-1,6
 139 -5 139 -5 118 8 c 0,7,8
 75 34 75 34 75 73 c 0,9,10
 75 93 75 93 86 108 c 1,11,12
 108 91 108 91 142 91 c 0,13,14
 231 91 231 91 265 167 c 1,15,-1
 265 656 l 2,16,17
 265 702 265 702 246 724 c 0,18,19
 216 761 216 761 143 797 c 1,20,21
 211 828 211 828 231 852 c 0,22,23
 265 891 265 891 265 940 c 2,24,-1
 265 1362 l 1,25,26
 231 1439 231 1439 142 1439 c 0,27,28
 108 1439 108 1439 86 1422 c 1,29,30
 75 1437 75 1437 75 1456.5 c 128,-1,31
 75 1476 75 1476 86.5 1493 c 128,-1,32
 98 1510 98 1510 118 1522 c 0,33,34
 164 1550 164 1550 223.5 1550 c 128,-1,35
 283 1550 283 1550 333 1517 c 1,36,37
 385 1550 385 1550 448.5 1550 c 128,-1,38
 512 1550 512 1550 563 1518 c 1,39,40
 662 1560 662 1560 786.5 1560 c 128,-1,41
 911 1560 911 1560 1002 1531 c 128,-1,42
 1093 1502 1093 1502 1166 1450 c 0,43,44
 1318 1342 1318 1342 1367 1165 c 0,45,46
 1387 1096 1387 1096 1462 1052 c 1,47,48
 1385 1009 1385 1009 1359 922 c 128,-1,49
 1333 835 1333 835 1272.5 760.5 c 128,-1,50
 1212 686 1212 686 1134 636 c 0,51,52
 975 534 975 534 796 534 c 0,53,54
 718 534 718 534 633 554 c 1,55,-1
 633 172 l 1,56,57
 660 114 660 114 744 96 c 0,58,59
 766 91 766 91 793 91 c 128,-1,60
 820 91 820 91 842 108 c 1,61,62
 853 93 853 93 853 73.5 c 128,-1,63
 853 54 853 54 838.5 37 c 128,-1,64
 824 20 824 20 800 8 c 0,65,66
 747 -20 747 -20 684 -20 c 128,-1,67
 621 -20 621 -20 565 13 c 1,0,1
633 815 m 2,68,69
 633 747 633 747 683 706 c 0,70,71
 729 668 729 668 801 668 c 0,72,73
 911 668 911 668 960 752 c 0,74,75
 977 781 977 781 977 823 c 2,76,-1
 977 1275 l 2,77,78
 977 1347 977 1347 922 1388 c 0,79,80
 872 1426 872 1426 822.5 1426 c 128,-1,81
 773 1426 773 1426 741.5 1416.5 c 128,-1,82
 710 1407 710 1407 686 1388 c 0,83,84
 633 1346 633 1346 633 1271 c 2,85,-1
 633 815 l 2,68,69
1042 712 m 1,86,87
 1065 716 1065 716 1089.5 768 c 128,-1,88
 1114 820 1114 820 1126.5 890.5 c 128,-1,89
 1139 961 1139 961 1158 994.5 c 128,-1,90
 1177 1028 1177 1028 1219 1042 c 1,91,92
 1150 1065 1150 1065 1132 1164.5 c 128,-1,93
 1114 1264 1114 1264 1089.5 1311 c 128,-1,94
 1065 1358 1065 1358 1042 1362 c 1,95,96
 1079 1279 1079 1279 1079 1042 c 0,97,98
 1079 884 1079 884 1063 804 c 128,-1,99
 1047 724 1047 724 1042 712 c 1,86,87
361 265 m 1,100,101
 411 284 411 284 416 396 c 0,102,103
 422 508 422 508 422 706 c 128,-1,104
 422 904 422 904 421.5 969.5 c 128,-1,105
 421 1035 421 1035 420 1075 c 0,106,107
 417 1193 417 1193 397.5 1217.5 c 128,-1,108
 378 1242 378 1242 361 1250 c 1,109,110
 361 902 361 902 349 854 c 1,111,112
 335 814 335 814 281 797 c 1,113,114
 341 776 341 776 349 746 c 0,115,116
 361 698 361 698 361 395 c 2,117,-1
 361 265 l 1,100,101
EndSplineSet
EndChar

StartChar: Q
Encoding: 81 81 71
Width: 1575
GlyphClass: 2
Flags: W
LayerCount: 2
Fore
SplineSet
1574 -152 m 1,0,1
 1610 -127 1610 -127 1626 -87 c 1,2,3
 1663 -87 1663 -87 1682 -132 c 0,4,5
 1688 -145 1688 -145 1688 -170.5 c 128,-1,6
 1688 -196 1688 -196 1671 -228 c 128,-1,7
 1654 -260 1654 -260 1626 -284 c 1,8,9
 1565 -333 1565 -333 1487 -333 c 0,10,11
 1413 -333 1413 -333 1360 -312 c 0,12,13
 1275 -279 1275 -279 1170 -215.5 c 128,-1,14
 1065 -152 1065 -152 1010.5 -126.5 c 128,-1,15
 956 -101 956 -101 908 -86 c 0,16,17
 825 -60 825 -60 734 -60 c 0,18,19
 555 -60 555 -60 526 -285 c 1,20,21
 471 -285 471 -285 428 -244 c 0,22,23
 389 -206 389 -206 389 -156 c 0,24,25
 389 -25 389 -25 535 20 c 1,26,27
 288 127 288 127 192 419 c 0,28,29
 160 514 160 514 150 603 c 128,-1,30
 140 692 140 692 115.5 733.5 c 128,-1,31
 91 775 91 775 46 797 c 1,32,33
 133 838 133 838 148.5 965.5 c 128,-1,34
 164 1093 164 1093 219 1204 c 128,-1,35
 274 1315 274 1315 359 1394 c 0,36,37
 538 1560 538 1560 790 1560 c 0,38,39
 1049 1560 1049 1560 1219 1406 c 0,40,41
 1396 1246 1396 1246 1427 958 c 0,42,43
 1440 838 1440 838 1529 797 c 1,44,45
 1442 754 1442 754 1428 630.5 c 128,-1,46
 1414 507 1414 507 1382 407.5 c 128,-1,47
 1350 308 1350 308 1298 228 c 0,48,49
 1193 65 1193 65 1013 4 c 1,50,51
 1042 -4 1042 -4 1074 -15 c 2,52,-1
 1138 -38 l 1,53,54
 1185 -56 1185 -56 1226 -69 c 1,55,56
 1311 -69 1311 -69 1350 -12 c 1,57,58
 1373 -19 1373 -19 1391 -36 c 128,-1,59
 1409 -53 1409 -53 1409 -70 c 128,-1,60
 1409 -87 1409 -87 1406 -99 c 1,61,62
 1443 -92 1443 -92 1466.5 -68 c 128,-1,63
 1490 -44 1490 -44 1497 -14 c 1,64,65
 1527 -20 1527 -20 1546 -39 c 0,66,67
 1578 -73 1578 -73 1578 -100 c 0,68,69
 1578 -135 1578 -135 1574 -152 c 1,0,1
677 797 m 1,70,71
 567 744 567 744 567 624 c 2,72,-1
 567 327 l 2,73,74
 567 164 567 164 702 118 c 0,75,76
 742 104 742 104 789 104 c 128,-1,77
 836 104 836 104 875.5 118 c 128,-1,78
 915 132 915 132 944 160 c 0,79,80
 1004 218 1004 218 1004 327 c 2,81,-1
 1004 624 l 2,82,83
 1004 744 1004 744 896 797 c 1,84,85
 1004 847 1004 847 1004 958 c 2,86,-1
 1004 1197 l 2,87,88
 1004 1308 1004 1308 939 1370 c 0,89,90
 878 1427 878 1427 788 1427 c 0,91,92
 635 1427 635 1427 584 1299 c 0,93,94
 567 1256 567 1256 567 1197 c 2,95,-1
 567 958 l 2,96,97
 567 845 567 845 677 797 c 1,70,71
1096 1250 m 1,98,99
 1124 1166 1124 1166 1124 961 c 0,100,101
 1124 845 1124 845 1114 834 c 128,-1,102
 1104 823 1104 823 1094 816 c 0,103,104
 1076 804 1076 804 1055 797 c 1,105,106
 1115 770 1115 770 1118 745 c 0,107,108
 1128 647 1128 647 1128 575.5 c 128,-1,109
 1128 504 1128 504 1126 460.5 c 128,-1,110
 1124 417 1124 417 1120 380 c 0,111,112
 1112 301 1112 301 1100 265 c 1,113,114
 1178 289 1178 289 1187 496 c 0,115,116
 1192 612 1192 612 1192 754.5 c 128,-1,117
 1192 897 1192 897 1189 968.5 c 128,-1,118
 1186 1040 1186 1040 1180 1086 c 0,119,120
 1168 1192 1168 1192 1130 1233 c 0,121,122
 1119 1245 1119 1245 1096 1250 c 1,98,99
375 265 m 1,123,124
 390 271 390 271 390 286 c 0,125,126
 390 308 390 308 369 355 c 0,127,128
 316 476 316 476 316 797 c 0,129,130
 316 1031 316 1031 372 1195 c 1,131,132
 379 1220 379 1220 379 1233 c 128,-1,133
 379 1246 379 1246 366 1250 c 1,134,135
 319 1191 319 1191 299 1133 c 0,136,137
 262 1027 262 1027 240 846 c 0,138,139
 237 820 237 820 181 797 c 1,140,141
 237 772 237 772 240 746 c 0,142,143
 276 436 276 436 332 332 c 0,144,145
 351 295 351 295 375 265 c 1,123,124
EndSplineSet
EndChar

StartChar: R
Encoding: 82 82 72
Width: 1553
GlyphClass: 2
Flags: W
LayerCount: 2
Fore
SplineSet
565 12 m 1,0,1
 514 -20 514 -20 449 -20 c 128,-1,2
 384 -20 384 -20 333 12 c 1,3,4
 282 -20 282 -20 238.5 -20 c 128,-1,5
 195 -20 195 -20 167 -12.5 c 128,-1,6
 139 -5 139 -5 118 8 c 0,7,8
 75 34 75 34 75 73 c 0,9,10
 75 93 75 93 86 108 c 1,11,12
 108 91 108 91 142 91 c 0,13,14
 231 91 231 91 265 167 c 1,15,-1
 265 656 l 2,16,17
 265 702 265 702 246 724 c 0,18,19
 216 761 216 761 143 797 c 1,20,21
 211 828 211 828 231 852 c 0,22,23
 265 891 265 891 265 940 c 2,24,-1
 265 1362 l 1,25,26
 231 1439 231 1439 142 1439 c 0,27,28
 108 1439 108 1439 86 1422 c 1,29,30
 75 1437 75 1437 75 1456.5 c 128,-1,31
 75 1476 75 1476 86.5 1493 c 128,-1,32
 98 1510 98 1510 118 1522 c 0,33,34
 164 1550 164 1550 223.5 1550 c 128,-1,35
 283 1550 283 1550 333 1517 c 1,36,37
 385 1550 385 1550 449 1550 c 128,-1,38
 513 1550 513 1550 565 1517 c 1,39,40
 678 1560 678 1560 815.5 1560 c 128,-1,41
 953 1560 953 1560 1046 1535 c 128,-1,42
 1139 1510 1139 1510 1206 1464 c 0,43,44
 1341 1371 1341 1371 1374 1205 c 1,45,46
 1387 1131 1387 1131 1469 1093 c 1,47,48
 1391 1049 1391 1049 1367 953 c 0,49,50
 1318 755 1318 755 1122 706 c 1,51,52
 1223 679 1223 679 1287 595 c 0,53,54
 1353 508 1353 508 1353 390 c 2,55,-1
 1353 290 l 2,56,57
 1353 146 1353 146 1446 104 c 0,58,59
 1474 91 1474 91 1507 91 c 128,-1,60
 1540 91 1540 91 1562 108 c 1,61,62
 1573 93 1573 93 1573 73.5 c 128,-1,63
 1573 54 1573 54 1563 37 c 128,-1,64
 1553 20 1553 20 1536 8 c 0,65,66
 1500 -20 1500 -20 1452 -20 c 128,-1,67
 1404 -20 1404 -20 1358 6 c 1,68,69
 1274 -40 1274 -40 1201 -3 c 1,70,71
 1173 -20 1173 -20 1142 -20 c 128,-1,72
 1111 -20 1111 -20 1082.5 -6 c 128,-1,73
 1054 8 1054 8 1032 40 c 0,74,75
 985 109 985 109 985 252 c 2,76,-1
 985 326 l 2,77,78
 985 557 985 557 853 626 c 0,79,80
 809 649 809 649 750 649 c 2,81,-1
 633 649 l 1,82,-1
 633 162 l 1,83,84
 660 91 660 91 736 91 c 0,85,86
 770 91 770 91 792 108 c 1,87,88
 803 93 803 93 803 64 c 128,-1,89
 803 35 803 35 771.5 7.5 c 128,-1,90
 740 -20 740 -20 677 -20 c 128,-1,91
 614 -20 614 -20 565 12 c 1,0,1
825 1427 m 0,92,93
 633 1427 633 1427 633 1278 c 2,94,-1
 633 869 l 2,95,96
 633 817 633 817 674 799 c 0,97,98
 713 782 713 782 789.5 782 c 128,-1,99
 866 782 866 782 896.5 790.5 c 128,-1,100
 927 799 927 799 949 820 c 0,101,102
 994 863 994 863 994 964 c 2,103,-1
 994 1256 l 2,104,105
 994 1381 994 1381 890 1416 c 0,106,107
 859 1427 859 1427 825 1427 c 0,92,93
1061 1363 m 1,108,109
 1092 1293 1092 1293 1092 1139 c 0,110,111
 1092 874 1092 874 1067 822 c 1,112,113
 1122 833 1122 833 1146 969 c 1,114,-1
 1154 1010 l 1,115,116
 1165 1075 1165 1075 1218 1093 c 1,117,118
 1179 1106 1179 1106 1168 1124 c 0,119,120
 1156 1145 1156 1145 1146.5 1195.5 c 128,-1,121
 1137 1246 1137 1246 1127 1277 c 128,-1,122
 1117 1308 1117 1308 1106 1326 c 0,123,124
 1087 1358 1087 1358 1061 1363 c 1,108,109
361 265 m 1,125,126
 411 284 411 284 416 396 c 0,127,128
 422 508 422 508 422 706 c 128,-1,129
 422 904 422 904 421.5 969.5 c 128,-1,130
 421 1035 421 1035 420 1075 c 0,131,132
 417 1193 417 1193 397.5 1217.5 c 128,-1,133
 378 1242 378 1242 361 1250 c 1,134,135
 361 902 361 902 349 854 c 1,136,137
 335 814 335 814 281 797 c 1,138,139
 341 776 341 776 349 746 c 0,140,141
 361 698 361 698 361 395 c 2,142,-1
 361 265 l 1,125,126
1051 539 m 1,143,144
 1091 494 1091 494 1091 429 c 2,145,-1
 1091 297 l 2,146,147
 1091 131 1091 131 1157 120 c 0,148,149
 1175 117 1175 117 1192 121 c 1,150,151
 1156 177 1156 177 1156 239 c 2,152,-1
 1156 379 l 2,153,154
 1156 458 1156 458 1134 491 c 0,155,156
 1096 547 1096 547 1051 539 c 1,143,144
EndSplineSet
EndChar

StartChar: S
Encoding: 83 83 73
Width: 1255
GlyphClass: 2
Flags: W
LayerCount: 2
Fore
SplineSet
352 39 m 1,0,1
 272 -41 272 -41 200 -41 c 0,2,3
 154 -41 154 -41 138 -7 c 1,4,5
 161 21 161 21 161 77 c 2,6,-1
 161 92 l 2,7,8
 161 98 161 98 160 103 c 1,9,10
 110 148 110 148 110 209.5 c 128,-1,11
 110 271 110 271 168 335 c 1,12,13
 151 369 151 369 151 407.5 c 128,-1,14
 151 446 151 446 162.5 479.5 c 128,-1,15
 174 513 174 513 194 538 c 0,16,17
 236 593 236 593 276.5 593 c 128,-1,18
 317 593 317 593 334 561 c 1,19,20
 298 523 298 523 298 442 c 128,-1,21
 298 361 298 361 321.5 301 c 128,-1,22
 345 241 345 241 388 198 c 0,23,24
 480 104 480 104 623 104 c 0,25,26
 719 104 719 104 786 159 c 0,27,28
 858 218 858 218 858 320 c 0,29,30
 858 392 858 392 824 437 c 0,31,32
 771 507 771 507 658 585 c 0,33,34
 571 646 571 646 519 646 c 0,35,36
 466 646 466 646 402 603 c 1,37,38
 419 654 419 654 419 698 c 0,39,40
 419 708 419 708 400 724 c 2,41,-1
 363 757 l 1,42,43
 188 918 188 918 156 1056 c 0,44,45
 145 1104 145 1104 145 1176.5 c 128,-1,46
 145 1249 145 1249 180.5 1323.5 c 128,-1,47
 216 1398 216 1398 278 1450 c 0,48,49
 407 1560 407 1560 606 1560 c 0,50,51
 727 1560 727 1560 828 1521 c 0,52,53
 871 1504 871 1504 926 1504 c 0,54,55
 949 1504 949 1504 967.5 1506.5 c 128,-1,56
 986 1509 986 1509 1000 1527 c 1,57,58
 1013 1546 1013 1546 1013 1561 c 128,-1,59
 1013 1576 1013 1576 1009 1586 c 1,60,61
 1016 1589 1016 1589 1028.5 1589 c 128,-1,62
 1041 1589 1041 1589 1056 1580.5 c 128,-1,63
 1071 1572 1071 1572 1083 1557 c 0,64,65
 1110 1523 1110 1523 1110 1480.5 c 128,-1,66
 1110 1438 1110 1438 1086 1416 c 1,67,68
 1120 1386 1120 1386 1120 1323 c 0,69,70
 1120 1261 1120 1261 1078 1219 c 1,71,72
 1086 1192 1086 1192 1086 1170.5 c 128,-1,73
 1086 1149 1086 1149 1078.5 1129.5 c 128,-1,74
 1071 1110 1071 1110 1058 1096 c 0,75,76
 1029 1065 1029 1065 1003 1065 c 0,77,78
 962 1065 962 1065 934 1079 c 1,79,80
 951 1119 951 1119 951 1165 c 128,-1,81
 951 1211 951 1211 930.5 1259.5 c 128,-1,82
 910 1308 910 1308 873 1344 c 0,83,84
 795 1418 795 1418 669 1418 c 0,85,86
 589 1418 589 1418 538 1369 c 0,87,88
 490 1323 490 1323 490 1258 c 0,89,90
 490 1209 490 1209 514 1176 c 0,91,92
 556 1119 556 1119 647 1058 c 2,93,-1
 695 1026 l 1,94,95
 735 1001 735 1001 749 1001 c 128,-1,96
 763 1001 763 1001 777 1004 c 128,-1,97
 791 1007 791 1007 808 1012 c 0,98,99
 844 1024 844 1024 878 1046 c 1,100,-1
 865 990 l 2,101,102
 859 962 859 962 859 949 c 0,103,104
 859 928 859 928 880 911 c 0,105,106
 1067 749 1067 749 1130 640 c 0,107,108
 1185 545 1185 545 1185 435 c 128,-1,109
 1185 325 1185 325 1149 246 c 128,-1,110
 1113 167 1113 167 1044 106 c 0,111,112
 892 -30 892 -30 649 -30 c 0,113,114
 478 -30 478 -30 352 39 c 1,0,1
284 1250 m 1,115,116
 246 1234 246 1234 246 1167 c 0,117,118
 246 1030 246 1030 429 866 c 2,119,-1
 489 812 l 2,120,121
 520 784 520 784 516.5 769 c 128,-1,122
 513 754 513 754 510.5 745 c 128,-1,123
 508 736 508 736 505 728 c 128,-1,124
 502 720 502 720 501 716 c 1,125,126
 536 737 536 737 558 737 c 0,127,128
 602 737 602 737 641 713 c 0,129,130
 834 593 834 593 903 499 c 0,131,132
 953 430 953 430 955 327 c 0,133,134
 955 290 955 290 950 265 c 1,135,136
 1003 299 1003 299 1003 373 c 0,137,138
 1003 445 1003 445 983.5 484 c 128,-1,139
 964 523 964 523 938 553.5 c 128,-1,140
 912 584 912 584 870.5 620 c 128,-1,141
 829 656 829 656 768 698 c 2,142,-1
 626 795 l 1,143,144
 451 910 451 910 360 1038 c 0,145,146
 280 1151 280 1151 284 1250 c 1,115,116
EndSplineSet
EndChar

StartChar: T
Encoding: 84 84 74
Width: 1510
GlyphClass: 2
Flags: W
LayerCount: 2
Fore
SplineSet
871 13 m 1,0,1
 819 -20 819 -20 755.5 -20 c 128,-1,2
 692 -20 692 -20 638 13 c 1,3,4
 583 -20 583 -20 537 -20 c 128,-1,5
 491 -20 491 -20 463 -12.5 c 128,-1,6
 435 -5 435 -5 414 8 c 0,7,8
 371 34 371 34 371 73 c 0,9,10
 371 93 371 93 382 108 c 1,11,12
 404 91 404 91 440.5 91 c 128,-1,13
 477 91 477 91 514.5 110 c 128,-1,14
 552 129 552 129 571 169 c 1,15,-1
 571 656 l 2,16,17
 571 702 571 702 552 724 c 0,18,19
 522 761 522 761 449 797 c 1,20,21
 517 828 517 828 537 852 c 0,22,23
 571 891 571 891 571 940 c 2,24,-1
 571 1404 l 1,25,26
 538 1416 538 1416 492.5 1416 c 128,-1,27
 447 1416 447 1416 397 1392 c 128,-1,28
 347 1368 347 1368 307 1322 c 0,29,30
 218 1218 218 1218 218 1050 c 0,31,32
 218 953 218 953 250 907 c 1,33,34
 238 882 238 882 205 882 c 128,-1,35
 172 882 172 882 146 897 c 128,-1,36
 120 912 120 912 101 938 c 0,37,38
 62 990 62 990 62 1050 c 128,-1,39
 62 1110 62 1110 84 1152 c 1,40,41
 47 1196 47 1196 47 1251.5 c 128,-1,42
 47 1307 47 1307 77 1343 c 1,43,44
 35 1388 35 1388 35 1464 c 0,45,46
 35 1552 35 1552 116 1582 c 0,47,48
 140 1591 140 1591 158 1591 c 0,49,50
 192 1591 192 1591 209 1576 c 1,51,52
 202 1552 202 1552 202 1542 c 0,53,54
 202 1502 202 1502 230 1502 c 0,55,56
 245 1502 245 1502 261 1506 c 2,57,-1
 306 1519 l 1,58,59
 423 1550 423 1550 501 1550 c 128,-1,60
 579 1550 579 1550 638 1516 c 1,61,62
 689 1550 689 1550 754 1550 c 128,-1,63
 819 1550 819 1550 872 1516 c 1,64,65
 929 1550 929 1550 990 1550 c 0,66,67
 1087 1550 1087 1550 1160 1530 c 2,68,-1
 1249 1506 l 2,69,70
 1265 1502 1265 1502 1280 1502 c 0,71,72
 1308 1502 1308 1502 1308 1542 c 0,73,74
 1308 1552 1308 1552 1301 1576 c 1,75,76
 1318 1591 1318 1591 1344 1591 c 128,-1,77
 1370 1591 1370 1591 1394 1582 c 128,-1,78
 1418 1573 1418 1573 1436 1556 c 0,79,80
 1475 1521 1475 1521 1475 1455.5 c 128,-1,81
 1475 1390 1475 1390 1433 1343 c 1,82,83
 1463 1307 1463 1307 1463 1252 c 128,-1,84
 1463 1197 1463 1197 1425 1152 c 1,85,86
 1448 1111 1448 1111 1448 1070 c 128,-1,87
 1448 1029 1448 1029 1438 996 c 128,-1,88
 1428 963 1428 963 1409 938 c 0,89,90
 1368 882 1368 882 1306 882 c 0,91,92
 1272 882 1272 882 1260 907 c 1,93,94
 1292 953 1292 953 1292 1045.5 c 128,-1,95
 1292 1138 1292 1138 1267.5 1206.5 c 128,-1,96
 1243 1275 1243 1275 1203 1322 c 0,97,98
 1122 1416 1122 1416 1012 1416 c 0,99,100
 970 1416 970 1416 939 1404 c 1,101,-1
 939 940 l 2,102,103
 939 891 939 891 960 867 c 0,104,105
 993 828 993 828 1061 797 c 1,106,107
 988 761 988 761 968 738 c 1,108,109
 939 702 939 702 939 656 c 2,110,-1
 939 169 l 1,111,112
 957 129 957 129 994.5 110 c 128,-1,113
 1032 91 1032 91 1069 91 c 128,-1,114
 1106 91 1106 91 1128 108 c 1,115,116
 1139 93 1139 93 1139 73.5 c 128,-1,117
 1139 54 1139 54 1127.5 37 c 128,-1,118
 1116 20 1116 20 1096 8 c 0,119,120
 1050 -20 1050 -20 988.5 -20 c 128,-1,121
 927 -20 927 -20 871 13 c 1,0,1
667 265 m 1,122,123
 717 284 717 284 722 396 c 0,124,125
 728 508 728 508 728 706 c 128,-1,126
 728 904 728 904 727.5 969.5 c 128,-1,127
 727 1035 727 1035 726 1075 c 0,128,129
 723 1193 723 1193 703.5 1217.5 c 128,-1,130
 684 1242 684 1242 667 1250 c 1,131,132
 667 902 667 902 655 854 c 1,133,134
 641 814 641 814 587 797 c 1,135,136
 647 776 647 776 655 746 c 0,137,138
 667 698 667 698 667 395 c 2,139,-1
 667 265 l 1,122,123
EndSplineSet
EndChar

StartChar: U
Encoding: 85 85 75
Width: 1548
GlyphClass: 2
Flags: W
LayerCount: 2
Fore
SplineSet
1323 325 m 1,0,1
 1341 281 1341 281 1396 241 c 1,2,3
 1361 227 1361 227 1308.5 175 c 128,-1,4
 1256 123 1256 123 1191 82 c 128,-1,5
 1126 41 1126 41 1062 16 c 0,6,7
 946 -30 946 -30 811.5 -30 c 128,-1,8
 677 -30 677 -30 567.5 2 c 128,-1,9
 458 34 458 34 386 89 c 0,10,11
 245 198 245 198 245 379 c 2,12,-1
 245 656 l 2,13,14
 245 702 245 702 226 724 c 0,15,16
 196 761 196 761 123 797 c 1,17,18
 191 828 191 828 211 852 c 0,19,20
 245 891 245 891 245 940 c 2,21,-1
 245 1362 l 1,22,23
 211 1439 211 1439 122 1439 c 0,24,25
 88 1439 88 1439 66 1422 c 1,26,27
 55 1437 55 1437 55 1456.5 c 128,-1,28
 55 1476 55 1476 66.5 1493 c 128,-1,29
 78 1510 78 1510 98 1522 c 0,30,31
 144 1550 144 1550 203.5 1550 c 128,-1,32
 263 1550 263 1550 313 1517 c 1,33,34
 365 1550 365 1550 429 1550 c 128,-1,35
 493 1550 493 1550 545 1517 c 1,36,37
 595 1550 595 1550 639 1550 c 128,-1,38
 683 1550 683 1550 711 1542.5 c 128,-1,39
 739 1535 739 1535 760 1522 c 0,40,41
 803 1496 803 1496 803 1457 c 0,42,43
 803 1437 803 1437 792 1422 c 1,44,45
 770 1439 770 1439 736 1439 c 0,46,47
 647 1439 647 1439 613 1362 c 1,48,-1
 613 940 l 2,49,50
 613 891 613 891 634 867 c 0,51,52
 667 828 667 828 735 797 c 1,53,54
 662 761 662 761 642 738 c 1,55,56
 613 702 613 702 613 656 c 2,57,-1
 613 377 l 2,58,59
 613 256 613 256 704 178 c 0,60,61
 788 107 788 107 895 107 c 0,62,63
 1007 107 1007 107 1094 176 c 0,64,65
 1183 246 1183 246 1183 346 c 2,66,-1
 1183 665 l 2,67,68
 1183 709 1183 709 1164 730 c 0,69,70
 1135 761 1135 761 1061 797 c 1,71,72
 1130 831 1130 831 1150 852 c 0,73,74
 1183 887 1183 887 1183 930 c 2,75,-1
 1183 1375 l 1,76,77
 1140 1439 1140 1439 1078 1439 c 128,-1,78
 1016 1439 1016 1439 987 1422 c 1,79,80
 976 1440 976 1440 976 1471.5 c 128,-1,81
 976 1503 976 1503 1007 1526.5 c 128,-1,82
 1038 1550 1038 1550 1088 1550 c 128,-1,83
 1138 1550 1138 1550 1177 1524 c 1,84,85
 1212 1550 1212 1550 1257.5 1550 c 128,-1,86
 1303 1550 1303 1550 1338 1523 c 1,87,88
 1377 1550 1377 1550 1424 1550 c 128,-1,89
 1471 1550 1471 1550 1499.5 1525.5 c 128,-1,90
 1528 1501 1528 1501 1528 1469 c 128,-1,91
 1528 1437 1528 1437 1518 1422 c 1,92,93
 1489 1439 1489 1439 1425.5 1439 c 128,-1,94
 1362 1439 1362 1439 1323 1375 c 1,95,-1
 1323 930 l 2,96,97
 1323 886 1323 886 1342 866 c 0,98,99
 1372 835 1372 835 1455 797 c 1,100,101
 1367 754 1367 754 1350 737 c 0,102,103
 1323 710 1323 710 1323 665 c 2,104,-1
 1323 325 l 1,0,1
393 265 m 1,105,106
 402 319 402 319 402 611.5 c 128,-1,107
 402 904 402 904 401.5 969.5 c 128,-1,108
 401 1035 401 1035 400 1075 c 0,109,110
 397 1193 397 1193 377.5 1217.5 c 128,-1,111
 358 1242 358 1242 341 1250 c 1,112,113
 341 902 341 902 329 854 c 1,114,115
 315 814 315 814 261 797 c 1,116,117
 321 776 321 776 329 746 c 0,118,119
 341 698 341 698 341 539 c 128,-1,120
 341 380 341 380 345.5 351 c 128,-1,121
 350 322 350 322 358 304 c 0,122,123
 371 272 371 272 393 265 c 1,105,106
EndSplineSet
EndChar

StartChar: V
Encoding: 86 86 76
Width: 1417
GlyphClass: 2
Flags: W
LayerCount: 2
Fore
SplineSet
1481 1417 m 1,0,1
 1455 1434 1455 1434 1419 1434 c 0,2,3
 1348 1434 1348 1434 1291 1356 c 1,4,5
 1139 951 1139 951 1134 922 c 128,-1,6
 1129 893 1129 893 1129 880 c 0,7,8
 1129 818 1129 818 1197 797 c 1,9,10
 1123 767 1123 767 1095 737 c 0,11,12
 1051 688 1051 688 1016 587 c 1,13,-1
 833 87 l 1,14,15
 782 -58 782 -58 758 -74 c 0,16,17
 749 -79 749 -79 737 -79 c 128,-1,18
 725 -79 725 -79 717 -72 c 1,19,-1
 392 655 l 2,20,21
 372 702 372 702 340 727 c 0,22,23
 288 767 288 767 207 797 c 1,24,25
 294 845 294 845 292 886 c 0,26,27
 292 905 292 905 276 947 c 2,28,-1
 101 1397 l 1,29,30
 48 1434 48 1434 4 1434 c 0,31,32
 -28 1434 -28 1434 -54 1417 c 1,33,34
 -65 1425 -65 1425 -65 1447 c 128,-1,35
 -65 1469 -65 1469 -58 1487.5 c 128,-1,36
 -51 1506 -51 1506 -36 1520 c 0,37,38
 -4 1550 -4 1550 56 1550 c 256,39,40
 116 1550 116 1550 162 1518 c 1,41,42
 213 1550 213 1550 281.5 1550 c 128,-1,43
 350 1550 350 1550 400 1519 c 1,44,45
 453 1550 453 1550 497 1550 c 128,-1,46
 541 1550 541 1550 569 1543.5 c 128,-1,47
 597 1537 597 1537 618 1524 c 0,48,49
 663 1498 663 1498 665 1452 c 1,50,51
 665 1424 665 1424 654 1417 c 1,52,53
 627 1434 627 1434 599 1434 c 0,54,55
 536 1434 536 1434 501 1410 c 1,56,-1
 829 474 l 1,57,-1
 1137 1365 l 1,58,59
 1132 1399 1132 1399 1110.5 1419 c 128,-1,60
 1089 1439 1089 1439 1045 1439 c 128,-1,61
 1001 1439 1001 1439 972 1422 c 1,62,63
 962 1437 962 1437 962 1469 c 128,-1,64
 962 1501 962 1501 989 1525.5 c 128,-1,65
 1016 1550 1016 1550 1063.5 1550 c 128,-1,66
 1111 1550 1111 1550 1148 1527 c 1,67,68
 1180 1550 1180 1550 1228 1550 c 128,-1,69
 1276 1550 1276 1550 1307 1528 c 1,70,71
 1351 1550 1351 1550 1395 1550 c 128,-1,72
 1439 1550 1439 1550 1465.5 1521.5 c 128,-1,73
 1492 1493 1492 1493 1492 1448 c 0,74,75
 1492 1425 1492 1425 1481 1417 c 1,0,1
1136 1322 m 2,76,77
 1134 1316 1134 1316 1134 1314 c 2,78,-1
 1136 1322 l 2,76,77
322 1250 m 1,79,80
 300 1234 300 1234 300 1208.5 c 128,-1,81
 300 1183 300 1183 301.5 1170 c 128,-1,82
 303 1157 303 1157 309 1136.5 c 128,-1,83
 315 1116 315 1116 327 1084 c 2,84,-1
 382 942 l 2,85,86
 402 890 402 890 404 864 c 0,87,88
 409 820 409 820 348 797 c 1,89,90
 389 789 389 789 415.5 777.5 c 128,-1,91
 442 766 442 766 463 720.5 c 128,-1,92
 484 675 484 675 518 590 c 2,93,-1
 602 386 l 2,94,95
 640 293 640 293 686 274 c 0,96,97
 699 268 699 268 712 265 c 1,98,-1
 322 1250 l 1,79,80
EndSplineSet
EndChar

StartChar: W
Encoding: 87 87 77
Width: 2161
GlyphClass: 2
Flags: W
LayerCount: 2
Fore
SplineSet
1876 880 m 0,0,1
 1876 826 1876 826 1973 797 c 1,2,3
 1891 764 1891 764 1859 735 c 0,4,5
 1798 678 1798 678 1763 587 c 1,6,-1
 1589 87 l 1,7,8
 1533 -55 1533 -55 1504 -73 c 0,9,10
 1495 -79 1495 -79 1483 -79 c 128,-1,11
 1471 -79 1471 -79 1463 -72 c 1,12,-1
 1122 919 l 1,13,-1
 809 87 l 1,14,15
 753 -53 753 -53 724 -73 c 0,16,17
 715 -79 715 -79 703 -79 c 128,-1,18
 691 -79 691 -79 683 -72 c 1,19,-1
 360 655 l 1,20,21
 336 712 336 712 309 736 c 0,22,23
 267 772 267 772 199 797 c 1,24,25
 285 846 285 846 283 888 c 1,26,27
 283 915 283 915 263 963 c 2,28,-1
 235 1031 l 1,29,-1
 99 1398 l 1,30,31
 47 1434 47 1434 8.5 1434 c 128,-1,32
 -30 1434 -30 1434 -55 1417 c 1,33,34
 -66 1425 -66 1425 -66 1447 c 128,-1,35
 -66 1469 -66 1469 -59 1487.5 c 128,-1,36
 -52 1506 -52 1506 -37 1520 c 0,37,38
 -5 1550 -5 1550 56 1550 c 128,-1,39
 117 1550 117 1550 164 1515 c 1,40,41
 214 1550 214 1550 282.5 1550 c 128,-1,42
 351 1550 351 1550 395 1516 c 1,43,44
 448 1550 448 1550 494 1550 c 128,-1,45
 540 1550 540 1550 568 1543.5 c 128,-1,46
 596 1537 596 1537 617 1524 c 0,47,48
 662 1498 662 1498 664 1452 c 1,49,50
 664 1424 664 1424 653 1417 c 1,51,52
 626 1434 626 1434 598 1434 c 0,53,54
 535 1434 535 1434 500 1410 c 1,55,-1
 825 502 l 1,56,-1
 1046 1139 l 1,57,-1
 957 1399 l 1,58,59
 906 1434 906 1434 868 1434 c 128,-1,60
 830 1434 830 1434 805 1417 c 1,61,62
 794 1425 794 1425 794 1447 c 128,-1,63
 794 1469 794 1469 801 1487.5 c 128,-1,64
 808 1506 808 1506 823 1520 c 0,65,66
 855 1550 855 1550 916 1550 c 128,-1,67
 977 1550 977 1550 1024 1515 c 1,68,69
 1074 1550 1074 1550 1142.5 1550 c 128,-1,70
 1211 1550 1211 1550 1255 1516 c 1,71,72
 1308 1550 1308 1550 1354 1550 c 128,-1,73
 1400 1550 1400 1550 1428 1543.5 c 128,-1,74
 1456 1537 1456 1537 1477 1524 c 0,75,76
 1522 1498 1522 1498 1524 1452 c 1,77,78
 1524 1424 1524 1424 1513 1417 c 1,79,80
 1486 1434 1486 1434 1458 1434 c 0,81,82
 1393 1434 1393 1434 1359 1409 c 1,83,-1
 1626 572 l 1,84,-1
 1896 1407 l 1,85,86
 1864 1439 1864 1439 1804 1439 c 128,-1,87
 1744 1439 1744 1439 1715 1422 c 1,88,89
 1705 1437 1705 1437 1705 1469 c 128,-1,90
 1705 1501 1705 1501 1732 1525.5 c 128,-1,91
 1759 1550 1759 1550 1809 1550 c 128,-1,92
 1859 1550 1859 1550 1895 1524 c 1,93,94
 1927 1550 1927 1550 1973 1550 c 128,-1,95
 2019 1550 2019 1550 2050 1528 c 1,96,97
 2094 1550 2094 1550 2138 1550 c 128,-1,98
 2182 1550 2182 1550 2208.5 1521.5 c 128,-1,99
 2235 1493 2235 1493 2235 1448 c 0,100,101
 2235 1425 2235 1425 2224 1417 c 1,102,103
 2198 1434 2198 1434 2161 1434 c 0,104,105
 2093 1434 2093 1434 2046 1383 c 1,106,-1
 1910 1008 l 2,107,108
 1876 914 1876 914 1876 880 c 0,0,1
1154 1254 m 1,109,110
 1139 1233 1139 1233 1139 1191 c 128,-1,111
 1139 1149 1139 1149 1156 1100 c 2,112,-1
 1192 993 l 1,113,-1
 1463 265 l 1,114,115
 1468 271 1468 271 1466.5 286 c 128,-1,116
 1465 301 1465 301 1465 329.5 c 128,-1,117
 1465 358 1465 358 1462 379.5 c 128,-1,118
 1459 401 1459 401 1454 424 c 0,119,120
 1447 464 1447 464 1430 514 c 1,121,-1
 1154 1254 l 1,109,110
318 1250 m 1,122,123
 298 1238 298 1238 298 1212.5 c 128,-1,124
 298 1187 298 1187 300 1174 c 128,-1,125
 302 1161 302 1161 308 1140 c 0,126,127
 321 1087 321 1087 341.5 1028.5 c 128,-1,128
 362 970 362 970 369 945.5 c 128,-1,129
 376 921 376 921 379.5 904 c 128,-1,130
 383 887 383 887 384 876 c 128,-1,131
 385 865 385 865 386 852 c 0,132,133
 388 825 388 825 324 799 c 1,134,135
 365 791 365 791 388.5 785 c 128,-1,136
 412 779 412 779 422 762.5 c 128,-1,137
 432 746 432 746 450.5 708 c 128,-1,138
 469 670 469 670 490 622 c 2,139,-1
 533 520 l 2,140,141
 555 467 555 467 571.5 422 c 128,-1,142
 588 377 588 377 602.5 348.5 c 128,-1,143
 617 320 617 320 630 302 c 1,144,145
 655 271 655 271 688 265 c 1,146,147
 633 400 633 400 584.5 531.5 c 128,-1,148
 536 663 536 663 486 785.5 c 128,-1,149
 436 908 436 908 398.5 1024 c 128,-1,150
 361 1140 361 1140 318 1250 c 1,122,123
EndSplineSet
EndChar

StartChar: X
Encoding: 88 88 78
Width: 1377
GlyphClass: 2
Flags: W
LayerCount: 2
Fore
SplineSet
139 1 m 1,0,1
 95 -20 95 -20 51 -20 c 128,-1,2
 7 -20 7 -20 -19.5 8.5 c 128,-1,3
 -46 37 -46 37 -46 82 c 0,4,5
 -46 105 -46 105 -35 113 c 1,6,7
 -9 96 -9 96 34.5 96 c 128,-1,8
 78 96 78 96 116 114 c 1,9,-1
 516 714 l 1,10,-1
 104 1403 l 1,11,12
 55 1434 55 1434 10.5 1434 c 128,-1,13
 -34 1434 -34 1434 -59 1417 c 1,14,15
 -70 1425 -70 1425 -70 1447 c 128,-1,16
 -70 1469 -70 1469 -63 1487.5 c 128,-1,17
 -56 1506 -56 1506 -41 1520 c 0,18,19
 -9 1550 -9 1550 52 1550 c 128,-1,20
 113 1550 113 1550 160 1515 c 1,21,22
 210 1550 210 1550 278.5 1550 c 128,-1,23
 347 1550 347 1550 391 1516 c 1,24,25
 444 1550 444 1550 490 1550 c 128,-1,26
 536 1550 536 1550 564 1543.5 c 128,-1,27
 592 1537 592 1537 613 1524 c 0,28,29
 658 1498 658 1498 660 1452 c 1,30,31
 660 1424 660 1424 649 1417 c 1,32,33
 622 1434 622 1434 591 1434 c 0,34,35
 533 1434 533 1434 502 1416 c 1,36,-1
 773 962 l 1,37,-1
 1069 1417 l 1,38,39
 1031 1439 1031 1439 978.5 1439 c 128,-1,40
 926 1439 926 1439 897 1422 c 1,41,42
 887 1437 887 1437 887 1469 c 128,-1,43
 887 1501 887 1501 914 1525.5 c 128,-1,44
 941 1550 941 1550 991 1550 c 128,-1,45
 1041 1550 1041 1550 1077 1524 c 1,46,47
 1109 1550 1109 1550 1155 1550 c 128,-1,48
 1201 1550 1201 1550 1232 1528 c 1,49,50
 1276 1550 1276 1550 1320 1550 c 128,-1,51
 1364 1550 1364 1550 1390.5 1521.5 c 128,-1,52
 1417 1493 1417 1493 1417 1448 c 0,53,54
 1417 1425 1417 1425 1406 1417 c 1,55,56
 1380 1434 1380 1434 1334.5 1434 c 128,-1,57
 1289 1434 1289 1434 1247 1412 c 1,58,-1
 856 824 l 1,59,-1
 1276 119 l 1,60,61
 1319 96 1319 96 1364.5 96 c 128,-1,62
 1410 96 1410 96 1436 113 c 1,63,64
 1447 105 1447 105 1447 83 c 128,-1,65
 1447 61 1447 61 1440 42.5 c 128,-1,66
 1433 24 1433 24 1418 10 c 0,67,68
 1386 -20 1386 -20 1324 -20 c 128,-1,69
 1262 -20 1262 -20 1216 14 c 1,70,71
 1164 -20 1164 -20 1097.5 -20 c 128,-1,72
 1031 -20 1031 -20 985 14 c 1,73,74
 934 -20 934 -20 887.5 -20 c 128,-1,75
 841 -20 841 -20 813 -13.5 c 128,-1,76
 785 -7 785 -7 764 6 c 0,77,78
 719 32 719 32 717 78 c 1,79,80
 717 106 717 106 728 113 c 1,81,82
 755 96 755 96 786 96 c 0,83,84
 845 96 845 96 874 114 c 1,85,-1
 599 575 l 1,86,-1
 301 113 l 1,87,88
 338 91 338 91 391.5 91 c 128,-1,89
 445 91 445 91 474 108 c 1,90,91
 484 93 484 93 484 61 c 128,-1,92
 484 29 484 29 457 4.5 c 128,-1,93
 430 -20 430 -20 380.5 -20 c 128,-1,94
 331 -20 331 -20 293 5 c 1,95,96
 259 -20 259 -20 214.5 -20 c 128,-1,97
 170 -20 170 -20 139 1 c 1,0,1
901 265 m 1,98,99
 906 272 906 272 906 297.5 c 128,-1,100
 906 323 906 323 881 394.5 c 128,-1,101
 856 466 856 466 789 584 c 1,102,-1
 370 1250 l 1,103,104
 366 1242 366 1242 366 1225.5 c 128,-1,105
 366 1209 366 1209 368 1188.5 c 128,-1,106
 370 1168 370 1168 378 1140 c 0,107,108
 396 1079 396 1079 449 993 c 2,109,-1
 901 265 l 1,98,99
EndSplineSet
EndChar

StartChar: Y
Encoding: 89 89 79
Width: 1357
GlyphClass: 2
Flags: W
LayerCount: 2
Fore
SplineSet
820 12 m 1,0,1
 769 -20 769 -20 704 -20 c 128,-1,2
 639 -20 639 -20 588 12 c 1,3,4
 537 -20 537 -20 493.5 -20 c 128,-1,5
 450 -20 450 -20 420.5 -12.5 c 128,-1,6
 391 -5 391 -5 368 8 c 0,7,8
 320 34 320 34 320 73 c 0,9,10
 320 93 320 93 331 108 c 1,11,12
 353 91 353 91 389.5 91 c 128,-1,13
 426 91 426 91 463.5 110 c 128,-1,14
 501 129 501 129 520 169 c 1,15,-1
 520 366 l 2,16,17
 520 412 520 412 502 434 c 0,18,19
 470 473 470 473 398 508 c 1,20,21
 465 539 465 539 486 562 c 0,22,23
 520 601 520 601 520 650 c 2,24,-1
 520 686 l 1,25,-1
 118 1382 l 1,26,27
 60 1434 60 1434 15 1434 c 128,-1,28
 -30 1434 -30 1434 -56 1417 c 1,29,30
 -67 1425 -67 1425 -67 1447 c 128,-1,31
 -67 1469 -67 1469 -60 1487.5 c 128,-1,32
 -53 1506 -53 1506 -38 1520 c 0,33,34
 -6 1550 -6 1550 55 1550 c 128,-1,35
 116 1550 116 1550 163 1515 c 1,36,37
 213 1550 213 1550 281.5 1550 c 128,-1,38
 350 1550 350 1550 394 1516 c 1,39,40
 447 1550 447 1550 493 1550 c 128,-1,41
 539 1550 539 1550 567 1543.5 c 128,-1,42
 595 1537 595 1537 616 1524 c 0,43,44
 661 1498 661 1498 663 1452 c 1,45,46
 663 1424 663 1424 652 1417 c 1,47,48
 625 1434 625 1434 598 1434 c 0,49,50
 540 1434 540 1434 504 1413 c 1,51,-1
 803 839 l 1,52,-1
 1087 1414 l 1,53,54
 1046 1439 1046 1439 992.5 1439 c 128,-1,55
 939 1439 939 1439 910 1422 c 1,56,57
 900 1437 900 1437 900 1469 c 128,-1,58
 900 1501 900 1501 927 1525.5 c 128,-1,59
 954 1550 954 1550 1004 1550 c 128,-1,60
 1054 1550 1054 1550 1090 1524 c 1,61,62
 1122 1550 1122 1550 1168 1550 c 128,-1,63
 1214 1550 1214 1550 1245 1528 c 1,64,65
 1289 1550 1289 1550 1333 1550 c 128,-1,66
 1377 1550 1377 1550 1403.5 1521.5 c 128,-1,67
 1430 1493 1430 1493 1430 1448 c 0,68,69
 1430 1425 1430 1425 1419 1417 c 1,70,71
 1393 1434 1393 1434 1355 1434 c 0,72,73
 1289 1434 1289 1434 1238 1398 c 1,74,-1
 888 705 l 1,75,-1
 888 650 l 2,76,77
 888 601 888 601 909 577 c 0,78,79
 943 539 943 539 1010 508 c 1,80,81
 938 473 938 473 918 449 c 0,82,83
 888 412 888 412 888 366 c 2,84,-1
 888 169 l 1,85,86
 906 129 906 129 943.5 110 c 128,-1,87
 981 91 981 91 1018 91 c 128,-1,88
 1055 91 1055 91 1077 108 c 1,89,90
 1088 93 1088 93 1088 73.5 c 128,-1,91
 1088 54 1088 54 1075 37 c 128,-1,92
 1062 20 1062 20 1040 8 c 0,93,94
 990 -20 990 -20 930.5 -20 c 128,-1,95
 871 -20 871 -20 820 12 c 1,0,1
616 265 m 1,96,97
 669 285 669 285 674 422 c 0,98,99
 675 464 675 464 675 508 c 2,100,-1
 675 675 l 2,101,102
 675 723 675 723 657 754 c 2,103,-1
 452 1125 l 1,104,105
 409 1200 409 1200 390 1218 c 0,106,107
 360 1246 360 1246 318 1250 c 1,108,-1
 618 694 l 1,109,-1
 618 645 l 2,110,111
 618 586 618 586 610 564 c 1,112,113
 598 526 598 526 536 507 c 1,114,115
 603 482 603 482 612 446 c 0,116,117
 619 418 619 418 619 380.5 c 128,-1,118
 619 343 619 343 617.5 315 c 128,-1,119
 616 287 616 287 616 265 c 1,96,97
EndSplineSet
EndChar

StartChar: Z
Encoding: 90 90 80
Width: 1428
GlyphClass: 2
Flags: W
LayerCount: 2
Fore
SplineSet
271 15 m 1,0,1
 224 -20 224 -20 176.5 -20 c 128,-1,2
 129 -20 129 -20 106.5 -12 c 128,-1,3
 84 -4 84 -4 69 10 c 0,4,5
 40 37 40 37 40 82 c 0,6,7
 40 105 40 105 51 113 c 1,8,9
 76 96 76 96 99 96 c 128,-1,10
 122 96 122 96 138 99.5 c 128,-1,11
 154 103 154 103 172 115 c 0,12,13
 207 139 207 139 253 226 c 0,14,15
 471 642 471 642 483 688 c 0,16,17
 486 700 486 700 486 707 c 0,18,19
 488 763 488 763 389 797 c 1,20,21
 506 826 506 826 560 890 c 0,22,23
 579 912 579 912 594 939 c 2,24,-1
 837 1389 l 1,25,26
 757 1422 757 1422 692 1422 c 128,-1,27
 627 1422 627 1422 587.5 1414.5 c 128,-1,28
 548 1407 548 1407 512 1391 c 0,29,30
 373 1330 373 1330 320 1152 c 0,31,32
 301 1089 301 1089 301 1031 c 128,-1,33
 301 973 301 973 322 947 c 1,34,35
 299 928 299 928 274.5 928 c 128,-1,36
 250 928 250 928 229 937.5 c 128,-1,37
 208 947 208 947 192 966 c 0,38,39
 156 1008 156 1008 156 1072.5 c 128,-1,40
 156 1137 156 1137 172 1173 c 1,41,42
 119 1208 119 1208 119 1264 c 128,-1,43
 119 1320 119 1320 157 1360 c 1,44,45
 125 1401 125 1401 125 1435.5 c 128,-1,46
 125 1470 125 1470 134.5 1494.5 c 128,-1,47
 144 1519 144 1519 162 1538 c 0,48,49
 199 1577 199 1577 252 1577 c 0,50,51
 278 1577 278 1577 300 1566 c 1,52,53
 296 1544 296 1544 296 1522 c 0,54,55
 296 1476 296 1476 338 1476 c 0,56,57
 369 1476 369 1476 424 1501 c 0,58,59
 530 1550 530 1550 680.5 1550 c 128,-1,60
 831 1550 831 1550 929 1500 c 1,61,62
 988 1550 988 1550 1059 1550 c 128,-1,63
 1130 1550 1130 1550 1181 1516 c 1,64,65
 1223 1550 1223 1550 1264.5 1550 c 128,-1,66
 1306 1550 1306 1550 1326.5 1542 c 128,-1,67
 1347 1534 1347 1534 1362 1520 c 0,68,69
 1393 1490 1393 1490 1393 1448 c 0,70,71
 1393 1425 1393 1425 1382 1417 c 1,72,73
 1356 1434 1356 1434 1328.5 1434 c 128,-1,74
 1301 1434 1301 1434 1283 1427.5 c 128,-1,75
 1265 1421 1265 1421 1249 1406 c 0,76,77
 1219 1377 1219 1377 1175 1282 c 0,78,79
 1028 969 1028 969 1016.5 932 c 128,-1,80
 1005 895 1005 895 1005 878 c 0,81,82
 1005 822 1005 822 1076 797 c 1,83,84
 995 778 995 778 940 731 c 128,-1,85
 885 684 885 684 844 602 c 2,86,-1
 624 161 l 1,87,88
 715 108 715 108 844 108 c 0,89,90
 1001 108 1001 108 1100 244 c 0,91,92
 1160 325 1160 325 1178 440 c 0,93,94
 1182 469 1182 469 1182 513 c 128,-1,95
 1182 557 1182 557 1161 583 c 1,96,97
 1184 602 1184 602 1208.5 602 c 128,-1,98
 1233 602 1233 602 1254 592 c 128,-1,99
 1275 582 1275 582 1292 562 c 0,100,101
 1327 521 1327 521 1327 458.5 c 128,-1,102
 1327 396 1327 396 1310 356 c 1,103,104
 1364 321 1364 321 1364 265 c 128,-1,105
 1364 209 1364 209 1325 170 c 1,106,107
 1358 128 1358 128 1358 94 c 128,-1,108
 1358 60 1358 60 1348.5 35.5 c 128,-1,109
 1339 11 1339 11 1322 -8 c 1,110,111
 1284 -47 1284 -47 1231 -47 c 0,112,113
 1205 -47 1205 -47 1183 -36 c 1,114,115
 1187 -14 1187 -14 1187 8 c 0,116,117
 1187 54 1187 54 1145 54 c 0,118,119
 1114 54 1114 54 1059 29 c 0,120,121
 953 -20 953 -20 803 -20 c 128,-1,122
 653 -20 653 -20 545 19 c 1,123,124
 477 -20 477 -20 401.5 -20 c 128,-1,125
 326 -20 326 -20 271 15 c 1,0,1
927 1250 m 1,126,127
 858 1234 858 1234 803 1122 c 1,128,-1
 709 935 l 2,129,130
 671 861 671 861 654 836.5 c 128,-1,131
 637 812 637 812 612.5 801.5 c 128,-1,132
 588 791 588 791 547 783 c 1,133,134
 567 775 567 775 581 759 c 128,-1,135
 595 743 595 743 593 725.5 c 128,-1,136
 591 708 591 708 584.5 689.5 c 128,-1,137
 578 671 578 671 567 646.5 c 128,-1,138
 556 622 556 622 540 590 c 2,139,-1
 464 433 l 1,140,141
 426 352 426 352 426 322 c 0,142,143
 426 280 426 280 444 265 c 1,144,-1
 927 1250 l 1,126,127
EndSplineSet
EndChar

StartChar: bracketleft
Encoding: 91 91 81
Width: 774
GlyphClass: 2
Flags: W
LayerCount: 2
Fore
SplineSet
309 -224 m 1,0,1
 258 -267 258 -267 205 -267 c 128,-1,2
 152 -267 152 -267 122 -239.5 c 128,-1,3
 92 -212 92 -212 92 -188 c 0,4,5
 92 -153 92 -153 103 -139 c 1,6,7
 125 -156 125 -156 149 -156 c 128,-1,8
 173 -156 173 -156 202 -143 c 1,9,-1
 202 525 l 2,10,11
 202 574 202 574 181 598 c 0,12,13
 148 637 148 637 80 668 c 1,14,15
 148 699 148 699 168 723 c 0,16,17
 202 762 202 762 202 811 c 2,18,-1
 202 1476 l 1,19,20
 173 1489 173 1489 149 1489 c 128,-1,21
 125 1489 125 1489 103 1472 c 1,22,23
 92 1486 92 1486 92 1515.5 c 128,-1,24
 92 1545 92 1545 122 1572.5 c 128,-1,25
 152 1600 152 1600 205 1600 c 128,-1,26
 258 1600 258 1600 309 1557 c 1,27,28
 352 1600 352 1600 451 1600 c 2,29,-1
 762 1600 l 1,30,31
 774 1586 774 1586 774 1549 c 128,-1,32
 774 1512 774 1512 738 1483 c 128,-1,33
 702 1454 702 1454 634 1454 c 2,34,-1
 400 1454 l 1,35,-1
 400 811 l 2,36,37
 400 762 400 762 421 738 c 0,38,39
 454 699 454 699 522 668 c 1,40,41
 454 637 454 637 434 613 c 0,42,43
 400 574 400 574 400 525 c 2,44,-1
 400 -121 l 1,45,-1
 634 -121 l 2,46,47
 702 -121 702 -121 738 -150 c 128,-1,48
 774 -179 774 -179 774 -216.5 c 128,-1,49
 774 -254 774 -254 762 -267 c 1,50,-1
 451 -267 l 2,51,52
 352 -267 352 -267 309 -224 c 1,0,1
EndSplineSet
EndChar

StartChar: backslash
Encoding: 92 92 82
Width: 817
GlyphClass: 2
Flags: W
LayerCount: 2
Fore
SplineSet
152 1599 m 0,0,1
 65 1599 65 1599 65 1499 c 0,2,3
 65 1459 65 1459 88 1392 c 1,4,-1
 620 -255 l 1,5,6
 637 -268 637 -268 661 -268 c 0,7,8
 748 -268 748 -268 748 -168 c 0,9,10
 748 -128 748 -128 725 -61 c 1,11,-1
 193 1586 l 1,12,13
 176 1599 176 1599 152 1599 c 0,0,1
EndSplineSet
EndChar

StartChar: bracketright
Encoding: 93 93 83
Width: 774
GlyphClass: 2
Flags: W
LayerCount: 2
Fore
SplineSet
465 -224 m 1,0,1
 516 -267 516 -267 569 -267 c 128,-1,2
 622 -267 622 -267 652 -239.5 c 128,-1,3
 682 -212 682 -212 682 -188 c 0,4,5
 682 -153 682 -153 671 -139 c 1,6,7
 649 -156 649 -156 625 -156 c 128,-1,8
 601 -156 601 -156 572 -143 c 1,9,-1
 572 525 l 2,10,11
 572 574 572 574 593 598 c 0,12,13
 626 637 626 637 694 668 c 1,14,15
 626 699 626 699 606 723 c 0,16,17
 572 762 572 762 572 811 c 2,18,-1
 572 1476 l 1,19,20
 601 1489 601 1489 625 1489 c 128,-1,21
 649 1489 649 1489 671 1472 c 1,22,23
 682 1486 682 1486 682 1515.5 c 128,-1,24
 682 1545 682 1545 652 1572.5 c 128,-1,25
 622 1600 622 1600 569 1600 c 128,-1,26
 516 1600 516 1600 465 1557 c 1,27,28
 422 1600 422 1600 323 1600 c 2,29,-1
 12 1600 l 1,30,31
 0 1586 0 1586 0 1549 c 128,-1,32
 0 1512 0 1512 36 1483 c 128,-1,33
 72 1454 72 1454 140 1454 c 2,34,-1
 374 1454 l 1,35,-1
 374 811 l 2,36,37
 374 762 374 762 353 738 c 0,38,39
 320 699 320 699 252 668 c 1,40,41
 320 637 320 637 340 613 c 0,42,43
 374 574 374 574 374 525 c 2,44,-1
 374 -121 l 1,45,-1
 140 -121 l 2,46,47
 72 -121 72 -121 36 -150 c 128,-1,48
 0 -179 0 -179 0 -216.5 c 128,-1,49
 0 -254 0 -254 12 -267 c 1,50,-1
 323 -267 l 2,51,52
 422 -267 422 -267 465 -224 c 1,0,1
EndSplineSet
EndChar

StartChar: asciicircum
Encoding: 94 94 84
Width: 1048
GlyphClass: 2
Flags: W
LayerCount: 2
Fore
SplineSet
928 922 m 1,0,1
 908 902 908 902 875 902 c 128,-1,2
 842 902 842 902 817 905.5 c 128,-1,3
 792 909 792 909 768 924 c 0,4,5
 715 956 715 956 668 1051 c 2,6,-1
 524 1342 l 1,7,-1
 380 1051 l 2,8,9
 314 917 314 917 231 906 c 0,10,11
 206 902 206 902 186 902 c 0,12,13
 140 902 140 902 120 922 c 1,14,-1
 439 1494 l 2,15,16
 470 1550 470 1550 524 1550 c 0,17,18
 579 1550 579 1550 609 1494 c 1,19,-1
 928 922 l 1,0,1
EndSplineSet
EndChar

StartChar: underscore
Encoding: 95 95 85
Width: 868
GlyphClass: 2
Flags: W
LayerCount: 2
Fore
SplineSet
888 -170 m 1,0,-1
 888 -316 l 1,1,-1
 -20 -316 l 1,2,-1
 -20 -170 l 1,3,-1
 888 -170 l 1,0,-1
EndSplineSet
EndChar

StartChar: grave
Encoding: 96 96 86
Width: 586
GlyphClass: 2
Flags: W
LayerCount: 2
Fore
SplineSet
486 1390 m 0,0,1
 486 1363 486 1363 455.5 1363 c 128,-1,2
 425 1363 425 1363 379 1375 c 128,-1,3
 333 1387 333 1387 278.5 1422.5 c 128,-1,4
 224 1458 224 1458 184 1506 c 0,5,6
 100 1609 100 1609 100 1727 c 0,7,8
 100 1795 100 1795 142 1840 c 0,9,10
 182 1884 182 1884 235 1884 c 0,11,12
 340 1884 340 1884 376 1844 c 1,13,14
 376 1844 376 1844 370 1813 c 0,15,16
 366 1797 366 1797 366 1756 c 128,-1,17
 366 1715 366 1715 374 1662.5 c 128,-1,18
 382 1610 382 1610 396 1567 c 0,19,20
 422 1490 422 1490 454 1450 c 128,-1,21
 486 1410 486 1410 486 1390 c 0,0,1
231.5 1676 m 128,-1,23
 227 1708 227 1708 227 1743.5 c 128,-1,24
 227 1779 227 1779 241 1809 c 1,25,26
 212 1823 212 1823 196 1803 c 0,27,28
 170 1770 170 1770 170 1737 c 128,-1,29
 170 1704 170 1704 178.5 1674.5 c 128,-1,30
 187 1645 187 1645 201 1615.5 c 128,-1,31
 215 1586 215 1586 232.5 1559 c 128,-1,32
 250 1532 250 1532 269 1512 c 0,33,34
 311 1467 311 1467 340 1473 c 1,35,36
 272 1554 272 1554 254 1599 c 128,-1,22
 236 1644 236 1644 231.5 1676 c 128,-1,23
EndSplineSet
EndChar

StartChar: a
Encoding: 97 97 87
Width: 1281
GlyphClass: 2
Flags: W
LayerCount: 2
Fore
SplineSet
788 95 m 1,0,1
 697 -25 697 -25 515 -25 c 0,2,3
 293 -25 293 -25 182 108 c 0,4,5
 134 165 134 165 116 235 c 0,6,7
 106 277 106 277 81 299.5 c 128,-1,8
 56 322 56 322 19 340 c 1,9,10
 91 373 91 373 122 464 c 0,11,12
 155 560 155 560 232 603 c 1,13,14
 315 648 315 648 415 650.5 c 128,-1,15
 515 653 515 653 563 657 c 128,-1,16
 611 661 611 661 648 670 c 0,17,18
 717 686 717 686 756 729 c 1,19,-1
 756 879 l 2,20,21
 756 978 756 978 715.5 1024 c 128,-1,22
 675 1070 675 1070 592.5 1070 c 128,-1,23
 510 1070 510 1070 470.5 1039.5 c 128,-1,24
 431 1009 431 1009 431 958 c 0,25,26
 431 880 431 880 511 882 c 1,27,28
 495 804 495 804 427 804 c 0,29,30
 407 804 407 804 388 811 c 1,31,-1
 388 808 l 2,32,33
 388 782 388 782 412 775 c 1,34,35
 387 737 387 737 328 738 c 128,-1,36
 269 739 269 739 236 801 c 1,37,38
 221 797 221 797 201.5 797 c 128,-1,39
 182 797 182 797 158.5 810 c 128,-1,40
 135 823 135 823 121 846 c 1,41,42
 171 876 171 876 182 939 c 1,43,44
 194 1016 194 1016 305 1095 c 0,45,46
 439 1190 439 1190 647 1190 c 0,47,48
 992 1190 992 1190 1068 978 c 0,49,50
 1093 907 1093 907 1093 810 c 2,51,-1
 1093 729 l 2,52,53
 1093 680 1093 680 1117.5 649 c 128,-1,54
 1142 618 1142 618 1201 598 c 1,55,56
 1138 569 1138 569 1120 546 c 0,57,58
 1093 511 1093 511 1093 466 c 2,59,-1
 1093 166 l 1,60,61
 1122 91 1122 91 1176 91 c 0,62,63
 1210 91 1210 91 1232 108 c 1,64,65
 1246 89 1246 89 1246 60.5 c 128,-1,66
 1246 32 1246 32 1217.5 6 c 128,-1,67
 1189 -20 1189 -20 1132 -20 c 128,-1,68
 1075 -20 1075 -20 1026 12 c 1,69,70
 983 -20 983 -20 949.5 -20 c 128,-1,71
 916 -20 916 -20 891.5 -13.5 c 128,-1,72
 867 -7 867 -7 846 7 c 0,73,74
 799 38 799 38 788 95 c 1,0,1
851 265 m 1,75,76
 909 288 909 288 912 486 c 0,77,78
 912 528 912 528 912 582 c 128,-1,79
 912 636 912 636 911.5 674.5 c 128,-1,80
 911 713 911 713 910 748 c 0,81,82
 906 874 906 874 887 898.5 c 128,-1,83
 868 923 868 923 851 931 c 1,84,-1
 851 265 l 1,75,76
482 336 m 0,85,86
 482 294 482 294 491 254 c 128,-1,87
 500 214 500 214 518 184 c 0,88,89
 558 121 558 121 631 121 c 0,90,91
 686 121 686 121 722 166 c 0,92,93
 756 210 756 210 756 279 c 2,94,-1
 756 605 l 1,95,96
 692 568 692 568 592 554 c 1,97,98
 482 537 482 537 482 336 c 0,85,86
332 111 m 1,99,100
 342 118 342 118 342 129 c 0,101,102
 342 144 342 144 328 171 c 0,103,104
 278 263 278 263 278 322 c 128,-1,105
 278 381 278 381 282.5 407 c 128,-1,106
 287 433 287 433 294.5 451.5 c 128,-1,107
 302 470 302 470 311.5 484 c 128,-1,108
 321 498 321 498 328 509 c 0,109,110
 341 532 341 532 341 540.5 c 128,-1,111
 341 549 341 549 332 555 c 1,112,113
 291 536 291 536 272 510 c 0,114,115
 238 464 238 464 222 391 c 0,116,117
 218 370 218 370 152 340 c 1,118,119
 216 311 216 311 222 289 c 0,120,121
 256 170 256 170 332 111 c 1,99,100
EndSplineSet
EndChar

StartChar: b
Encoding: 98 98 88
Width: 1383
GlyphClass: 2
Flags: W
LayerCount: 2
Fore
SplineSet
525 70 m 1,0,1
 416 -20 416 -20 303 -20 c 0,2,3
 202 -20 202 -20 179 6 c 1,4,5
 201 33 201 33 203 87 c 128,-1,6
 205 141 205 141 205 188 c 2,7,-1
 205 466 l 2,8,9
 205 510 205 510 186 530 c 1,10,11
 159 561 159 561 83 598 c 1,12,13
 153 630 153 630 172 649 c 0,14,15
 205 682 205 682 205 729 c 2,16,-1
 205 1295 l 2,17,18
 205 1409 205 1409 112 1409 c 0,19,20
 78 1409 78 1409 56 1392 c 1,21,22
 42 1411 42 1411 42 1431.5 c 128,-1,23
 42 1452 42 1452 52.5 1471 c 128,-1,24
 63 1490 63 1490 84 1506 c 0,25,26
 132 1540 132 1540 204 1540 c 128,-1,27
 276 1540 276 1540 317 1531 c 1,28,29
 377 1600 377 1600 440 1600 c 0,30,31
 543 1600 543 1600 543 1492 c 2,32,-1
 543 1064 l 1,33,34
 620 1141 620 1141 749 1171 c 0,35,36
 788 1180 788 1180 850 1180 c 128,-1,37
 912 1180 912 1180 980 1162 c 128,-1,38
 1048 1144 1048 1144 1098 1098 c 0,39,40
 1198 1006 1198 1006 1221 770 c 1,41,42
 1231 647 1231 647 1343 596 c 1,43,44
 1272 561 1272 561 1253 537 c 0,45,46
 1227 503 1227 503 1221 456 c 0,47,48
 1192 215 1192 215 1097 100 c 0,49,50
 993 -25 993 -25 796 -25 c 0,51,52
 695 -25 695 -25 588 30 c 0,53,54
 553 47 553 47 525 70 c 1,0,1
447 1250 m 1,55,56
 406 1231 406 1231 397 1178 c 0,57,58
 386 1112 386 1112 386 960 c 2,59,-1
 386 806 l 1,60,-1
 386 774 l 1,61,62
 387 720 387 720 388 627.5 c 128,-1,63
 389 535 389 535 390 485 c 0,64,65
 392 377 392 377 396 348 c 128,-1,66
 400 319 400 319 414.5 295.5 c 128,-1,67
 429 272 429 272 447 265 c 1,68,-1
 447 1250 l 1,55,56
543 317 m 2,69,70
 543 236 543 236 598 178 c 1,71,72
 650 121 650 121 716 121 c 0,73,74
 883 121 883 121 883 361 c 2,75,-1
 883 799 l 2,76,77
 883 987 883 987 796 1022 c 0,78,79
 768 1034 768 1034 733 1034 c 0,80,81
 605 1034 605 1034 560 911 c 0,82,83
 543 866 543 866 543 799 c 2,84,-1
 543 317 l 2,69,70
979 265 m 1,85,86
 1029 284 1029 284 1034 396 c 0,87,88
 1040 508 1040 508 1040 562.5 c 128,-1,89
 1040 617 1040 617 1039.5 653.5 c 128,-1,90
 1039 690 1039 690 1038 729 c 0,91,92
 1034 875 1034 875 1015 899 c 128,-1,93
 996 923 996 923 979 931 c 1,94,-1
 979 265 l 1,85,86
EndSplineSet
EndChar

StartChar: c
Encoding: 99 99 89
Width: 1113
GlyphClass: 2
Flags: W
LayerCount: 2
Fore
SplineSet
925 302 m 1,0,1
 947 344 947 344 1006 344 c 0,2,3
 1046 344 1046 344 1068 311 c 0,4,5
 1086 285 1086 285 1086 247.5 c 128,-1,6
 1086 210 1086 210 1067.5 172 c 128,-1,7
 1049 134 1049 134 1018 103 c 128,-1,8
 987 72 987 72 946.5 48 c 128,-1,9
 906 24 906 24 860 8 c 0,10,11
 767 -25 767 -25 666 -25 c 128,-1,12
 565 -25 565 -25 475 10.5 c 128,-1,13
 385 46 385 46 320 110 c 0,14,15
 189 239 189 239 162 456 c 0,16,17
 155 505 155 505 139 526 c 0,18,19
 109 563 109 563 40 597 c 1,20,21
 146 645 146 645 162 770 c 1,22,23
 188 961 188 961 332 1072 c 1,24,25
 470 1180 470 1180 668 1180 c 0,26,27
 839 1180 839 1180 956 1076 c 0,28,29
 1067 978 1067 978 1067 849 c 0,30,31
 1067 776 1067 776 1118 756 c 1,32,33
 1088 707 1088 707 1034 707 c 0,34,35
 1015 707 1015 707 999 711 c 1,36,37
 964 660 964 660 898 642 c 0,38,39
 877 637 877 637 858 637 c 128,-1,40
 839 637 839 637 813 644.5 c 128,-1,41
 787 652 787 652 777 665 c 1,42,43
 806 677 806 677 811 725 c 1,44,45
 805 724 805 724 800 724 c 2,46,-1
 792 724 l 2,47,48
 724 724 724 724 708 802 c 1,49,50
 782 802 782 802 816 859 c 0,51,52
 828 879 828 879 828 908 c 0,53,54
 828 972 828 972 787 1008.5 c 128,-1,55
 746 1045 746 1045 673 1045 c 0,56,57
 504 1045 504 1045 504 827 c 2,58,-1
 504 341 l 2,59,60
 504 171 504 171 634 126 c 0,61,62
 672 112 672 112 720 112 c 128,-1,63
 768 112 768 112 807.5 124 c 128,-1,64
 847 136 847 136 874 157 c 0,65,66
 929 200 929 200 929 266 c 0,67,68
 929 286 929 286 925 302 c 1,0,1
337 265 m 1,69,70
 351 276 351 276 351 290 c 0,71,72
 351 312 351 312 342 346 c 0,73,74
 301 503 301 503 301 564.5 c 128,-1,75
 301 626 301 626 305 660.5 c 128,-1,76
 309 695 309 695 316 730 c 0,77,78
 328 798 328 798 342 850 c 0,79,80
 351 884 351 884 351 896 c 0,81,82
 351 920 351 920 337 931 c 1,83,84
 295 881 295 881 273 797 c 128,-1,85
 251 713 251 713 237 649 c 0,86,87
 232 623 232 623 178 598 c 1,88,89
 232 573 232 573 237 547 c 0,90,91
 274 378 274 378 298 332 c 128,-1,92
 322 286 322 286 337 265 c 1,69,70
EndSplineSet
EndChar

StartChar: d
Encoding: 100 100 90
Width: 1366
GlyphClass: 2
Flags: W
LayerCount: 2
Fore
SplineSet
1025 -20 m 0,0,1
 923 -20 923 -20 866 90 c 1,2,3
 795 8 795 8 676 -18 c 0,4,5
 641 -25 641 -25 607 -25 c 0,6,7
 397 -25 397 -25 281 108 c 0,8,9
 175 231 175 231 162 456 c 0,10,11
 160 500 160 500 142 523 c 0,12,13
 112 561 112 561 40 596 c 1,14,15
 158 650 158 650 163 762 c 128,-1,16
 168 874 168 874 202.5 953.5 c 128,-1,17
 237 1033 237 1033 295 1084 c 0,18,19
 406 1180 406 1180 605 1180 c 0,20,21
 714 1180 714 1180 794 1124 c 0,22,23
 821 1105 821 1105 840 1080 c 1,24,-1
 840 1295 l 2,25,26
 840 1409 840 1409 747 1409 c 0,27,28
 713 1409 713 1409 691 1392 c 1,29,30
 677 1411 677 1411 677 1431.5 c 128,-1,31
 677 1452 677 1452 687.5 1471 c 128,-1,32
 698 1490 698 1490 720 1506 c 0,33,34
 767 1540 767 1540 839 1540 c 128,-1,35
 911 1540 911 1540 951 1531 c 1,36,37
 1006 1600 1006 1600 1075 1600 c 0,38,39
 1178 1600 1178 1600 1178 1492 c 2,40,-1
 1178 729 l 2,41,42
 1178 653 1178 653 1300 597 c 1,43,44
 1178 542 1178 542 1178 466 c 2,45,-1
 1178 166 l 1,46,47
 1207 91 1207 91 1261 91 c 0,48,49
 1295 91 1295 91 1317 108 c 1,50,51
 1331 89 1331 89 1331 60.5 c 128,-1,52
 1331 32 1331 32 1302.5 6 c 128,-1,53
 1274 -20 1274 -20 1217 -20 c 128,-1,54
 1160 -20 1160 -20 1111 12 c 1,55,56
 1068 -20 1068 -20 1025 -20 c 0,0,1
936 265 m 1,57,58
 986 284 986 284 990 384 c 0,59,60
 991 407 991 407 991.5 440.5 c 128,-1,61
 992 474 992 474 993 515 c 128,-1,62
 994 556 994 556 994 598 c 1,63,-1
 996 678 l 2,64,65
 996 717 996 717 996.5 746.5 c 128,-1,66
 997 776 997 776 997 793 c 2,67,-1
 997 808 l 2,68,69
 997 811 997 811 996.5 836.5 c 128,-1,70
 996 862 996 862 995.5 899.5 c 128,-1,71
 995 937 995 937 994 980 c 2,72,-1
 992 1064 l 2,73,74
 990 1156 990 1156 985 1181 c 0,75,76
 977 1231 977 1231 936 1250 c 1,77,-1
 936 265 l 1,57,58
660 1034 m 0,78,79
 500 1034 500 1034 500 799 c 2,80,-1
 500 361 l 2,81,82
 500 178 500 178 621 134 c 0,83,84
 655 121 655 121 688.5 121 c 128,-1,85
 722 121 722 121 749.5 134.5 c 128,-1,86
 777 148 777 148 797 170 c 0,87,88
 840 219 840 219 840 287 c 2,89,-1
 840 799 l 2,90,91
 840 983 840 983 728 1022 c 0,92,93
 695 1034 695 1034 660 1034 c 0,78,79
337 265 m 1,94,95
 351 276 351 276 351 290 c 0,96,97
 351 312 351 312 342 346 c 0,98,99
 301 503 301 503 301 563.5 c 128,-1,100
 301 624 301 624 305 659 c 128,-1,101
 309 694 309 694 316 728 c 0,102,103
 329 800 329 800 342 850 c 0,104,105
 351 884 351 884 351 896 c 0,106,107
 351 920 351 920 337 931 c 1,108,109
 295 881 295 881 273 796 c 128,-1,110
 251 711 251 711 237 647 c 0,111,112
 232 621 232 621 178 596 c 1,113,114
 232 571 232 571 237 545 c 0,115,116
 274 376 274 376 298 331 c 128,-1,117
 322 286 322 286 337 265 c 1,94,95
EndSplineSet
EndChar

StartChar: e
Encoding: 101 101 91
Width: 1220
GlyphClass: 2
Flags: W
LayerCount: 2
Fore
SplineSet
965 302 m 1,0,1
 987 344 987 344 1046 344 c 0,2,3
 1086 344 1086 344 1108 311 c 0,4,5
 1126 285 1126 285 1126 247.5 c 128,-1,6
 1126 210 1126 210 1107 172 c 128,-1,7
 1088 134 1088 134 1055 103 c 128,-1,8
 1022 72 1022 72 979.5 48 c 128,-1,9
 937 24 937 24 889 8 c 0,10,11
 790 -25 790 -25 683 -25 c 128,-1,12
 576 -25 576 -25 482.5 10.5 c 128,-1,13
 389 46 389 46 322 110 c 0,14,15
 191 236 191 236 162 456 c 0,16,17
 155 505 155 505 139 526 c 0,18,19
 109 563 109 563 40 597 c 1,20,21
 127 636 127 636 151 722 c 0,22,23
 158 746 158 746 162 770 c 0,24,25
 187 946 187 946 340 1070 c 0,26,27
 488 1190 488 1190 671 1190 c 0,28,29
 861 1190 861 1190 1000 1056 c 0,30,31
 1144 918 1144 918 1144 717 c 0,32,33
 1144 710 1144 710 1143.5 703 c 128,-1,34
 1143 696 1143 696 1144 690 c 0,35,36
 1146 677 1146 677 1160 675 c 1,37,38
 1178 652 1178 652 1178 626 c 0,39,40
 1178 566 1178 566 1114 555 c 0,41,42
 1098 552 1098 552 1064 547 c 2,43,-1
 500 457 l 1,44,-1
 500 361 l 2,45,46
 500 245 500 245 570 177 c 0,47,48
 636 112 636 112 737 112 c 0,49,50
 844 112 844 112 909 156 c 0,51,52
 970 198 970 198 970 266 c 0,53,54
 970 282 970 282 965 302 c 1,0,1
790 625 m 1,55,-1
 790 905 l 2,56,57
 790 971 790 971 764 1002 c 0,58,59
 718 1055 718 1055 673 1055 c 128,-1,60
 628 1055 628 1055 598 1041.5 c 128,-1,61
 568 1028 568 1028 546 999 c 0,62,63
 500 938 500 938 500 809 c 2,64,-1
 500 578 l 1,65,-1
 790 625 l 1,55,-1
938 650 m 1,66,-1
 938 681 l 2,67,68
 938 867 938 867 907 906 c 0,69,70
 893 923 893 923 876 931 c 1,71,-1
 876 640 l 1,72,-1
 938 650 l 1,66,-1
337 265 m 1,73,74
 351 276 351 276 351 290 c 0,75,76
 351 312 351 312 342 346 c 0,77,78
 301 503 301 503 301 564.5 c 128,-1,79
 301 626 301 626 305 660.5 c 128,-1,80
 309 695 309 695 316 730 c 0,81,82
 328 798 328 798 342 850 c 0,83,84
 351 884 351 884 351 896 c 0,85,86
 351 920 351 920 337 931 c 1,87,88
 295 881 295 881 273 797 c 128,-1,89
 251 713 251 713 237 649 c 0,90,91
 232 622 232 622 178 597 c 1,92,93
 232 572 232 572 237 547 c 0,94,95
 274 378 274 378 298 332 c 128,-1,96
 322 286 322 286 337 265 c 1,73,74
EndSplineSet
EndChar

StartChar: f
Encoding: 102 102 92
Width: 854
GlyphClass: 2
Flags: W
LayerCount: 2
Fore
SplineSet
288 12 m 1,0,1
 242 -20 242 -20 183.5 -20 c 128,-1,2
 125 -20 125 -20 96.5 6 c 128,-1,3
 68 32 68 32 68 56 c 0,4,5
 68 89 68 89 82 108 c 1,6,7
 104 91 104 91 138 91 c 0,8,9
 196 91 196 91 221 158 c 1,10,-1
 221 466 l 2,11,12
 221 510 221 510 202 530 c 0,13,14
 174 560 174 560 99 597 c 1,15,16
 169 629 169 629 188 648 c 0,17,18
 221 681 221 681 221 729 c 2,19,-1
 221 997 l 1,20,-1
 60 997 l 1,21,22
 52 1009 52 1009 52 1047.5 c 128,-1,23
 52 1086 52 1086 80 1109.5 c 128,-1,24
 108 1133 108 1133 151 1133 c 2,25,-1
 221 1133 l 1,26,-1
 221 1194 l 2,27,28
 221 1426 221 1426 341 1580 c 0,29,30
 469 1743 469 1743 682 1743 c 0,31,32
 906 1743 906 1743 992 1600 c 0,33,34
 1019 1556 1019 1556 1026 1511.5 c 128,-1,35
 1033 1467 1033 1467 1048.5 1453 c 128,-1,36
 1064 1439 1064 1439 1089 1429 c 1,37,38
 1058 1380 1058 1380 1000 1380 c 0,39,40
 988 1380 988 1380 972 1384 c 1,41,42
 933 1325 933 1325 877 1325 c 0,43,44
 774 1325 774 1325 768 1358 c 1,45,46
 805 1362 805 1362 805 1401 c 2,47,-1
 805 1403 l 1,48,49
 788 1397 788 1397 767 1397 c 128,-1,50
 746 1397 746 1397 730.5 1401.5 c 128,-1,51
 715 1406 715 1406 703 1416 c 0,52,53
 675 1439 675 1439 679 1475 c 1,54,55
 768 1475 768 1475 798 1507 c 0,56,57
 809 1518 809 1518 809 1540.5 c 128,-1,58
 809 1563 809 1563 779 1586 c 128,-1,59
 749 1609 749 1609 700.5 1609 c 128,-1,60
 652 1609 652 1609 623 1598.5 c 128,-1,61
 594 1588 594 1588 573 1562 c 0,62,63
 529 1506 529 1506 529 1378 c 0,64,65
 529 1329 529 1329 541.5 1244 c 128,-1,66
 554 1159 554 1159 557 1133 c 1,67,-1
 856 1133 l 1,68,69
 864 1117 864 1117 864 1079.5 c 128,-1,70
 864 1042 864 1042 835 1019.5 c 128,-1,71
 806 997 806 997 765 997 c 2,72,-1
 559 997 l 1,73,-1
 559 729 l 2,74,75
 559 681 559 681 580 660 c 0,76,77
 611 629 611 629 681 597 c 1,78,79
 606 560 606 560 587 541 c 1,80,81
 559 510 559 510 559 466 c 2,82,-1
 559 164 l 1,83,84
 589 91 589 91 662 91 c 0,85,86
 706 91 706 91 728 108 c 1,87,88
 742 89 742 89 742 68 c 128,-1,89
 742 47 742 47 733.5 32.5 c 128,-1,90
 725 18 725 18 708 6 c 0,91,92
 673 -20 673 -20 612 -20 c 128,-1,93
 551 -20 551 -20 493 14 c 1,94,95
 452 -20 452 -20 393.5 -20 c 128,-1,96
 335 -20 335 -20 288 12 c 1,0,1
305 649 m 2,97,98
 305 621 305 621 237 598 c 1,99,100
 297 577 297 577 305 547 c 0,101,102
 317 499 317 499 317 330 c 2,103,-1
 317 265 l 1,104,105
 369 295 369 295 372 434 c 0,106,107
 373 513 373 513 373 575 c 2,108,-1
 373 678 l 2,109,110
 373 1023 373 1023 377 1041 c 128,-1,111
 381 1059 381 1059 382.5 1061.5 c 128,-1,112
 384 1064 384 1064 386 1080 c 1,113,114
 344 1060 344 1060 330 1021 c 0,115,116
 305 951 305 951 305 809 c 2,117,-1
 305 649 l 2,97,98
EndSplineSet
EndChar

StartChar: g
Encoding: 103 103 93
Width: 1226
GlyphClass: 2
Flags: W
LayerCount: 2
Fore
SplineSet
216 -39 m 1,0,1
 144 27 144 27 144 125 c 0,2,3
 144 271 144 271 317 365 c 1,4,5
 204 444 204 444 152 615 c 0,6,7
 135 668 135 668 118 687 c 0,8,9
 93 717 93 717 32 747 c 1,10,11
 82 770 82 770 108.5 806 c 128,-1,12
 135 842 135 842 154.5 900 c 128,-1,13
 174 958 174 958 209.5 1011 c 128,-1,14
 245 1064 245 1064 301 1104 c 0,15,16
 424 1190 424 1190 618 1190 c 0,17,18
 680 1190 680 1190 747 1177 c 1,19,20
 761 1286 761 1286 844 1362 c 1,21,22
 926 1439 926 1439 1036 1439 c 0,23,24
 1165 1439 1165 1439 1253 1372 c 0,25,26
 1301 1336 1301 1336 1349 1345 c 1,27,28
 1353 1265 1353 1265 1287 1242 c 1,29,30
 1276 1107 1276 1107 1170 1107 c 0,31,32
 1128 1107 1128 1107 1119 1113 c 1,33,34
 1134 1126 1134 1126 1134 1146.5 c 128,-1,35
 1134 1167 1134 1167 1117 1182 c 1,36,37
 1096 1143 1096 1143 1023 1143 c 0,38,39
 983 1143 983 1143 960 1181 c 1,40,41
 998 1193 998 1193 1020 1217.5 c 128,-1,42
 1042 1242 1042 1242 1042 1263 c 0,43,44
 1042 1318 1042 1318 984 1318 c 0,45,46
 872 1318 872 1318 853 1144 c 1,47,48
 1035 1066 1035 1066 1085 899 c 0,49,50
 1118 786 1118 786 1207 747 c 1,51,52
 1129 708 1129 708 1104 660 c 0,53,54
 1094 641 1094 641 1086 615 c 0,55,56
 1032 445 1032 445 917 364.5 c 128,-1,57
 802 284 802 284 621 284 c 0,58,59
 506 284 506 284 421 312 c 1,60,61
 388 291 388 291 388 265.5 c 128,-1,62
 388 240 388 240 398 222.5 c 128,-1,63
 408 205 408 205 434 191 c 0,64,65
 485 164 485 164 628 143 c 1,66,67
 693 130 693 130 762 227 c 1,68,69
 766 176 766 176 785 150.5 c 128,-1,70
 804 125 804 125 827 122 c 0,71,72
 1103 81 1103 81 1184 -58 c 0,73,74
 1212 -105 1212 -105 1212 -178.5 c 128,-1,75
 1212 -252 1212 -252 1165 -321.5 c 128,-1,76
 1118 -391 1118 -391 1038 -440 c 0,77,78
 872 -540 872 -540 630 -540 c 0,79,80
 346 -540 346 -540 196 -447 c 0,81,82
 67 -366 67 -366 67 -240 c 0,83,84
 67 -156 67 -156 152 -81 c 0,85,86
 180 -57 180 -57 216 -39 c 1,0,1
568 426.5 m 128,-1,88
 590 418 590 418 619.5 418 c 128,-1,89
 649 418 649 418 671 426.5 c 128,-1,90
 693 435 693 435 708 456 c 0,91,92
 737 497 737 497 737 594 c 2,93,-1
 737 871 l 2,94,95
 737 968 737 968 715 999 c 128,-1,96
 693 1030 693 1030 671 1038.5 c 128,-1,97
 649 1047 649 1047 619.5 1047 c 128,-1,98
 590 1047 590 1047 568 1038.5 c 128,-1,99
 546 1030 546 1030 532 1010 c 0,100,101
 502 968 502 968 502 871 c 2,102,-1
 502 594 l 2,103,104
 502 497 502 497 524 466 c 128,-1,87
 546 435 546 435 568 426.5 c 128,-1,88
834 473 m 1,105,106
 880 489 880 489 887 572 c 0,107,108
 894 650 894 650 894 747 c 0,109,110
 894 897 894 897 886 939 c 0,111,112
 874 995 874 995 834 1012 c 1,113,-1
 834 473 l 1,105,106
313 473 m 1,114,115
 333 488 333 488 333 508 c 0,116,117
 333 534 333 534 326 558 c 0,118,119
 299 650 299 650 299 747 c 0,120,121
 299 843 299 843 326 935 c 0,122,123
 333 959 333 959 333 973 c 2,124,-1
 333 997 l 2,125,126
 333 1006 333 1006 325 1012 c 1,127,128
 284 962 284 962 265.5 898 c 128,-1,129
 247 834 247 834 236 785 c 0,130,131
 232 770 232 770 180 747 c 1,132,133
 233 721 233 721 236 708 c 2,134,-1
 256 624 l 2,135,136
 282 518 282 518 313 473 c 1,114,115
262 117 m 1,137,138
 253 108 253 108 253 91 c 0,139,140
 257 -17 257 -17 561 -72 c 1,141,142
 596 -80 596 -80 611 -148 c 1,143,144
 616 -126 616 -126 650.5 -111.5 c 128,-1,145
 685 -97 685 -97 697 -98 c 0,146,147
 848 -116 848 -116 901 -132 c 0,148,149
 995 -161 995 -161 1038 -218 c 1,150,151
 1050 -204 1050 -204 1050 -182 c 128,-1,152
 1050 -160 1050 -160 1028 -137.5 c 128,-1,153
 1006 -115 1006 -115 956 -98 c 0,154,155
 870 -67 870 -67 723 -50 c 128,-1,156
 576 -33 576 -33 516.5 -20 c 128,-1,157
 457 -7 457 -7 407 12 c 0,158,159
 298 55 298 55 262 117 c 1,137,138
316 -103 m 1,160,161
 245 -134 245 -134 245 -219 c 0,162,163
 245 -287 245 -287 348 -342 c 0,164,165
 463 -404 463 -404 645 -404 c 0,166,167
 869 -404 869 -404 936 -327 c 0,168,169
 955 -306 955 -306 955 -282.5 c 128,-1,170
 955 -259 955 -259 932.5 -241 c 128,-1,171
 910 -223 910 -223 874 -212 c 1,172,173
 821 -194 821 -194 707 -181 c 0,174,175
 652 -175 652 -175 571 -262 c 1,176,177
 571 -206 571 -206 552.5 -181 c 128,-1,178
 534 -156 534 -156 516 -154 c 0,179,180
 400 -139 400 -139 316 -103 c 1,160,161
EndSplineSet
EndChar

StartChar: h
Encoding: 104 104 94
Width: 1391
GlyphClass: 2
Flags: W
LayerCount: 2
Fore
SplineSet
286 12 m 1,0,1
 240 -20 240 -20 181.5 -20 c 128,-1,2
 123 -20 123 -20 94.5 6 c 128,-1,3
 66 32 66 32 66 56 c 0,4,5
 66 89 66 89 80 108 c 1,6,7
 102 91 102 91 136 91 c 0,8,9
 194 91 194 91 219 158 c 1,10,-1
 219 466 l 2,11,12
 219 516 219 516 200 534 c 1,13,14
 177 558 177 558 97 597 c 1,15,16
 167 629 167 629 186 648 c 0,17,18
 219 681 219 681 219 729 c 2,19,-1
 219 1295 l 2,20,21
 219 1409 219 1409 126 1409 c 0,22,23
 92 1409 92 1409 70 1392 c 1,24,25
 56 1411 56 1411 56 1431.5 c 128,-1,26
 56 1452 56 1452 66.5 1471 c 128,-1,27
 77 1490 77 1490 98 1506 c 0,28,29
 146 1540 146 1540 218 1540 c 128,-1,30
 290 1540 290 1540 330 1531 c 1,31,32
 385 1600 385 1600 454 1600 c 0,33,34
 557 1600 557 1600 557 1492 c 2,35,-1
 557 999 l 1,36,37
 654 1180 654 1180 874 1180 c 0,38,39
 1126 1180 1126 1180 1195 957 c 0,40,41
 1217 886 1217 886 1217 796 c 2,42,-1
 1217 729 l 2,43,44
 1217 682 1217 682 1238 661 c 0,45,46
 1269 630 1269 630 1339 598 c 1,47,48
 1263 561 1263 561 1245 541 c 0,49,50
 1217 510 1217 510 1217 466 c 2,51,-1
 1217 153 l 1,52,53
 1236 91 1236 91 1300 91 c 0,54,55
 1334 91 1334 91 1356 108 c 1,56,57
 1367 93 1367 93 1367 64 c 128,-1,58
 1367 35 1367 35 1340.5 7.5 c 128,-1,59
 1314 -20 1314 -20 1256 -20 c 128,-1,60
 1198 -20 1198 -20 1149 12 c 1,61,62
 1104 -20 1104 -20 1047.5 -20 c 128,-1,63
 991 -20 991 -20 949 10 c 1,64,65
 910 -20 910 -20 861.5 -20 c 128,-1,66
 813 -20 813 -20 784 5 c 128,-1,67
 755 30 755 30 755 77 c 0,68,69
 755 99 755 99 770 112 c 1,70,71
 793 94 793 94 816 94 c 0,72,73
 860 94 860 94 879 143 c 1,74,-1
 879 739 l 2,75,76
 879 934 879 934 784 964 c 0,77,78
 754 974 754 974 719 974 c 0,79,80
 615 974 615 974 574 864 c 0,81,82
 561 830 561 830 557 790 c 1,83,-1
 557 143 l 1,84,85
 576 94 576 94 620 94 c 0,86,87
 643 94 643 94 666 112 c 1,88,89
 681 99 681 99 681 64.5 c 128,-1,90
 681 30 681 30 652 5 c 128,-1,91
 623 -20 623 -20 574 -20 c 128,-1,92
 525 -20 525 -20 486 10 c 1,93,94
 445 -20 445 -20 389 -20 c 128,-1,95
 333 -20 333 -20 286 12 c 1,0,1
313 266 m 1,96,97
 358 295 358 295 366 393 c 0,98,99
 369 436 369 436 370 489 c 128,-1,100
 371 542 371 542 371.5 564.5 c 128,-1,101
 372 587 372 587 372 598 c 2,102,-1
 372 688 l 2,103,104
 372 725 372 725 372 772 c 2,105,-1
 370 870 l 1,106,107
 368 1135 368 1135 361 1165 c 0,108,109
 347 1228 347 1228 313 1250 c 1,110,-1
 313 913 l 2,111,112
 313 706 313 706 308.5 682.5 c 128,-1,113
 304 659 304 659 301 648 c 0,114,115
 292 617 292 617 233 597 c 1,116,117
 293 576 293 576 301 547 c 0,118,119
 313 499 313 499 313 331 c 2,120,-1
 313 266 l 1,96,97
974 265 m 1,121,122
 1024 284 1024 284 1030 396 c 0,123,124
 1035 508 1035 508 1035 601.5 c 128,-1,125
 1035 695 1035 695 1029 754 c 128,-1,126
 1023 813 1023 813 1009.5 847.5 c 128,-1,127
 996 882 996 882 975 899.5 c 128,-1,128
 954 917 954 917 924 932 c 1,129,130
 962 842 962 842 968 768 c 128,-1,131
 974 694 974 694 974 625 c 2,132,-1
 974 265 l 1,121,122
EndSplineSet
EndChar

StartChar: i
Encoding: 105 105 95
Width: 716
GlyphClass: 2
Flags: W
LayerCount: 2
Fore
SplineSet
375 1323 m 256,0,1
 324 1323 324 1323 276.5 1350 c 128,-1,2
 229 1377 229 1377 204 1422 c 1,3,4
 177 1468 177 1468 132 1492 c 0,5,6
 118 1499 118 1499 100 1507 c 1,7,-1
 134 1528 l 2,8,9
 182 1558 182 1558 205 1601 c 128,-1,10
 228 1644 228 1644 274.5 1668.5 c 128,-1,11
 321 1693 321 1693 375 1693 c 0,12,13
 487 1693 487 1693 537 1599 c 0,14,15
 571 1537 571 1537 642 1507 c 1,16,17
 627 1498 627 1498 612.5 1491 c 128,-1,18
 598 1484 598 1484 585 1475 c 0,19,20
 556 1455 556 1455 533.5 1416 c 128,-1,21
 511 1377 511 1377 468.5 1350 c 128,-1,22
 426 1323 426 1323 375 1323 c 256,0,1
312.5 1470.5 m 128,-1,24
 309 1485 309 1485 309 1522 c 128,-1,25
 309 1559 309 1559 347 1616 c 1,26,27
 310 1616 310 1616 295 1602.5 c 128,-1,28
 280 1589 280 1589 272.5 1579.5 c 128,-1,29
 265 1570 265 1570 259.5 1560.5 c 128,-1,30
 254 1551 254 1551 246 1540 c 0,31,32
 227 1513 227 1513 215 1507 c 1,33,34
 231 1498 231 1498 244.5 1478.5 c 128,-1,35
 258 1459 258 1459 276 1438 c 0,36,37
 303 1405 303 1405 347 1405 c 1,38,39
 341 1416 341 1416 334.5 1425.5 c 128,-1,40
 328 1435 328 1435 322 1445.5 c 128,-1,23
 316 1456 316 1456 312.5 1470.5 c 128,-1,24
275 12 m 1,41,42
 229 -20 229 -20 170.5 -20 c 128,-1,43
 112 -20 112 -20 83.5 6 c 128,-1,44
 55 32 55 32 55 56 c 0,45,46
 55 89 55 89 69 108 c 1,47,48
 91 91 91 91 134 91 c 128,-1,49
 177 91 177 91 208 147 c 1,50,-1
 208 466 l 2,51,52
 208 510 208 510 190 530 c 0,53,54
 161 560 161 560 86 597 c 1,55,56
 156 629 156 629 175 648 c 0,57,58
 208 681 208 681 208 729 c 2,59,-1
 208 875 l 2,60,61
 208 960 208 960 150 967 c 0,62,63
 133 969 133 969 107 969 c 128,-1,64
 81 969 81 969 59 952 c 1,65,66
 45 971 45 971 45 991.5 c 128,-1,67
 45 1012 45 1012 55.5 1037.5 c 128,-1,68
 66 1063 66 1063 88 1086 c 0,69,70
 140 1140 140 1140 208 1140 c 128,-1,71
 276 1140 276 1140 331 1116 c 1,72,73
 380 1180 380 1180 443 1180 c 0,74,75
 546 1180 546 1180 546 1072 c 2,76,-1
 546 729 l 2,77,78
 546 681 546 681 567 660 c 0,79,80
 598 629 598 629 668 597 c 1,81,82
 593 560 593 560 574 541 c 1,83,84
 546 510 546 510 546 466 c 2,85,-1
 546 144 l 1,86,87
 579 91 579 91 621 91 c 128,-1,88
 663 91 663 91 685 108 c 1,89,90
 699 89 699 89 699 60.5 c 128,-1,91
 699 32 699 32 670.5 6 c 128,-1,92
 642 -20 642 -20 585 -20 c 128,-1,93
 528 -20 528 -20 479 12 c 1,94,95
 438 -20 438 -20 380 -20 c 128,-1,96
 322 -20 322 -20 275 12 c 1,41,42
362.5 543 m 128,-1,98
 363 566 363 566 363 580 c 2,99,-1
 363 607 l 2,100,101
 363 622 363 622 362.5 646 c 128,-1,102
 362 670 362 670 361.5 699 c 128,-1,103
 361 728 361 728 360 756 c 0,104,105
 356 825 356 825 350 851 c 0,106,107
 338 909 338 909 304 931 c 1,108,-1
 304 866 l 2,109,110
 304 697 304 697 296.5 667.5 c 128,-1,111
 289 638 289 638 272.5 623.5 c 128,-1,112
 256 609 256 609 224 598 c 1,113,114
 284 577 284 577 292 547 c 0,115,116
 304 499 304 499 304 330 c 2,117,-1
 304 265 l 1,118,119
 350 295 350 295 356 388 c 0,120,121
 361 452 361 452 361.5 486 c 128,-1,97
 362 520 362 520 362.5 543 c 128,-1,98
EndSplineSet
EndChar

StartChar: j
Encoding: 106 106 96
Width: 735
GlyphClass: 2
Flags: W
LayerCount: 2
Fore
SplineSet
375 1323 m 256,0,1
 324 1323 324 1323 276.5 1350 c 128,-1,2
 229 1377 229 1377 204 1422 c 1,3,4
 177 1468 177 1468 132 1492 c 0,5,6
 118 1499 118 1499 100 1507 c 1,7,-1
 134 1528 l 2,8,9
 182 1558 182 1558 205 1601 c 128,-1,10
 228 1644 228 1644 274.5 1668.5 c 128,-1,11
 321 1693 321 1693 375 1693 c 0,12,13
 487 1693 487 1693 537 1599 c 0,14,15
 571 1537 571 1537 642 1507 c 1,16,17
 627 1498 627 1498 612.5 1491 c 128,-1,18
 598 1484 598 1484 585 1475 c 0,19,20
 556 1455 556 1455 533.5 1416 c 128,-1,21
 511 1377 511 1377 468.5 1350 c 128,-1,22
 426 1323 426 1323 375 1323 c 256,0,1
315.5 1470.5 m 128,-1,24
 312 1485 312 1485 312 1522 c 128,-1,25
 312 1559 312 1559 350 1616 c 1,26,27
 313 1616 313 1616 298 1602.5 c 128,-1,28
 283 1589 283 1589 275.5 1579.5 c 128,-1,29
 268 1570 268 1570 262.5 1560.5 c 128,-1,30
 257 1551 257 1551 250 1540 c 0,31,32
 230 1513 230 1513 218 1507 c 1,33,34
 234 1498 234 1498 247.5 1478.5 c 128,-1,35
 261 1459 261 1459 279 1438 c 0,36,37
 306 1405 306 1405 350 1405 c 1,38,39
 344 1416 344 1416 337.5 1425.5 c 128,-1,40
 331 1435 331 1435 325 1445.5 c 128,-1,23
 319 1456 319 1456 315.5 1470.5 c 128,-1,24
327 1118 m 1,41,42
 375 1180 375 1180 432.5 1180 c 128,-1,43
 490 1180 490 1180 518 1157 c 128,-1,44
 546 1134 546 1134 546 1072 c 2,45,-1
 546 729 l 2,46,47
 546 681 546 681 567 660 c 0,48,49
 598 629 598 629 668 597 c 1,50,51
 592 560 592 560 574 540 c 0,52,53
 546 509 546 509 546 465 c 2,54,-1
 546 159 l 2,55,56
 546 80 546 80 562 57 c 1,57,58
 581 27 581 27 628 0 c 1,59,60
 563 -22 563 -22 544 -85 c 0,61,62
 539 -102 539 -102 525 -161 c 128,-1,63
 511 -220 511 -220 467 -293.5 c 128,-1,64
 423 -367 423 -367 364 -415 c 0,65,66
 247 -510 247 -510 86 -510 c 0,67,68
 -60 -510 -60 -510 -166 -431 c 0,69,70
 -273 -351 -273 -351 -273 -229 c 0,71,72
 -273 -183 -273 -183 -246.5 -161.5 c 128,-1,73
 -220 -140 -220 -140 -194.5 -140 c 128,-1,74
 -169 -140 -169 -140 -157 -144.5 c 128,-1,75
 -145 -149 -145 -149 -136 -155 c 0,76,77
 -119 -166 -119 -166 -113 -178 c 1,78,79
 -116 -195 -116 -195 -116 -220 c 128,-1,80
 -116 -245 -116 -245 -103 -276 c 128,-1,81
 -90 -307 -90 -307 -66 -331 c 0,82,83
 -14 -383 -14 -383 62 -383 c 0,84,85
 208 -383 208 -383 208 -135 c 2,86,-1
 208 465 l 2,87,88
 208 509 208 509 190 529 c 0,89,90
 162 560 162 560 86 597 c 1,91,92
 156 629 156 629 175 648 c 0,93,94
 208 681 208 681 208 729 c 2,95,-1
 208 875 l 2,96,97
 208 960 208 960 150 967 c 0,98,99
 133 969 133 969 107 969 c 128,-1,100
 81 969 81 969 59 952 c 1,101,102
 45 971 45 971 45 991.5 c 128,-1,103
 45 1012 45 1012 55.5 1037.5 c 128,-1,104
 66 1063 66 1063 88 1086 c 0,105,106
 140 1140 140 1140 208.5 1140 c 128,-1,107
 277 1140 277 1140 327 1118 c 1,41,42
304 -24 m 1,108,109
 350 6 350 6 356 96 c 0,110,111
 357 123 357 123 358 197 c 2,112,-1
 360 314 l 2,113,114
 360 358 360 358 360 400 c 2,115,-1
 360 643 l 2,116,117
 360 667 360 667 360 696 c 2,118,-1
 358 754 l 1,119,120
 357 815 357 815 351 846 c 0,121,122
 339 909 339 909 304 931 c 1,123,-1
 304 866 l 2,124,125
 304 697 304 697 296.5 667.5 c 128,-1,126
 289 638 289 638 272.5 623 c 128,-1,127
 256 608 256 608 224 597 c 1,128,129
 284 576 284 576 292 547 c 0,130,131
 304 499 304 499 304 55 c 2,132,-1
 304 -24 l 1,108,109
EndSplineSet
EndChar

StartChar: k
Encoding: 107 107 97
Width: 1375
GlyphClass: 2
Flags: W
LayerCount: 2
Fore
SplineSet
275 12 m 1,0,1
 229 -20 229 -20 170.5 -20 c 128,-1,2
 112 -20 112 -20 83.5 6 c 128,-1,3
 55 32 55 32 55 56 c 0,4,5
 55 89 55 89 69 108 c 1,6,7
 91 91 91 91 125 91 c 0,8,9
 183 91 183 91 208 158 c 1,10,-1
 208 465 l 2,11,12
 208 509 208 509 190 529 c 0,13,14
 162 560 162 560 86 597 c 1,15,16
 156 629 156 629 175 648 c 0,17,18
 208 681 208 681 208 729 c 2,19,-1
 208 1295 l 2,20,21
 208 1409 208 1409 115 1409 c 0,22,23
 81 1409 81 1409 59 1392 c 1,24,25
 45 1411 45 1411 45 1431.5 c 128,-1,26
 45 1452 45 1452 55.5 1471 c 128,-1,27
 66 1490 66 1490 88 1506 c 0,28,29
 135 1540 135 1540 207 1540 c 128,-1,30
 279 1540 279 1540 319 1531 c 1,31,32
 374 1600 374 1600 443 1600 c 0,33,34
 546 1600 546 1600 546 1492 c 2,35,-1
 546 655 l 1,36,-1
 835 922 l 1,37,38
 901 990 901 990 901 1020 c 128,-1,39
 901 1050 901 1050 863 1050 c 128,-1,40
 825 1050 825 1050 792 1031 c 1,41,42
 781 1049 781 1049 781 1077.5 c 128,-1,43
 781 1106 781 1106 811 1133 c 128,-1,44
 841 1160 841 1160 896 1160 c 128,-1,45
 951 1160 951 1160 993 1126 c 1,46,47
 1032 1160 1032 1160 1078 1160 c 128,-1,48
 1124 1160 1124 1160 1158 1133 c 1,49,50
 1192 1160 1192 1160 1238 1160 c 128,-1,51
 1284 1160 1284 1160 1314.5 1136 c 128,-1,52
 1345 1112 1345 1112 1345 1072 c 0,53,54
 1345 1035 1345 1035 1335 1021 c 1,55,56
 1308 1048 1308 1048 1268.5 1048 c 128,-1,57
 1229 1048 1229 1048 1204.5 1036.5 c 128,-1,58
 1180 1025 1180 1025 1151 1003.5 c 128,-1,59
 1122 982 1122 982 1087 951 c 2,60,-1
 921 807 l 1,61,-1
 1226 207 l 1,62,63
 1254 147 1254 147 1275.5 119 c 128,-1,64
 1297 91 1297 91 1330.5 91 c 128,-1,65
 1364 91 1364 91 1386 108 c 1,66,67
 1400 89 1400 89 1400 60.5 c 128,-1,68
 1400 32 1400 32 1371.5 6 c 128,-1,69
 1343 -20 1343 -20 1281 -20 c 128,-1,70
 1219 -20 1219 -20 1161 14 c 1,71,72
 1114 -20 1114 -20 1057.5 -20 c 128,-1,73
 1001 -20 1001 -20 959 10 c 1,74,75
 920 -20 920 -20 871.5 -20 c 128,-1,76
 823 -20 823 -20 794 3.5 c 128,-1,77
 765 27 765 27 765 63 c 128,-1,78
 765 99 765 99 780 112 c 1,79,80
 819 82 819 82 858 102 c 0,81,82
 872 109 872 109 883 129 c 1,83,-1
 671 590 l 1,84,-1
 546 481 l 1,85,-1
 546 143 l 1,86,87
 565 94 565 94 609 94 c 0,88,89
 632 94 632 94 655 112 c 1,90,91
 670 99 670 99 670 62.5 c 128,-1,92
 670 26 670 26 641 3 c 128,-1,93
 612 -20 612 -20 563 -20 c 128,-1,94
 514 -20 514 -20 475 10 c 1,95,96
 434 -20 434 -20 378 -20 c 128,-1,97
 322 -20 322 -20 275 12 c 1,0,1
359 619 m 1,98,-1
 360 752 l 1,99,-1
 360 948 l 2,100,101
 360 1134 360 1134 353 1165 c 0,102,103
 339 1226 339 1226 302 1250 c 1,104,-1
 302 913 l 2,105,106
 302 706 302 706 297.5 682.5 c 128,-1,107
 293 659 293 659 290 648 c 0,108,109
 281 617 281 617 222 597 c 1,110,111
 282 576 282 576 290 547 c 0,112,113
 302 499 302 499 302 331 c 2,114,-1
 302 266 l 1,115,116
 355 300 355 300 358 446 c 1,117,-1
 358 506 l 1,118,119
 359 536 359 536 359 559 c 2,120,-1
 359 619 l 1,98,-1
937 265 m 1,121,122
 950 282 950 282 950 311 c 128,-1,123
 950 340 950 340 945.5 363 c 128,-1,124
 941 386 941 386 934 409 c 1,125,126
 921 446 921 446 896 497 c 1,127,-1
 801 703 l 1,128,-1
 756 663 l 1,129,-1
 937 265 l 1,121,122
EndSplineSet
EndChar

StartChar: l
Encoding: 108 108 98
Width: 734
GlyphClass: 2
Flags: W
LayerCount: 2
Fore
SplineSet
281 12 m 1,0,1
 235 -20 235 -20 176.5 -20 c 128,-1,2
 118 -20 118 -20 89.5 6 c 128,-1,3
 61 32 61 32 61 56 c 0,4,5
 61 89 61 89 75 108 c 1,6,7
 97 91 97 91 131 91 c 0,8,9
 189 91 189 91 214 158 c 1,10,-1
 214 466 l 2,11,12
 214 510 214 510 196 530 c 0,13,14
 167 560 167 560 92 597 c 1,15,16
 162 629 162 629 182 649 c 0,17,18
 214 682 214 682 214 730 c 2,19,-1
 214 1295 l 2,20,21
 214 1409 214 1409 121 1409 c 0,22,23
 87 1409 87 1409 65 1392 c 1,24,25
 51 1411 51 1411 51 1431.5 c 128,-1,26
 51 1452 51 1452 61.5 1471 c 128,-1,27
 72 1490 72 1490 94 1506 c 0,28,29
 141 1540 141 1540 213 1540 c 128,-1,30
 285 1540 285 1540 325 1531 c 1,31,32
 380 1600 380 1600 449 1600 c 0,33,34
 549 1600 549 1600 549 1492 c 2,35,-1
 549 730 l 2,36,37
 549 682 549 682 570 661 c 0,38,39
 601 629 601 629 671 597 c 1,40,41
 596 560 596 560 577 541 c 1,42,43
 549 510 549 510 549 466 c 2,44,-1
 549 158 l 1,45,46
 573 91 573 91 632 91 c 0,47,48
 666 91 666 91 688 108 c 1,49,50
 702 89 702 89 702 60.5 c 128,-1,51
 702 32 702 32 673.5 6 c 128,-1,52
 645 -20 645 -20 588 -20 c 128,-1,53
 531 -20 531 -20 482 12 c 1,54,55
 441 -20 441 -20 384.5 -20 c 128,-1,56
 328 -20 328 -20 281 12 c 1,0,1
310 266 m 1,57,58
 355 295 355 295 363 393 c 0,59,60
 366 436 366 436 367 489 c 128,-1,61
 368 542 368 542 368.5 564.5 c 128,-1,62
 369 587 369 587 369 598 c 2,63,-1
 369 688 l 2,64,65
 369 725 369 725 368 772 c 1,66,-1
 368 870 l 1,67,68
 365 1135 365 1135 358 1165 c 0,69,70
 344 1228 344 1228 310 1250 c 1,71,-1
 310 913 l 2,72,73
 310 706 310 706 305.5 682.5 c 128,-1,74
 301 659 301 659 298 648 c 0,75,76
 289 617 289 617 230 597 c 1,77,78
 290 576 290 576 298 547 c 0,79,80
 310 499 310 499 310 331 c 2,81,-1
 310 266 l 1,57,58
EndSplineSet
EndChar

StartChar: m
Encoding: 109 109 99
Width: 2048
GlyphClass: 2
Flags: W
LayerCount: 2
Fore
SplineSet
288 12 m 1,0,1
 242 -20 242 -20 183 -20 c 128,-1,2
 124 -20 124 -20 97.5 7.5 c 128,-1,3
 71 35 71 35 71 60 c 0,4,5
 71 93 71 93 82 108 c 1,6,7
 104 91 104 91 138 91 c 0,8,9
 202 91 202 91 221 153 c 1,10,-1
 221 465 l 2,11,12
 221 509 221 509 202 529 c 1,13,14
 175 560 175 560 99 597 c 1,15,16
 169 629 169 629 188 648 c 0,17,18
 221 681 221 681 221 729 c 2,19,-1
 221 875 l 2,20,21
 221 960 221 960 163 967 c 0,22,23
 146 969 146 969 120 969 c 128,-1,24
 94 969 94 969 72 952 c 1,25,26
 58 971 58 971 58 991.5 c 128,-1,27
 58 1012 58 1012 68.5 1037.5 c 128,-1,28
 79 1063 79 1063 100 1086 c 1,29,30
 153 1140 153 1140 222.5 1140 c 128,-1,31
 292 1140 292 1140 338 1118 c 1,32,33
 393 1180 393 1180 456 1180 c 0,34,35
 559 1180 559 1180 559 1072 c 1,36,-1
 558 989 l 1,37,38
 642 1123 642 1123 792 1166 c 0,39,40
 841 1180 841 1180 893 1180 c 0,41,42
 1011 1180 1011 1180 1089 1123 c 128,-1,43
 1167 1066 1167 1066 1201 961 c 1,44,45
 1276 1116 1276 1116 1444 1164 c 0,46,47
 1499 1180 1499 1180 1568.5 1180 c 128,-1,48
 1638 1180 1638 1180 1699.5 1153.5 c 128,-1,49
 1761 1127 1761 1127 1804 1078 c 0,50,51
 1891 976 1891 976 1891 796 c 1,52,-1
 1888 729 l 1,53,54
 1888 681 1888 681 1909 660 c 0,55,56
 1940 629 1940 629 2010 597 c 1,57,58
 1934 560 1934 560 1916 540 c 0,59,60
 1888 509 1888 509 1888 465 c 2,61,-1
 1888 153 l 1,62,63
 1907 91 1907 91 1971 91 c 0,64,65
 1995 91 1995 91 2017 108 c 1,66,67
 2023 100 2023 100 2030.5 92.5 c 128,-1,68
 2038 85 2038 85 2038 60 c 128,-1,69
 2038 35 2038 35 2011.5 7.5 c 128,-1,70
 1985 -20 1985 -20 1927.5 -20 c 128,-1,71
 1870 -20 1870 -20 1821 12 c 1,72,73
 1776 -20 1776 -20 1720.5 -20 c 128,-1,74
 1665 -20 1665 -20 1623 10 c 1,75,76
 1584 -20 1584 -20 1535.5 -20 c 128,-1,77
 1487 -20 1487 -20 1458 5 c 128,-1,78
 1429 30 1429 30 1429 77 c 0,79,80
 1429 99 1429 99 1444 112 c 1,81,82
 1467 94 1467 94 1490 94 c 0,83,84
 1534 94 1534 94 1553 143 c 1,85,-1
 1553 739 l 2,86,87
 1553 974 1553 974 1382 974 c 0,88,89
 1333 974 1333 974 1286 917 c 0,90,91
 1239 861 1239 861 1225 781 c 1,92,-1
 1222 143 l 1,93,94
 1241 94 1241 94 1285 94 c 0,95,96
 1308 94 1308 94 1331 112 c 1,97,98
 1346 99 1346 99 1346 64.5 c 128,-1,99
 1346 30 1346 30 1317 5 c 128,-1,100
 1288 -20 1288 -20 1239 -20 c 128,-1,101
 1190 -20 1190 -20 1151 10 c 1,102,103
 1108 -20 1108 -20 1053.5 -20 c 128,-1,104
 999 -20 999 -20 957 10 c 1,105,106
 918 -20 918 -20 869.5 -20 c 128,-1,107
 821 -20 821 -20 792 5 c 128,-1,108
 763 30 763 30 763 77 c 0,109,110
 763 99 763 99 778 112 c 1,111,112
 801 94 801 94 824 94 c 0,113,114
 868 94 868 94 887 143 c 1,115,-1
 887 739 l 2,116,117
 887 926 887 926 796 962 c 0,118,119
 767 974 767 974 732 974 c 0,120,121
 665 974 665 974 616 916 c 0,122,123
 570 862 570 862 558 780 c 1,124,-1
 556 143 l 1,125,126
 575 94 575 94 619 94 c 0,127,128
 642 94 642 94 665 112 c 1,129,130
 683 97 683 97 683 63.5 c 128,-1,131
 683 30 683 30 652.5 5 c 128,-1,132
 622 -20 622 -20 572.5 -20 c 128,-1,133
 523 -20 523 -20 485 9 c 1,134,135
 445 -20 445 -20 390 -20 c 128,-1,136
 335 -20 335 -20 288 12 c 1,0,1
1619 931 m 1,137,138
 1649 858 1649 858 1649 646 c 2,139,-1
 1649 265 l 1,140,141
 1699 284 1699 284 1704 396 c 0,142,143
 1710 508 1710 508 1710 594.5 c 128,-1,144
 1710 681 1710 681 1705 739 c 128,-1,145
 1700 797 1700 797 1689 836 c 0,146,147
 1669 906 1669 906 1619 931 c 1,137,138
953 931 m 1,148,149
 983 858 983 858 983 646 c 2,150,-1
 983 265 l 1,151,152
 1033 284 1033 284 1038 396 c 0,153,154
 1044 508 1044 508 1044 594.5 c 128,-1,155
 1044 681 1044 681 1039 739 c 128,-1,156
 1034 797 1034 797 1023 836 c 0,157,158
 1003 906 1003 906 953 931 c 1,148,149
317 265 m 1,159,160
 364 295 364 295 370 390 c 0,161,162
 374 462 374 462 374 519 c 2,163,-1
 374 646 l 2,164,165
 374 794 374 794 366 836 c 0,166,167
 352 908 352 908 317 931 c 1,168,-1
 317 866 l 2,169,170
 317 697 317 697 309.5 667.5 c 128,-1,171
 302 638 302 638 285.5 623 c 128,-1,172
 269 608 269 608 237 597 c 1,173,174
 297 576 297 576 305 547 c 0,175,176
 317 499 317 499 317 330 c 2,177,-1
 317 265 l 1,159,160
EndSplineSet
EndChar

